playfair-display_regular.sfdir
StartChar: exclam
Encoding: 33 33 677
Width: 537
Flags: W
LayerCount: 2
Back
Fore
SplineSet
334.5 1573.5 m 128,-1,1
 361 1545 361 1545 361 1487 c 0,2,3
 361 1400 361 1400 333 1122 c 0,4,5
 310 894 310 894 298 731.5 c 128,-1,6
 286 569 286 569 286 401 c 1,7,-1
 249 401 l 1,8,9
 249 570 249 570 236.5 738 c 128,-1,10
 224 906 224 906 201 1122 c 0,11,12
 173 1400 173 1400 173 1487 c 0,13,14
 173 1546 173 1546 199 1574 c 128,-1,15
 225 1602 225 1602 267 1602 c 0,16,0
 308 1602 308 1602 334.5 1573.5 c 128,-1,1
332.5 215.5 m 128,-1,18
 363 198 363 198 380.5 167.5 c 128,-1,19
 398 137 398 137 398 102 c 256,20,21
 398 67 398 67 380.5 37 c 128,-1,22
 363 7 363 7 332.5 -11 c 128,-1,23
 302 -29 302 -29 267 -29 c 256,24,25
 232 -29 232 -29 201.5 -11 c 128,-1,26
 171 7 171 7 153.5 37 c 128,-1,27
 136 67 136 67 136 102 c 256,28,29
 136 137 136 137 153.5 167.5 c 128,-1,30
 171 198 171 198 201.5 215.5 c 128,-1,31
 232 233 232 233 267 233 c 256,32,17
 302 233 302 233 332.5 215.5 c 128,-1,18
EndSplineSet
Substitution2: "'smcp' Lowercase to Small Capitals lookup 24 subtable" exclam.smcp
Substitution2: "'c2sc' Capitals to Small Capitals lookup 23 subtable" exclam.smcp
Substitution2: "'aalt' Access All Alternates lookup 0 subtable" exclam.smcp
EndChar
StartChar: numbersign
Encoding: 35 35 679
Width: 1305
Flags: W
LayerCount: 2
Back
Fore
SplineSet
831 547 m 1,0,-1
 1132 547 l 1,1,-1
 1123 506 l 1,2,-1
 823 506 l 1,3,-1
 765 207 l 1,4,-1
 724 207 l 1,5,-1
 782 506 l 1,6,-1
 440 506 l 1,7,-1
 382 207 l 1,8,-1
 341 207 l 1,9,-1
 399 506 l 1,10,-1
 97 506 l 1,11,-1
 105 547 l 1,12,-1
 407 547 l 1,13,-1
 473 889 l 1,14,-1
 173 889 l 1,15,-1
 179 930 l 1,16,-1
 481 930 l 1,17,-1
 540 1233 l 1,18,-1
 581 1233 l 1,19,-1
 522 930 l 1,20,-1
 864 930 l 1,21,-1
 923 1233 l 1,22,-1
 964 1233 l 1,23,-1
 905 930 l 1,24,-1
 1205 930 l 1,25,-1
 1199 889 l 1,26,-1
 897 889 l 1,27,-1
 831 547 l 1,0,-1
514 889 m 1,28,-1
 448 547 l 1,29,-1
 790 547 l 1,30,-1
 856 889 l 1,31,-1
 514 889 l 1,28,-1
EndSplineSet
EndChar
StartChar: dollar
Encoding: 36 36 719
Width: 1071
Flags: W
LayerCount: 2
Back
Fore
SplineSet
942 170.5 m 128,-1,1
 898 90 898 90 821.5 41.5 c 128,-1,2
 745 -7 745 -7 646 -22 c 1,3,-1
 646 -270 l 1,4,-1
 605 -270 l 1,5,-1
 605 -27 l 1,6,7
 571 -29 571 -29 552 -29 c 0,8,9
 522 -29 522 -29 474 -25 c 1,10,-1
 474 -270 l 1,11,-1
 433 -270 l 1,12,-1
 433 -19 l 1,13,14
 352 -2 352 -2 271 47 c 0,15,16
 227 76 227 76 202 76 c 0,17,18
 183 76 183 76 173 54.5 c 128,-1,19
 163 33 163 33 157 -14 c 1,20,-1
 110 -14 l 1,21,22
 118 98 118 98 118 477 c 1,23,-1
 165 477 l 1,24,25
 177 302 177 302 240.5 181.5 c 128,-1,26
 304 61 304 61 433 25 c 1,27,-1
 433 690 l 1,28,29
 332 753 332 753 266 810 c 128,-1,30
 200 867 200 867 160 943 c 128,-1,31
 120 1019 120 1019 120 1118 c 0,32,33
 120 1221 120 1221 161.5 1295.5 c 128,-1,34
 203 1370 203 1370 273.5 1413 c 128,-1,35
 344 1456 344 1456 433 1468 c 1,36,-1
 433 1720 l 1,37,-1
 474 1720 l 1,38,-1
 474 1472 l 1,39,-1
 505 1473 l 2,40,41
 563 1473 563 1473 605 1464 c 1,42,-1
 605 1720 l 1,43,-1
 646 1720 l 1,44,-1
 646 1454 l 1,45,46
 694 1438 694 1438 755 1397 c 0,47,48
 799 1368 799 1368 824 1368 c 0,49,50
 843 1368 843 1368 853 1389.5 c 128,-1,51
 863 1411 863 1411 869 1458 c 1,52,-1
 917 1458 l 1,53,54
 906 1345 906 1345 906 1040 c 1,55,-1
 859 1040 l 1,56,57
 850 1167 850 1167 797.5 1268.5 c 128,-1,58
 745 1370 745 1370 646 1411 c 1,59,-1
 646 803 l 1,60,61
 762 730 762 730 832.5 670.5 c 128,-1,62
 903 611 903 611 944.5 535.5 c 128,-1,63
 986 460 986 460 986 360 c 0,64,0
 986 251 986 251 942 170.5 c 128,-1,1
474 1430 m 1,66,-1
 474 909 l 1,67,-1
 556 858 l 2,68,69
 586 841 586 841 605 828 c 1,70,-1
 605 1424 l 1,71,72
 569 1434 569 1434 523 1434 c 0,73,65
 495 1434 495 1434 474 1430 c 1,66,-1
313.5 1052 m 128,-1,75
 354 992 354 992 433 937 c 1,76,-1
 433 1420 l 1,77,78
 360 1396 360 1396 316.5 1336.5 c 128,-1,79
 273 1277 273 1277 273 1196 c 0,80,74
 273 1112 273 1112 313.5 1052 c 128,-1,75
605 19 m 1,82,-1
 605 582 l 1,83,84
 556 617 556 617 484 659 c 2,85,-1
 474 665 l 1,86,-1
 474 17 l 1,87,88
 507 12 507 12 538 12 c 0,89,81
 574 12 574 12 605 19 c 1,82,-1
761 122 m 128,-1,91
 804 186 804 186 804 285 c 0,92,93
 804 366 804 366 764 429.5 c 128,-1,94
 724 493 724 493 646 553 c 1,95,-1
 646 31 l 1,96,90
 718 58 718 58 761 122 c 128,-1,91
EndSplineSet
Substitution2: "'smcp' Lowercase to Small Capitals lookup 24 subtable" dollar.smcp
Substitution2: "'c2sc' Capitals to Small Capitals lookup 23 subtable" dollar.smcp
Substitution2: "'aalt' Access All Alternates lookup 0 subtable" dollar.smcp
EndChar
StartChar: percent
Encoding: 37 37 739
Width: 1520
Flags: W
LayerCount: 2
Back
Fore
SplineSet
191 -113 m 1,0,-1
 152 -86 l 1,1,-1
 1350 1688 l 1,2,-1
 1389 1661 l 1,3,-1
 191 -113 l 1,0,-1
536 1519.5 m 128,-1,5
 605 1480 605 1480 643 1404.5 c 128,-1,6
 681 1329 681 1329 681 1225 c 0,7,8
 681 1123 681 1123 641.5 1045 c 128,-1,9
 602 967 602 967 533 924 c 128,-1,10
 464 881 464 881 376 881 c 0,11,12
 285 881 285 881 216 920.5 c 128,-1,13
 147 960 147 960 109 1035.5 c 128,-1,14
 71 1111 71 1111 71 1214 c 0,15,16
 71 1315 71 1315 110.5 1393.5 c 128,-1,17
 150 1472 150 1472 219.5 1515.5 c 128,-1,18
 289 1559 289 1559 376 1559 c 0,19,4
 467 1559 467 1559 536 1519.5 c 128,-1,5
214 1217 m 0,21,22
 214 1071 214 1071 258 994.5 c 128,-1,23
 302 918 302 918 380 918 c 0,24,25
 536 918 536 918 536 1221 c 0,26,27
 536 1369 536 1369 493 1445.5 c 128,-1,28
 450 1522 450 1522 372 1522 c 0,29,20
 214 1522 214 1522 214 1217 c 0,21,22
1298 609.5 m 128,-1,31
 1367 570 1367 570 1405 494.5 c 128,-1,32
 1443 419 1443 419 1443 315 c 0,33,34
 1443 214 1443 214 1403.5 135.5 c 128,-1,35
 1364 57 1364 57 1294.5 14 c 128,-1,36
 1225 -29 1225 -29 1138 -29 c 0,37,38
 1046 -29 1046 -29 977.5 10.5 c 128,-1,39
 909 50 909 50 871 125.5 c 128,-1,40
 833 201 833 201 833 305 c 0,41,42
 833 406 833 406 872.5 484 c 128,-1,43
 912 562 912 562 981.5 605.5 c 128,-1,44
 1051 649 1051 649 1138 649 c 0,45,30
 1229 649 1229 649 1298 609.5 c 128,-1,31
976 307 m 0,47,48
 976 161 976 161 1019.5 84.5 c 128,-1,49
 1063 8 1063 8 1142 8 c 0,50,51
 1297 8 1297 8 1297 311 c 0,52,53
 1297 459 1297 459 1254.5 535.5 c 128,-1,54
 1212 612 1212 612 1134 612 c 0,55,46
 976 612 976 612 976 307 c 0,47,48
EndSplineSet
EndChar
StartChar: ampersand
Encoding: 38 38 760
Width: 1714
Flags: W
LayerCount: 2
Back
Fore
SplineSet
1526 1445.5 m 128,-1,1
 1594 1412 1594 1412 1633 1349.5 c 128,-1,2
 1672 1287 1672 1287 1672 1202 c 0,3,4
 1672 1104 1672 1104 1619 1031.5 c 128,-1,5
 1566 959 1566 959 1478 915 c 0,6,7
 1403 879 1403 879 1174 808 c 1,8,9
 1289 760 1289 760 1343.5 669 c 128,-1,10
 1398 578 1398 578 1398 461 c 0,11,12
 1398 334 1398 334 1322.5 221.5 c 128,-1,13
 1247 109 1247 109 1105 40 c 128,-1,14
 963 -29 963 -29 773 -29 c 0,15,16
 594 -29 594 -29 442.5 33.5 c 128,-1,17
 291 96 291 96 200.5 212 c 128,-1,18
 110 328 110 328 110 481 c 0,19,20
 110 616 110 616 177 709 c 128,-1,21
 244 802 244 802 329.5 850.5 c 128,-1,22
 415 899 415 899 488 918 c 1,23,24
 388 961 388 961 335 1032 c 128,-1,25
 282 1103 282 1103 282 1182 c 0,26,27
 282 1250 282 1250 322 1308.5 c 128,-1,28
 362 1367 362 1367 440 1402.5 c 128,-1,29
 518 1438 518 1438 628 1438 c 0,30,31
 765 1438 765 1438 841 1376 c 0,32,33
 879 1345 879 1345 898 1307.5 c 128,-1,34
 917 1270 917 1270 917 1235 c 0,35,36
 917 1186 917 1186 882 1156 c 128,-1,37
 847 1126 847 1126 802 1126 c 0,38,39
 758 1126 758 1126 726.5 1154 c 128,-1,40
 695 1182 695 1182 695 1229 c 0,41,42
 695 1273 695 1273 725.5 1305 c 128,-1,43
 756 1337 756 1337 804 1341 c 1,44,45
 795 1368 795 1368 752 1387.5 c 128,-1,46
 709 1407 709 1407 648 1407 c 0,47,48
 541 1407 541 1407 476 1343 c 128,-1,49
 411 1279 411 1279 411 1163 c 0,50,51
 411 1026 411 1026 515 930 c 1,52,53
 586 942 586 942 642 942 c 0,54,55
 680 942 680 942 702 930 c 128,-1,56
 724 918 724 918 724 895 c 0,57,58
 724 877 724 877 708.5 866.5 c 128,-1,59
 693 856 693 856 667 856 c 0,60,61
 637 856 637 856 603 867 c 128,-1,62
 569 878 569 878 546 888.5 c 128,-1,63
 523 899 523 899 517 901 c 0,64,65
 251 822 251 822 251 565 c 0,66,67
 251 428 251 428 323 328 c 128,-1,68
 395 228 395 228 520 175.5 c 128,-1,69
 645 123 645 123 800 123 c 0,70,71
 946 123 946 123 1069 168.5 c 128,-1,72
 1192 214 1192 214 1265 299.5 c 128,-1,73
 1338 385 1338 385 1338 498 c 0,74,75
 1338 578 1338 578 1294.5 662.5 c 128,-1,76
 1251 747 1251 747 1132 795 c 1,77,78
 959 741 959 741 896 717 c 0,79,80
 810 684 810 684 763 642 c 128,-1,81
 716 600 716 600 716 539 c 0,82,83
 716 489 716 489 745.5 451.5 c 128,-1,84
 775 414 775 414 819 394.5 c 128,-1,85
 863 375 863 375 904 375 c 0,86,87
 939 375 939 375 980.5 387 c 128,-1,88
 1022 399 1022 399 1027 420 c 1,89,90
 988 427 988 427 959.5 452 c 128,-1,91
 931 477 931 477 931 524 c 0,92,93
 931 572 931 572 963 601.5 c 128,-1,94
 995 631 995 631 1043 631 c 0,95,96
 1092 631 1092 631 1122 600.5 c 128,-1,97
 1152 570 1152 570 1152 520 c 0,98,99
 1152 465 1152 465 1115 425 c 128,-1,100
 1078 385 1078 385 1021.5 364.5 c 128,-1,101
 965 344 965 344 908 344 c 0,102,103
 846 344 846 344 787.5 370 c 128,-1,104
 729 396 729 396 691.5 450 c 128,-1,105
 654 504 654 504 654 584 c 0,106,107
 654 688 654 688 724.5 761 c 128,-1,108
 795 834 795 834 937 883 c 0,109,110
 981 897 981 897 1085 927 c 0,111,112
 1327 994 1327 994 1437 1044 c 0,113,114
 1534 1090 1534 1090 1573.5 1137.5 c 128,-1,115
 1613 1185 1613 1185 1613 1241 c 0,116,117
 1613 1298 1613 1298 1580 1345.5 c 128,-1,118
 1547 1393 1547 1393 1492.5 1420.5 c 128,-1,119
 1438 1448 1438 1448 1375 1448 c 0,120,121
 1323 1448 1323 1448 1314 1430 c 1,122,123
 1341 1416 1341 1416 1356 1389.5 c 128,-1,124
 1371 1363 1371 1363 1371 1335 c 0,125,126
 1371 1293 1371 1293 1337 1264 c 128,-1,127
 1303 1235 1303 1235 1256 1235 c 0,128,129
 1212 1235 1212 1235 1180 1261.5 c 128,-1,130
 1148 1288 1148 1288 1148 1337 c 0,131,132
 1148 1387 1148 1387 1182 1419 c 128,-1,133
 1216 1451 1216 1451 1267.5 1465 c 128,-1,134
 1319 1479 1319 1479 1373 1479 c 0,135,0
 1458 1479 1458 1479 1526 1445.5 c 128,-1,1
EndSplineSet
Substitution2: "'smcp' Lowercase to Small Capitals lookup 24 subtable" ampersand.smcp
Substitution2: "'c2sc' Capitals to Small Capitals lookup 23 subtable" ampersand.smcp
Substitution2: "'aalt' Access All Alternates lookup 0 subtable" ampersand.smcp
EndChar
StartChar: quotesingle
Encoding: 39 39 685
Width: 387
Flags: W
LayerCount: 2
Back
Fore
SplineSet
246.5 1469.5 m 128,-1,1
 267 1444 267 1444 267 1401 c 0,2,3
 267 1343 267 1343 261 1292.5 c 128,-1,4
 255 1242 255 1242 240 1157 c 0,5,6
 221 1053 221 1053 208 958 c 1,7,-1
 179 958 l 1,8,9
 165 1054 165 1054 149 1146 c 0,10,11
 134 1234 134 1234 127 1287 c 128,-1,12
 120 1340 120 1340 120 1399 c 0,13,14
 120 1442 120 1442 141 1467.5 c 128,-1,15
 162 1493 162 1493 194 1495 c 0,16,0
 226 1495 226 1495 246.5 1469.5 c 128,-1,1
EndSplineSet
EndChar
StartChar: parenright
Encoding: 41 41 643
Width: 602
Flags: W
LayerCount: 2
Back
Fore
SplineSet
393.5 1201 m 128,-1,1
 511 947 511 947 511 639 c 256,2,3
 511 331 511 331 393.5 77 c 128,-1,4
 276 -177 276 -177 60 -373 c 1,5,-1
 32 -346 l 1,6,7
 199 -151 199 -151 269 84.5 c 128,-1,8
 339 320 339 320 339 639 c 256,9,10
 339 958 339 958 269 1193.5 c 128,-1,11
 199 1429 199 1429 32 1624 c 1,12,-1
 60 1651 l 1,13,0
 276 1455 276 1455 393.5 1201 c 128,-1,1
EndSplineSet
Substitution2: "'case' Case-Sensitive Forms lookup 25 subtable" parenright.case
Substitution2: "'smcp' Lowercase to Small Capitals lookup 24 subtable" parenright.smcp
Substitution2: "'c2sc' Capitals to Small Capitals lookup 23 subtable" parenright.smcp
AlternateSubs2: "'aalt' Access All Alternates lookup 1 subtable" parenright.smcp parenright.case
EndChar
StartChar: asterisk
Encoding: 42 42 671
Width: 1008
Flags: W
LayerCount: 2
Back
Fore
SplineSet
886 879 m 0,1,2
 886 861 886 861 876 844 c 0,3,4
 858 812 858 812 819 812 c 0,5,6
 786 812 786 812 744 836 c 0,7,8
 713 854 713 854 680.5 883 c 128,-1,9
 648 912 648 912 594 967 c 2,10,-1
 509 1051 l 1,11,-1
 542 928 l 2,12,13
 563 851 563 851 571.5 811.5 c 128,-1,14
 580 772 580 772 581 739 c 0,15,16
 580 682 580 682 557 655.5 c 128,-1,17
 534 629 534 629 501 629 c 0,18,19
 471 629 471 629 450 655 c 128,-1,20
 429 681 429 681 429 739 c 0,21,22
 429 774 429 774 437.5 812.5 c 128,-1,23
 446 851 446 851 466 928 c 2,24,-1
 499 1051 l 1,25,26
 453 1008 453 1008 409 962 c 0,27,28
 357 909 357 909 325 880 c 128,-1,29
 293 851 293 851 263 834 c 0,30,31
 223 811 223 811 190 811 c 0,32,33
 147 811 147 811 128 846 c 0,34,35
 119 862 119 862 119 877 c 0,36,37
 119 924 119 924 187 965 c 0,38,39
 217 982 217 982 254 994 c 128,-1,40
 291 1006 291 1006 365 1025 c 0,41,42
 457 1050 457 1050 491 1060 c 1,43,44
 431 1078 431 1078 370 1093 c 0,45,46
 294 1113 294 1113 254.5 1125.5 c 128,-1,47
 215 1138 215 1138 185 1155 c 0,48,49
 120 1194 120 1194 120 1243 c 0,50,51
 120 1261 120 1261 130 1278 c 0,52,53
 146 1310 146 1310 186 1310 c 0,54,55
 219 1310 219 1310 261 1286 c 0,56,57
 292 1268 292 1268 323 1240 c 128,-1,58
 354 1212 354 1212 409 1157 c 0,59,60
 462 1102 462 1102 497 1069 c 1,61,62
 488 1108 488 1108 466 1187 c 0,63,64
 446 1261 446 1261 436.5 1304 c 128,-1,65
 427 1347 427 1347 427 1382 c 0,66,67
 427 1439 427 1439 449 1466 c 128,-1,68
 471 1493 471 1493 503 1493 c 0,69,70
 534 1493 534 1493 555.5 1466 c 128,-1,71
 577 1439 577 1439 577 1382 c 0,72,73
 577 1347 577 1347 568.5 1307 c 128,-1,74
 560 1267 560 1267 539 1192 c 1,75,76
 549 1232 549 1232 507 1071 c 1,77,78
 541 1103 541 1103 598 1160 c 0,79,80
 697 1261 697 1261 742 1288 c 0,81,82
 784 1311 784 1311 815 1311 c 0,83,84
 859 1311 859 1311 878 1276 c 0,85,86
 887 1260 887 1260 887 1245 c 0,87,88
 887 1196 887 1196 818 1157 c 0,89,90
 788 1139 788 1139 749.5 1127 c 128,-1,91
 711 1115 711 1115 640 1096 c 0,92,93
 575 1080 575 1080 514 1062 c 1,94,95
 555 1050 555 1050 637 1028 c 0,96,97
 771 994 771 994 820 967 c 0,98,0
 886 929 886 929 886 879 c 0,1,2
EndSplineSet
EndChar
StartChar: plus
Encoding: 43 43 741
Width: 1202
Flags: W
LayerCount: 2
Back
Fore
SplineSet
1113 758 m 1,0,-1
 1113 696 l 1,1,-1
 638 696 l 1,2,-1
 638 215 l 1,3,-1
 564 215 l 1,4,-1
 564 696 l 1,5,-1
 87 696 l 1,6,-1
 87 758 l 1,7,-1
 564 758 l 1,8,-1
 564 1241 l 1,9,-1
 638 1241 l 1,10,-1
 638 758 l 1,11,-1
 1113 758 l 1,0,-1
EndSplineSet
EndChar
StartChar: comma
Encoding: 44 44 675
Width: 535
Flags: W
LayerCount: 2
Back
Fore
SplineSet
378 168 m 0,1,2
 413 114 413 114 413 33 c 0,3,4
 413 -70 413 -70 360.5 -151.5 c 128,-1,5
 308 -233 308 -233 202 -283 c 1,6,-1
 183 -246 l 1,7,8
 247 -219 247 -219 293 -161.5 c 128,-1,9
 339 -104 339 -104 339 -45 c 0,10,11
 339 -20 339 -20 333 -2 c 1,12,13
 298 -29 298 -29 257 -29 c 0,14,15
 201 -29 201 -29 163.5 6.5 c 128,-1,16
 126 42 126 42 126 102 c 0,17,18
 126 158 126 158 164 195.5 c 128,-1,19
 202 233 202 233 257 233 c 0,20,0
 336 233 336 233 378 168 c 0,1,2
EndSplineSet
EndChar
StartChar: period
Encoding: 46 46 680
Width: 516
Flags: W
LayerCount: 2
Back
Fore
SplineSet
322.5 215.5 m 128,-1,1
 353 198 353 198 370.5 167.5 c 128,-1,2
 388 137 388 137 388 102 c 256,3,4
 388 67 388 67 370.5 37 c 128,-1,5
 353 7 353 7 322.5 -11 c 128,-1,6
 292 -29 292 -29 257 -29 c 256,7,8
 222 -29 222 -29 191.5 -11 c 128,-1,9
 161 7 161 7 143.5 37 c 128,-1,10
 126 67 126 67 126 102 c 256,11,12
 126 137 126 137 143.5 167.5 c 128,-1,13
 161 198 161 198 191.5 215.5 c 128,-1,14
 222 233 222 233 257 233 c 256,15,0
 292 233 292 233 322.5 215.5 c 128,-1,1
EndSplineSet
EndChar
StartChar: slash
Encoding: 47 47 687
Width: 762
Flags: W
LayerCount: 2
Back
Fore
SplineSet
69 -29 m 1,0,-1
 626 1479 l 1,1,-1
 693 1479 l 1,2,-1
 136 -29 l 1,3,-1
 69 -29 l 1,0,-1
EndSplineSet
Substitution2: "'frac' Diagonal Fractions lookup 16 subtable" fraction
Substitution2: "'aalt' Access All Alternates lookup 0 subtable" fraction
EndChar
StartChar: zero
Encoding: 48 48 572
Width: 1229
Flags: W
LayerCount: 2
Back
Fore
SplineSet
879.5 1016 m 128,-1,1
 992 949 992 949 1055.5 827 c 128,-1,2
 1119 705 1119 705 1119 545 c 0,3,4
 1119 382 1119 382 1053.5 251 c 128,-1,5
 988 120 988 120 870.5 45.5 c 128,-1,6
 753 -29 753 -29 601 -29 c 0,7,8
 459 -29 459 -29 346 38 c 128,-1,9
 233 105 233 105 169 227.5 c 128,-1,10
 105 350 105 350 105 512 c 256,11,12
 105 674 105 674 169.5 804 c 128,-1,13
 234 934 234 934 352 1008.5 c 128,-1,14
 470 1083 470 1083 624 1083 c 0,15,0
 767 1083 767 1083 879.5 1016 c 128,-1,1
448.5 984 m 128,-1,17
 380 921 380 921 342 801.5 c 128,-1,18
 304 682 304 682 304 518 c 0,19,20
 304 342 304 342 346 227.5 c 128,-1,21
 388 113 388 113 459.5 60.5 c 128,-1,22
 531 8 531 8 620 8 c 0,23,24
 708 8 708 8 776.5 71.5 c 128,-1,25
 845 135 845 135 883 255 c 128,-1,26
 921 375 921 375 921 539 c 0,27,28
 921 714 921 714 879 828 c 128,-1,29
 837 942 837 942 765.5 994.5 c 128,-1,30
 694 1047 694 1047 605 1047 c 0,31,16
 517 1047 517 1047 448.5 984 c 128,-1,17
EndSplineSet
Substitution2: "'case' Case-Sensitive Forms lookup 25 subtable" zero.lf
Substitution2: "'lnum' Lining Figures lookup 20 subtable" zero.lf
Substitution2: "'frac' Diagonal Fractions lookup 17 subtable" zero.numr
Substitution2: "'dnom' Denominators lookup 15 subtable" zero.dnom
Substitution2: "'numr' Numerators lookup 14 subtable" zero.numr
Substitution2: "'sups' Superscript lookup 13 subtable" zero.sups
Substitution2: "'sinf' Scientific Inferiors lookup 12 subtable" zero.subs
Substitution2: "'subs' Subscript lookup 11 subtable" zero.subs
AlternateSubs2: "'aalt' Access All Alternates lookup 1 subtable" zero.subs zero.sups zero.numr zero.dnom zero.lf
EndChar
StartChar: one
Encoding: 49 49 573
Width: 758
Flags: W
LayerCount: 2
Back
Fore
SplineSet
536.5 109 m 128,-1,1
 556 73 556 73 598.5 58 c 128,-1,2
 641 43 641 43 714 43 c 1,3,-1
 714 0 l 1,4,5
 704 0 704 0 672 2 c 0,6,7
 486 8 486 8 431 8 c 0,8,9
 369 8 369 8 165 2 c 0,10,11
 127 0 127 0 116 0 c 1,12,-1
 116 43 l 1,13,14
 225 43 225 43 279 79.5 c 128,-1,15
 333 116 333 116 333 211 c 2,16,-1
 333 707 l 2,17,18
 333 806 333 806 312.5 852 c 128,-1,19
 292 898 292 898 243.5 913 c 128,-1,20
 195 928 195 928 95 928 c 1,21,-1
 95 973 l 1,22,23
 245 976 245 976 342.5 999.5 c 128,-1,24
 440 1023 440 1023 517 1077 c 1,25,-1
 517 211 l 2,26,0
 517 145 517 145 536.5 109 c 128,-1,1
EndSplineSet
Substitution2: "'case' Case-Sensitive Forms lookup 25 subtable" one.lf
Substitution2: "'lnum' Lining Figures lookup 20 subtable" one.lf
Substitution2: "'frac' Diagonal Fractions lookup 17 subtable" one.numr
Substitution2: "'dnom' Denominators lookup 15 subtable" one.dnom
Substitution2: "'numr' Numerators lookup 14 subtable" one.numr
Substitution2: "'sups' Superscript lookup 13 subtable" onesuperior
Substitution2: "'sinf' Scientific Inferiors lookup 12 subtable" one.subs
Substitution2: "'subs' Subscript lookup 11 subtable" one.subs
AlternateSubs2: "'aalt' Access All Alternates lookup 1 subtable" one.subs onesuperior one.numr one.dnom one.lf
EndChar
StartChar: two
Encoding: 50 50 574
Width: 981
Flags: W
LayerCount: 2
Back
Fore
SplineSet
724 1015.5 m 128,-1,1
 806 948 806 948 806 825 c 0,2,3
 806 741 806 741 762.5 662 c 128,-1,4
 719 583 719 583 656 517 c 128,-1,5
 593 451 593 451 491 360 c 0,6,7
 346 230 346 230 292 158 c 1,8,-1
 708 158 l 2,9,10
 764 158 764 158 791 167.5 c 128,-1,11
 818 177 818 177 829 198 c 128,-1,12
 840 219 840 219 845 262 c 1,13,-1
 880 262 l 1,14,15
 880 74 880 74 888 -10 c 1,16,17
 842 0 842 0 583 0 c 2,18,-1
 103 0 l 1,19,-1
 103 35 l 1,20,21
 135 70 135 70 223 152 c 0,22,23
 342 263 342 263 418.5 348 c 128,-1,24
 495 433 495 433 551 544 c 128,-1,25
 607 655 607 655 607 780 c 0,26,27
 607 1001 607 1001 402 1001 c 0,28,29
 235 1001 235 1001 128 809 c 1,30,-1
 95 827 l 1,31,32
 149 939 149 939 248 1011 c 128,-1,33
 347 1083 347 1083 499 1083 c 0,34,0
 642 1083 642 1083 724 1015.5 c 128,-1,1
EndSplineSet
Substitution2: "'case' Case-Sensitive Forms lookup 25 subtable" two.lf
Substitution2: "'lnum' Lining Figures lookup 20 subtable" two.lf
Substitution2: "'frac' Diagonal Fractions lookup 17 subtable" two.numr
Substitution2: "'dnom' Denominators lookup 15 subtable" two.dnom
Substitution2: "'numr' Numerators lookup 14 subtable" two.numr
Substitution2: "'sups' Superscript lookup 13 subtable" twosuperior
Substitution2: "'sinf' Scientific Inferiors lookup 12 subtable" two.subs
Substitution2: "'subs' Subscript lookup 11 subtable" two.subs
AlternateSubs2: "'aalt' Access All Alternates lookup 1 subtable" two.subs twosuperior two.numr two.dnom two.lf
EndChar
StartChar: three
Encoding: 51 51 575
Width: 924
Flags: W
LayerCount: 2
Back
Fore
SplineSet
616 1055 m 128,-1,1
 683 1027 683 1027 721 974 c 128,-1,2
 759 921 759 921 759 850 c 0,3,4
 759 774 759 774 716.5 707 c 128,-1,5
 674 640 674 640 604.5 590.5 c 128,-1,6
 535 541 535 541 454 512 c 1,7,8
 554 510 554 510 640 475 c 128,-1,9
 726 440 726 440 779.5 371 c 128,-1,10
 833 302 833 302 833 201 c 0,11,12
 833 52 833 52 720 -64.5 c 128,-1,13
 607 -181 607 -181 430.5 -245 c 128,-1,14
 254 -309 254 -309 75 -309 c 1,15,-1
 75 -272 l 1,16,17
 220 -269 220 -269 349 -212.5 c 128,-1,18
 478 -156 478 -156 558 -50 c 128,-1,19
 638 56 638 56 638 201 c 0,20,21
 638 280 638 280 611.5 343.5 c 128,-1,22
 585 407 585 407 535.5 444.5 c 128,-1,23
 486 482 486 482 421 487 c 1,24,25
 412 483 412 483 389 474 c 128,-1,26
 366 465 366 465 351 461 c 128,-1,27
 336 457 336 457 325 457 c 0,28,29
 292 457 292 457 292 483 c 0,30,31
 292 501 292 501 307 511.5 c 128,-1,32
 322 522 322 522 345 522 c 0,33,34
 358 522 358 522 384 518 c 2,35,-1
 417 514 l 1,36,37
 497 575 497 575 535.5 651 c 128,-1,38
 574 727 574 727 574 809 c 0,39,40
 574 903 574 903 527.5 948 c 128,-1,41
 481 993 481 993 396 993 c 0,42,43
 310 993 310 993 240 947.5 c 128,-1,44
 170 902 170 902 124 811 c 1,45,-1
 89 827 l 1,46,47
 207 1083 207 1083 464 1083 c 0,48,0
 549 1083 549 1083 616 1055 c 128,-1,1
EndSplineSet
Substitution2: "'case' Case-Sensitive Forms lookup 25 subtable" three.lf
Substitution2: "'lnum' Lining Figures lookup 20 subtable" three.lf
Substitution2: "'frac' Diagonal Fractions lookup 17 subtable" three.numr
Substitution2: "'dnom' Denominators lookup 15 subtable" three.dnom
Substitution2: "'numr' Numerators lookup 14 subtable" three.numr
Substitution2: "'sups' Superscript lookup 13 subtable" threesuperior
Substitution2: "'sinf' Scientific Inferiors lookup 12 subtable" three.subs
Substitution2: "'subs' Subscript lookup 11 subtable" three.subs
AlternateSubs2: "'aalt' Access All Alternates lookup 1 subtable" three.subs threesuperior three.numr three.dnom three.lf
EndChar
StartChar: four
Encoding: 52 52 576
Width: 1012
Flags: W
LayerCount: 2
Back
Fore
SplineSet
732 110 m 1,1,-1
 732 -289 l 1,2,-1
 568 -289 l 1,3,-1
 568 111 l 1,4,-1
 34 111 l 1,5,-1
 34 154 l 1,6,-1
 699 1083 l 1,7,-1
 732 1083 l 1,8,-1
 732 248 l 1,9,-1
 757 248 l 2,10,11
 813 248 813 248 840 257.5 c 128,-1,12
 867 267 867 267 878 288 c 128,-1,13
 889 309 889 309 894 352 c 1,14,-1
 929 352 l 1,15,16
 929 180 929 180 937 100 c 1,17,0
 906 108 906 108 732 110 c 1,1,-1
568 832 m 1,18,-1
 155 248 l 1,19,-1
 568 248 l 1,20,-1
 568 832 l 1,18,-1
EndSplineSet
Substitution2: "'case' Case-Sensitive Forms lookup 25 subtable" four.lf
Substitution2: "'lnum' Lining Figures lookup 20 subtable" four.lf
Substitution2: "'frac' Diagonal Fractions lookup 17 subtable" four.numr
Substitution2: "'dnom' Denominators lookup 15 subtable" four.dnom
Substitution2: "'numr' Numerators lookup 14 subtable" four.numr
Substitution2: "'sups' Superscript lookup 13 subtable" four.sups
Substitution2: "'sinf' Scientific Inferiors lookup 12 subtable" four.subs
Substitution2: "'subs' Subscript lookup 11 subtable" four.subs
AlternateSubs2: "'aalt' Access All Alternates lookup 1 subtable" four.subs four.sups four.numr four.dnom four.lf
EndChar
StartChar: five
Encoding: 53 53 577
Width: 850
Flags: W
LayerCount: 2
Back
Fore
SplineSet
691 858 m 1,1,2
 647 868 647 868 407 868 c 2,3,-1
 189 868 l 1,4,-1
 165 473 l 1,5,6
 221 502 221 502 275 518.5 c 128,-1,7
 329 535 329 535 405 535 c 0,8,9
 525 535 525 535 606 494.5 c 128,-1,10
 687 454 687 454 727 382.5 c 128,-1,11
 767 311 767 311 767 219 c 0,12,13
 767 67 767 67 667.5 -52 c 128,-1,14
 568 -171 568 -171 411 -237 c 128,-1,15
 254 -303 254 -303 91 -303 c 1,16,-1
 91 -266 l 1,17,18
 216 -265 216 -265 326 -212 c 128,-1,19
 436 -159 436 -159 504 -54 c 128,-1,20
 572 51 572 51 572 199 c 0,21,22
 572 329 572 329 505 401 c 128,-1,23
 438 473 438 473 314 473 c 0,24,25
 264 473 264 473 229 465 c 128,-1,26
 194 457 194 457 146 438 c 1,27,-1
 126 451 l 1,28,-1
 165 1061 l 1,29,30
 206 1053 206 1053 275 1053 c 2,31,-1
 507 1053 l 2,32,33
 563 1053 563 1053 590 1062.5 c 128,-1,34
 617 1072 617 1072 627.5 1093 c 128,-1,35
 638 1114 638 1114 644 1157 c 1,36,-1
 683 1157 l 1,37,0
 683 949 683 949 691 858 c 1,1,2
EndSplineSet
Substitution2: "'case' Case-Sensitive Forms lookup 25 subtable" five.lf
Substitution2: "'lnum' Lining Figures lookup 20 subtable" five.lf
Substitution2: "'frac' Diagonal Fractions lookup 17 subtable" five.numr
Substitution2: "'dnom' Denominators lookup 15 subtable" five.dnom
Substitution2: "'numr' Numerators lookup 14 subtable" five.numr
Substitution2: "'sups' Superscript lookup 13 subtable" five.sups
Substitution2: "'sinf' Scientific Inferiors lookup 12 subtable" five.subs
Substitution2: "'subs' Subscript lookup 11 subtable" five.subs
AlternateSubs2: "'aalt' Access All Alternates lookup 1 subtable" five.subs five.sups five.numr five.dnom five.lf
EndChar
StartChar: six
Encoding: 54 54 578
Width: 1059
Flags: W
LayerCount: 2
Back
Fore
SplineSet
793.5 844 m 128,-1,1
 878 791 878 791 929 690 c 128,-1,2
 980 589 980 589 980 451 c 0,3,4
 980 302 980 302 919.5 193 c 128,-1,5
 859 84 859 84 756.5 27.5 c 128,-1,6
 654 -29 654 -29 529 -29 c 0,7,8
 399 -29 399 -29 305.5 39.5 c 128,-1,9
 212 108 212 108 162 239 c 128,-1,10
 112 370 112 370 112 553 c 0,11,12
 112 840 112 840 221 1039 c 128,-1,13
 330 1238 330 1238 488.5 1344 c 128,-1,14
 647 1450 647 1450 806 1481 c 1,15,-1
 814 1440 l 1,16,17
 689 1400 689 1400 589.5 1329.5 c 128,-1,18
 490 1259 490 1259 414 1113 c 128,-1,19
 338 967 338 967 317 729 c 1,20,21
 364 816 364 816 446.5 856.5 c 128,-1,22
 529 897 529 897 611 897 c 0,23,0
 709 897 709 897 793.5 844 c 128,-1,1
666 56 m 128,-1,25
 718 100 718 100 749.5 195 c 128,-1,26
 781 290 781 290 781 436 c 0,27,28
 781 644 781 644 720 741 c 128,-1,29
 659 838 659 838 560 838 c 0,30,31
 488 838 488 838 417.5 795.5 c 128,-1,32
 347 753 347 753 313 661 c 1,33,34
 310 612 310 612 310 557 c 0,35,36
 310 354 310 354 344.5 232.5 c 128,-1,37
 379 111 379 111 433 61.5 c 128,-1,38
 487 12 487 12 550 12 c 0,39,24
 614 12 614 12 666 56 c 128,-1,25
EndSplineSet
Substitution2: "'case' Case-Sensitive Forms lookup 25 subtable" six.lf
Substitution2: "'lnum' Lining Figures lookup 20 subtable" six.lf
Substitution2: "'frac' Diagonal Fractions lookup 17 subtable" six.numr
Substitution2: "'dnom' Denominators lookup 15 subtable" six.dnom
Substitution2: "'numr' Numerators lookup 14 subtable" six.numr
Substitution2: "'sups' Superscript lookup 13 subtable" six.sups
Substitution2: "'sinf' Scientific Inferiors lookup 12 subtable" six.subs
Substitution2: "'subs' Subscript lookup 11 subtable" six.subs
AlternateSubs2: "'aalt' Access All Alternates lookup 1 subtable" six.subs six.sups six.numr six.dnom six.lf
EndChar
StartChar: seven
Encoding: 55 55 579
Width: 831
Flags: W
LayerCount: 2
Back
Fore
SplineSet
707 791 m 0,1,2
 628 640 628 640 578 527 c 128,-1,3
 528 414 528 414 493.5 270 c 128,-1,4
 459 126 459 126 460 -37 c 0,5,6
 460 -85 460 -85 465 -135 c 0,7,8
 468 -204 468 -204 468 -199 c 1,9,10
 468 -245 468 -245 441.5 -274 c 128,-1,11
 415 -303 415 -303 372 -303 c 0,12,13
 327 -303 327 -303 303.5 -270 c 128,-1,14
 280 -237 280 -237 280 -188 c 0,15,16
 280 -31 280 -31 327.5 121.5 c 128,-1,17
 375 274 375 274 443 403 c 128,-1,18
 511 532 511 532 623 717 c 0,19,20
 692 831 692 831 720 881 c 1,21,-1
 235 881 l 2,22,23
 179 881 179 881 151.5 871.5 c 128,-1,24
 124 862 124 862 113.5 841 c 128,-1,25
 103 820 103 820 97 776 c 1,26,-1
 62 776 l 1,27,28
 62 978 62 978 54 1063 c 1,29,30
 100 1053 100 1053 359 1053 c 2,31,-1
 814 1053 l 1,32,-1
 814 1010 l 1,33,0
 780 930 780 930 707 791 c 0,1,2
EndSplineSet
Substitution2: "'case' Case-Sensitive Forms lookup 25 subtable" seven.lf
Substitution2: "'lnum' Lining Figures lookup 20 subtable" seven.lf
Substitution2: "'frac' Diagonal Fractions lookup 17 subtable" seven.numr
Substitution2: "'dnom' Denominators lookup 15 subtable" seven.dnom
Substitution2: "'numr' Numerators lookup 14 subtable" seven.numr
Substitution2: "'sups' Superscript lookup 13 subtable" seven.sups
Substitution2: "'sinf' Scientific Inferiors lookup 12 subtable" seven.subs
Substitution2: "'subs' Subscript lookup 11 subtable" seven.subs
AlternateSubs2: "'aalt' Access All Alternates lookup 1 subtable" seven.subs seven.sups seven.numr seven.dnom seven.lf
EndChar
StartChar: eight
Encoding: 56 56 580
Width: 1065
Flags: W
LayerCount: 2
Back
Fore
SplineSet
803.5 680.5 m 128,-1,1
 868 624 868 624 914 544 c 128,-1,2
 960 464 960 464 960 362 c 0,3,4
 960 247 960 247 903 158 c 128,-1,5
 846 69 846 69 745 20 c 128,-1,6
 644 -29 644 -29 517 -29 c 0,7,8
 405 -29 405 -29 311.5 10 c 128,-1,9
 218 49 218 49 161.5 126.5 c 128,-1,10
 105 204 105 204 105 315 c 0,11,12
 105 457 105 457 195 567.5 c 128,-1,13
 285 678 285 678 434 752 c 1,14,15
 352 818 352 818 297 875 c 128,-1,16
 242 932 242 932 207.5 1003 c 128,-1,17
 173 1074 173 1074 173 1159 c 0,18,19
 173 1253 173 1253 222.5 1325.5 c 128,-1,20
 272 1398 272 1398 357.5 1438.5 c 128,-1,21
 443 1479 443 1479 548 1479 c 0,22,23
 642 1479 642 1479 719 1446.5 c 128,-1,24
 796 1414 796 1414 841 1350.5 c 128,-1,25
 886 1287 886 1287 886 1198 c 0,26,27
 886 1088 886 1088 818.5 996 c 128,-1,28
 751 904 751 904 626 820 c 1,29,0
 739 737 739 737 803.5 680.5 c 128,-1,1
427 1415 m 128,-1,31
 383 1388 383 1388 358 1338.5 c 128,-1,32
 333 1289 333 1289 333 1223 c 0,33,34
 333 1142 333 1142 367.5 1076 c 128,-1,35
 402 1010 402 1010 457 957 c 128,-1,36
 512 904 512 904 595 843 c 1,37,38
 722 964 722 964 722 1171 c 0,39,40
 722 1295 722 1295 670.5 1368.5 c 128,-1,41
 619 1442 619 1442 525 1442 c 0,42,30
 471 1442 471 1442 427 1415 c 128,-1,31
657.5 39.5 m 128,-1,44
 716 71 716 71 750.5 131.5 c 128,-1,45
 785 192 785 192 785 276 c 0,46,47
 785 371 785 371 741 449 c 128,-1,48
 697 527 697 527 637 583 c 128,-1,49
 577 639 577 639 465 728 c 1,50,51
 286 597 286 597 286 346 c 0,52,53
 286 201 286 201 345 104.5 c 128,-1,54
 404 8 404 8 529 8 c 0,55,43
 599 8 599 8 657.5 39.5 c 128,-1,44
EndSplineSet
Substitution2: "'case' Case-Sensitive Forms lookup 25 subtable" eight.lf
Substitution2: "'lnum' Lining Figures lookup 20 subtable" eight.lf
Substitution2: "'frac' Diagonal Fractions lookup 17 subtable" eight.numr
Substitution2: "'dnom' Denominators lookup 15 subtable" eight.dnom
Substitution2: "'numr' Numerators lookup 14 subtable" eight.numr
Substitution2: "'sups' Superscript lookup 13 subtable" eight.sups
Substitution2: "'sinf' Scientific Inferiors lookup 12 subtable" eight.subs
Substitution2: "'subs' Subscript lookup 11 subtable" eight.subs
AlternateSubs2: "'aalt' Access All Alternates lookup 1 subtable" eight.subs eight.sups eight.numr eight.dnom eight.lf
EndChar
StartChar: nine
Encoding: 57 57 581
Width: 1042
Flags: W
LayerCount: 2
Back
Fore
SplineSet
749 1019.5 m 128,-1,1
 843 956 843 956 893 834.5 c 128,-1,2
 943 713 943 713 943 543 c 0,3,4
 943 282 943 282 833.5 100 c 128,-1,5
 724 -82 724 -82 565 -179.5 c 128,-1,6
 406 -277 406 -277 249 -303 c 1,7,-1
 241 -262 l 1,8,9
 357 -229 357 -229 452 -171.5 c 128,-1,10
 547 -114 547 -114 623 2.5 c 128,-1,11
 699 119 699 119 728 307 c 1,12,13
 679 230 679 230 600 194 c 128,-1,14
 521 158 521 158 443 158 c 0,15,16
 346 158 346 158 261.5 211 c 128,-1,17
 177 264 177 264 126 365 c 128,-1,18
 75 466 75 466 75 604 c 0,19,20
 75 753 75 753 135.5 861.5 c 128,-1,21
 196 970 196 970 298.5 1026.5 c 128,-1,22
 401 1083 401 1083 525 1083 c 0,23,0
 655 1083 655 1083 749 1019.5 c 128,-1,1
632 255.5 m 128,-1,25
 700 294 700 294 736 378 c 1,26,27
 744 458 744 458 744 539 c 0,28,29
 744 726 744 726 709.5 838.5 c 128,-1,30
 675 951 675 951 621.5 996.5 c 128,-1,31
 568 1042 568 1042 505 1042 c 0,32,33
 441 1042 441 1042 388.5 998 c 128,-1,34
 336 954 336 954 304.5 859 c 128,-1,35
 273 764 273 764 273 618 c 0,36,37
 273 410 273 410 334.5 313.5 c 128,-1,38
 396 217 396 217 495 217 c 0,39,24
 564 217 564 217 632 255.5 c 128,-1,25
EndSplineSet
Substitution2: "'case' Case-Sensitive Forms lookup 25 subtable" nine.lf
Substitution2: "'lnum' Lining Figures lookup 20 subtable" nine.lf
Substitution2: "'frac' Diagonal Fractions lookup 17 subtable" nine.numr
Substitution2: "'dnom' Denominators lookup 15 subtable" nine.dnom
Substitution2: "'numr' Numerators lookup 14 subtable" nine.numr
Substitution2: "'sups' Superscript lookup 13 subtable" nine.sups
Substitution2: "'sinf' Scientific Inferiors lookup 12 subtable" nine.subs
Substitution2: "'subs' Subscript lookup 11 subtable" nine.subs
AlternateSubs2: "'aalt' Access All Alternates lookup 1 subtable" nine.subs nine.sups nine.numr nine.dnom nine.lf
EndChar
StartChar: less
Encoding: 60 60 732
Width: 1245
Flags: W
LayerCount: 2
Back
Fore
SplineSet
255 727 m 1,0,-1
 1093 336 l 1,1,-1
 1058 262 l 1,2,-1
 60 727 l 1,3,-1
 1058 1192 l 1,4,-1
 1093 1118 l 1,5,-1
 255 727 l 1,0,-1
EndSplineSet
EndChar
StartChar: equal
Encoding: 61 61 727
Width: 1325
Flags: W
LayerCount: 2
Back
Fore
SplineSet
149 840 m 1,0,-1
 149 901 l 1,1,-1
 1175 901 l 1,2,-1
 1175 840 l 1,3,-1
 149 840 l 1,0,-1
149 553 m 1,4,-1
 149 614 l 1,5,-1
 1175 614 l 1,6,-1
 1175 553 l 1,7,-1
 149 553 l 1,4,-1
EndSplineSet
EndChar
StartChar: question
Encoding: 63 63 682
Width: 940
Flags: W
LayerCount: 2
Back
Fore
SplineSet
664 1557.5 m 128,-1,1
 761 1513 761 1513 815 1429.5 c 128,-1,2
 869 1346 869 1346 869 1233 c 0,3,4
 869 1065 869 1065 746 949 c 128,-1,5
 623 833 623 833 409 778 c 1,6,-1
 409 479 l 1,7,-1
 368 479 l 1,8,-1
 368 797 l 1,9,10
 498 845 498 845 568 905.5 c 128,-1,11
 638 966 638 966 662.5 1035.5 c 128,-1,12
 687 1105 687 1105 687 1194 c 0,13,14
 687 1380 687 1380 610.5 1470.5 c 128,-1,15
 534 1561 534 1561 400 1561 c 0,16,17
 341 1561 341 1561 286.5 1544 c 128,-1,18
 232 1527 232 1527 200 1487 c 1,19,20
 239 1479 239 1479 262.5 1451.5 c 128,-1,21
 286 1424 286 1424 286 1382 c 0,22,23
 286 1332 286 1332 253.5 1302 c 128,-1,24
 221 1272 221 1272 173 1272 c 0,25,26
 126 1272 126 1272 95.5 1302.5 c 128,-1,27
 65 1333 65 1333 65 1380 c 0,28,29
 65 1463 65 1463 161 1528 c 0,30,31
 269 1602 269 1602 439 1602 c 0,32,0
 567 1602 567 1602 664 1557.5 c 128,-1,1
455.5 215.5 m 128,-1,34
 486 198 486 198 503.5 167.5 c 128,-1,35
 521 137 521 137 521 102 c 256,36,37
 521 67 521 67 503.5 37 c 128,-1,38
 486 7 486 7 455.5 -11 c 128,-1,39
 425 -29 425 -29 390 -29 c 256,40,41
 355 -29 355 -29 324.5 -11 c 128,-1,42
 294 7 294 7 276.5 37 c 128,-1,43
 259 67 259 67 259 102 c 256,44,45
 259 137 259 137 276.5 167.5 c 128,-1,46
 294 198 294 198 324.5 215.5 c 128,-1,47
 355 233 355 233 390 233 c 256,48,33
 425 233 425 233 455.5 215.5 c 128,-1,34
EndSplineSet
Substitution2: "'smcp' Lowercase to Small Capitals lookup 24 subtable" question.smcp
Substitution2: "'c2sc' Capitals to Small Capitals lookup 23 subtable" question.smcp
Substitution2: "'aalt' Access All Alternates lookup 0 subtable" question.smcp
EndChar
StartChar: at
Encoding: 64 64 762
Width: 1798
Flags: W
LayerCount: 2
Back
Fore
SplineSet
986 186 m 0,1,2
 986 219 986 219 993 252 c 128,-1,3
 1000 285 1000 285 1007.5 308.5 c 128,-1,4
 1015 332 1015 332 1017 340 c 2,5,-1
 1017 342 l 1,6,7
 959 193 959 193 883 123 c 128,-1,8
 807 53 807 53 701 53 c 0,9,10
 591 53 591 53 541 120.5 c 128,-1,11
 491 188 491 188 491 301 c 0,12,13
 491 453 491 453 564 612 c 128,-1,14
 637 771 637 771 751 875 c 128,-1,15
 865 979 865 979 978 979 c 0,16,17
 1103 979 1103 979 1126 870 c 1,18,-1
 1142 950 l 1,19,20
 1259 950 1259 950 1326 979 c 1,21,-1
 1154 227 l 2,22,23
 1141 185 1141 185 1141 157 c 0,24,25
 1141 128 1141 128 1155.5 116 c 128,-1,26
 1170 104 1170 104 1201 104 c 0,27,28
 1288 104 1288 104 1404 190.5 c 128,-1,29
 1520 277 1520 277 1603.5 437 c 128,-1,30
 1687 597 1687 597 1687 807 c 0,31,32
 1687 989 1687 989 1607.5 1106 c 128,-1,33
 1528 1223 1528 1223 1394 1277 c 128,-1,34
 1260 1331 1260 1331 1091 1331 c 0,35,36
 844 1331 844 1331 624.5 1188.5 c 128,-1,37
 405 1046 405 1046 272.5 807.5 c 128,-1,38
 140 569 140 569 140 297 c 0,39,40
 140 93 140 93 218 -39 c 128,-1,41
 296 -171 296 -171 434 -232 c 128,-1,42
 572 -293 572 -293 755 -293 c 0,43,44
 991 -293 991 -293 1177 -182 c 1,45,-1
 1191 -209 l 1,46,47
 1112 -265 1112 -265 998.5 -297.5 c 128,-1,48
 885 -330 885 -330 753 -330 c 0,49,50
 557 -330 557 -330 410.5 -263.5 c 128,-1,51
 264 -197 264 -197 181.5 -57.5 c 128,-1,52
 99 82 99 82 99 293 c 0,53,54
 99 566 99 566 232.5 815 c 128,-1,55
 366 1064 366 1064 593.5 1216 c 128,-1,56
 821 1368 821 1368 1089 1368 c 0,57,58
 1274 1368 1274 1368 1417.5 1308.5 c 128,-1,59
 1561 1249 1561 1249 1644.5 1123 c 128,-1,60
 1728 997 1728 997 1728 805 c 0,61,62
 1728 586 1728 586 1637 414.5 c 128,-1,63
 1546 243 1546 243 1407 148 c 128,-1,64
 1268 53 1268 53 1134 53 c 0,65,0
 986 53 986 53 986 186 c 0,1,2
877 168 m 128,-1,67
 931 221 931 221 979 321 c 128,-1,68
 1027 421 1027 421 1061 556 c 1,69,-1
 1112 805 l 1,70,71
 1105 932 1105 932 986 932 c 0,72,73
 901 932 901 932 827 839 c 128,-1,74
 753 746 753 746 709 601.5 c 128,-1,75
 665 457 665 457 665 313 c 0,76,77
 665 115 665 115 771 115 c 0,78,66
 823 115 823 115 877 168 c 128,-1,67
EndSplineSet
Substitution2: "'case' Case-Sensitive Forms lookup 25 subtable" at.case
Substitution2: "'smcp' Lowercase to Small Capitals lookup 24 subtable" at.smcp
Substitution2: "'c2sc' Capitals to Small Capitals lookup 23 subtable" at.smcp
AlternateSubs2: "'aalt' Access All Alternates lookup 1 subtable" at.smcp at.case
EndChar
StartChar: A
Encoding: 65 65 2
Width: 1290
GlyphClass: 2
Flags: W
AnchorPoint: "Anchor-5" 0 0 basechar 0
AnchorPoint: "Anchor-4" 633 1450 basechar 0
AnchorPoint: "Anchor-3" 1278 0 basechar 0
LayerCount: 2
Back
Fore
SplineSet
1303 41 m 1,1,-1
 1303 0 l 1,2,3
 1219 6 1219 6 1083 6 c 0,4,5
 908 6 908 6 821 0 c 1,6,-1
 821 41 l 1,7,8
 899 44 899 44 932.5 60 c 128,-1,9
 966 76 966 76 966 117 c 0,10,11
 966 152 966 152 942 213 c 2,12,-1
 816 549 l 1,13,-1
 322 549 l 1,14,-1
 238 332 l 2,15,16
 197 228 197 228 197 164 c 0,17,18
 197 99 197 99 240.5 71 c 128,-1,19
 284 43 284 43 375 41 c 1,20,-1
 375 0 l 1,21,22
 258 6 258 6 139 6 c 0,23,24
 47 6 47 6 -14 0 c 1,25,-1
 -14 41 l 1,26,27
 88 64 88 64 147 219 c 2,28,-1
 629 1460 l 1,29,-1
 662 1460 l 1,30,-1
 1161 172 l 2,31,0
 1211 45 1211 45 1303 41 c 1,1,-1
572 1201 m 1,32,-1
 337 590 l 1,33,-1
 801 590 l 1,34,-1
 572 1201 l 1,32,-1
EndSplineSet
Substitution2: "Single Substitution lookup 29 subtable" ordfeminine
Substitution2: "'c2sc' Capitals to Small Capitals lookup 23 subtable" a.smcp
AlternateSubs2: "'aalt' Access All Alternates lookup 1 subtable" ordfeminine a.smcp
Position2: "'cpsp' Capital Spacing lookup 0 subtable" dx=20 dy=0 dh=20 dv=0
EndChar
StartChar: B
Encoding: 66 66 13
Width: 1276
GlyphClass: 2
Flags: W
LayerCount: 2
Back
Fore
SplineSet
1087 636.5 m 128,-1,1
 1183 537 1183 537 1183 397 c 0,2,3
 1183 281 1183 281 1123.5 191 c 128,-1,4
 1064 101 1064 101 953 50.5 c 128,-1,5
 842 0 842 0 691 0 c 2,6,-1
 597 2 l 2,7,8
 465 6 465 6 339 6 c 0,9,10
 171 6 171 6 85 0 c 1,11,-1
 85 41 l 1,12,13
 159 44 159 44 192.5 57 c 128,-1,14
 226 70 226 70 238.5 105 c 128,-1,15
 251 140 251 140 251 217 c 2,16,-1
 251 1233 l 2,17,18
 251 1310 251 1310 238.5 1345 c 128,-1,19
 226 1380 226 1380 192.5 1393 c 128,-1,20
 159 1406 159 1406 85 1409 c 1,21,-1
 85 1450 l 1,22,23
 170 1444 170 1444 335 1444 c 0,24,25
 371 1444 371 1444 557 1447 c 2,26,-1
 644 1448 l 2,27,28
 784 1448 784 1448 881 1407.5 c 128,-1,29
 978 1367 978 1367 1027 1294.5 c 128,-1,30
 1076 1222 1076 1222 1076 1126 c 0,31,32
 1076 1008 1076 1008 1001.5 914 c 128,-1,33
 927 820 927 820 765 770 c 1,34,-1
 765 766 l 1,35,0
 991 736 991 736 1087 636.5 c 128,-1,1
497 1394.5 m 128,-1,37
 465 1380 465 1380 453 1343 c 128,-1,38
 441 1306 441 1306 441 1233 c 2,39,-1
 441 770 l 1,40,-1
 579 770 l 2,41,42
 746 770 746 770 813 861 c 128,-1,43
 880 952 880 952 880 1104 c 0,44,45
 880 1258 880 1258 812 1333.5 c 128,-1,46
 744 1409 744 1409 593 1409 c 0,47,36
 529 1409 529 1409 497 1394.5 c 128,-1,37
978 406 m 0,49,50
 978 567 978 567 890.5 651 c 128,-1,51
 803 735 803 735 613 735 c 2,52,-1
 441 735 l 1,53,-1
 441 217 l 2,54,55
 441 143 441 143 453 108 c 128,-1,56
 465 73 465 73 497 60 c 128,-1,57
 529 47 529 47 595 47 c 0,58,48
 978 47 978 47 978 406 c 0,49,50
EndSplineSet
Substitution2: "'c2sc' Capitals to Small Capitals lookup 23 subtable" b.smcp
Substitution2: "'aalt' Access All Alternates lookup 0 subtable" b.smcp
Position2: "'cpsp' Capital Spacing lookup 0 subtable" dx=20 dy=0 dh=20 dv=0
EndChar
StartChar: C
Encoding: 67 67 14
Width: 1409
GlyphClass: 2
Flags: W
AnchorPoint: "Anchor-5" 766 0 basechar 0
AnchorPoint: "Anchor-4" 745 1450 basechar 0
AnchorPoint: "Anchor-3" 0 0 basechar 0
LayerCount: 2
Back
Fore
SplineSet
967.5 1444 m 128,-1,1
 1054 1409 1054 1409 1136 1346 c 0,2,3
 1158 1328 1158 1328 1176 1328 c 0,4,5
 1218 1328 1218 1328 1228 1450 c 1,6,-1
 1275 1450 l 1,7,8
 1267 1317 1267 1317 1267 979 c 1,9,-1
 1220 979 l 1,10,11
 1205 1071 1205 1071 1192.5 1122 c 128,-1,12
 1180 1173 1180 1173 1163 1208.5 c 128,-1,13
 1146 1244 1146 1244 1117 1282 c 0,14,15
 1055 1362 1055 1362 960 1402 c 128,-1,16
 865 1442 865 1442 755 1442 c 0,17,18
 622 1442 622 1442 522 1354 c 128,-1,19
 422 1266 422 1266 367 1103 c 128,-1,20
 312 940 312 940 312 721 c 0,21,22
 312 498 312 498 372 338 c 128,-1,23
 432 178 432 178 537 95 c 128,-1,24
 642 12 642 12 775 12 c 0,25,26
 877 12 877 12 974 51 c 128,-1,27
 1071 90 1071 90 1125 168 c 0,28,29
 1167 224 1167 224 1185 289.5 c 128,-1,30
 1203 355 1203 355 1220 492 c 1,31,-1
 1267 492 l 1,32,33
 1267 139 1267 139 1275 0 c 1,34,-1
 1228 0 l 1,35,36
 1223 64 1223 64 1211.5 92.5 c 128,-1,37
 1200 121 1200 121 1178 121 c 0,38,39
 1162 121 1162 121 1136 104 c 0,40,41
 1075 61 1075 61 1023.5 33.5 c 128,-1,42
 972 6 972 6 906 -11.5 c 128,-1,43
 840 -29 840 -29 757 -29 c 0,44,45
 562 -29 562 -29 415.5 59 c 128,-1,46
 269 147 269 147 188.5 314.5 c 128,-1,47
 108 482 108 482 108 713 c 0,48,49
 108 939 108 939 191 1113 c 128,-1,50
 274 1287 274 1287 422 1383 c 128,-1,51
 570 1479 570 1479 759 1479 c 0,52,0
 881 1479 881 1479 967.5 1444 c 128,-1,1
EndSplineSet
Substitution2: "'c2sc' Capitals to Small Capitals lookup 23 subtable" c.smcp
Substitution2: "'aalt' Access All Alternates lookup 0 subtable" c.smcp
Position2: "'cpsp' Capital Spacing lookup 0 subtable" dx=20 dy=0 dh=20 dv=0
EndChar
StartChar: D
Encoding: 68 68 20
Width: 1481
GlyphClass: 2
Flags: W
AnchorPoint: "Anchor-5" 0 0 basechar 0
AnchorPoint: "Anchor-4" 645 1450 basechar 0
AnchorPoint: "Anchor-3" 0 0 basechar 0
LayerCount: 2
Back
Fore
SplineSet
1186.5 1269 m 128,-1,1
 1367 1088 1367 1088 1367 741 c 0,2,3
 1367 518 1367 518 1279.5 350.5 c 128,-1,4
 1192 183 1192 183 1025 91.5 c 128,-1,5
 858 0 858 0 626 0 c 0,6,7
 578 0 578 0 506 3 c 0,8,9
 335 6 335 6 339 6 c 1,10,11
 171 6 171 6 85 0 c 1,12,-1
 85 41 l 1,13,14
 159 44 159 44 192.5 57 c 128,-1,15
 226 70 226 70 238.5 105 c 128,-1,16
 251 140 251 140 251 217 c 2,17,-1
 251 1233 l 2,18,19
 251 1310 251 1310 238.5 1345 c 128,-1,20
 226 1380 226 1380 192.5 1393 c 128,-1,21
 159 1406 159 1406 85 1409 c 1,22,-1
 85 1450 l 1,23,24
 195 1443 195 1443 285 1443 c 2,25,-1
 335 1444 l 1,26,-1
 419 1446 l 2,27,28
 579 1450 579 1450 644 1450 c 0,29,0
 1006 1450 1006 1450 1186.5 1269 c 128,-1,1
497 1398.5 m 128,-1,31
 465 1384 465 1384 453 1347 c 128,-1,32
 441 1310 441 1310 441 1237 c 2,33,-1
 441 213 l 2,34,35
 441 139 441 139 453 102.5 c 128,-1,36
 465 66 465 66 497.5 51.5 c 128,-1,37
 530 37 530 37 595 37 c 0,38,39
 813 37 813 37 937 116 c 128,-1,40
 1061 195 1061 195 1111.5 346.5 c 128,-1,41
 1162 498 1162 498 1162 733 c 0,42,43
 1162 969 1162 969 1107 1117.5 c 128,-1,44
 1052 1266 1052 1266 927.5 1339.5 c 128,-1,45
 803 1413 803 1413 593 1413 c 0,46,30
 529 1413 529 1413 497 1398.5 c 128,-1,31
EndSplineSet
Substitution2: "'c2sc' Capitals to Small Capitals lookup 23 subtable" d.smcp
Substitution2: "'aalt' Access All Alternates lookup 0 subtable" d.smcp
Position2: "'cpsp' Capital Spacing lookup 0 subtable" dx=20 dy=0 dh=20 dv=0
EndChar
StartChar: E
Encoding: 69 69 24
Width: 1247
GlyphClass: 2
Flags: W
AnchorPoint: "Anchor-5" 666 0 basechar 0
AnchorPoint: "Anchor-4" 627 1450 basechar 0
AnchorPoint: "Anchor-3" 1149 0 basechar 0
LayerCount: 2
Back
Fore
SplineSet
1148 0 m 1,1,2
 1009 6 1009 6 679 6 c 0,3,4
 286 6 286 6 85 0 c 1,5,-1
 85 41 l 1,6,7
 159 44 159 44 192.5 57 c 128,-1,8
 226 70 226 70 238.5 105 c 128,-1,9
 251 140 251 140 251 217 c 2,10,-1
 251 1233 l 2,11,12
 251 1310 251 1310 238.5 1345 c 128,-1,13
 226 1380 226 1380 192.5 1393 c 128,-1,14
 159 1406 159 1406 85 1409 c 1,15,-1
 85 1450 l 1,16,17
 286 1444 286 1444 679 1444 c 0,18,19
 980 1444 980 1444 1107 1450 c 1,20,21
 1093 1316 1093 1316 1093 1208 c 0,22,23
 1093 1128 1093 1128 1099 1081 c 1,24,-1
 1052 1081 l 1,25,26
 1037 1214 1037 1214 1014.5 1279 c 128,-1,27
 992 1344 992 1344 938.5 1373.5 c 128,-1,28
 885 1403 885 1403 777 1403 c 2,29,-1
 607 1403 l 2,30,31
 533 1403 533 1403 499.5 1391 c 128,-1,32
 466 1379 466 1379 453.5 1344.5 c 128,-1,33
 441 1310 441 1310 441 1233 c 2,34,-1
 441 750 l 1,35,-1
 577 750 l 2,36,37
 649 750 649 750 687.5 784 c 128,-1,38
 726 818 726 818 739.5 864 c 128,-1,39
 753 910 753 910 762 980 c 0,40,41
 763 998 763 998 767 1020 c 1,42,-1
 814 1020 l 1,43,44
 807 919 807 919 807 827 c 2,45,-1
 808 729 l 2,46,47
 808 625 808 625 820 438 c 1,48,-1
 773 438 l 1,49,-1
 770 467 l 2,50,51
 761 548 761 548 747 596 c 128,-1,52
 733 644 733 644 693.5 676.5 c 128,-1,53
 654 709 654 709 577 709 c 2,54,-1
 441 709 l 1,55,-1
 441 217 l 2,56,57
 441 140 441 140 453.5 105.5 c 128,-1,58
 466 71 466 71 499.5 59 c 128,-1,59
 533 47 533 47 607 47 c 2,60,-1
 757 47 l 2,61,62
 885 47 885 47 951.5 81 c 128,-1,63
 1018 115 1018 115 1047.5 190 c 128,-1,64
 1077 265 1077 265 1093 410 c 1,65,-1
 1140 410 l 1,66,67
 1134 355 1134 355 1134 262 c 0,68,0
 1134 146 1134 146 1148 0 c 1,1,2
EndSplineSet
Substitution2: "'c2sc' Capitals to Small Capitals lookup 23 subtable" e.smcp
Substitution2: "'aalt' Access All Alternates lookup 0 subtable" e.smcp
Position2: "'cpsp' Capital Spacing lookup 0 subtable" dx=20 dy=0 dh=20 dv=0
EndChar
StartChar: F
Encoding: 70 70 34
Width: 1165
GlyphClass: 2
Flags: W
LayerCount: 2
Back
Fore
SplineSet
1093 1188 m 0,1,2
 1093 1085 1093 1085 1099 1020 c 1,3,-1
 1052 1020 l 1,4,5
 1036 1179 1036 1179 1011 1255.5 c 128,-1,6
 986 1332 986 1332 924.5 1367.5 c 128,-1,7
 863 1403 863 1403 736 1403 c 2,8,-1
 607 1403 l 2,9,10
 533 1403 533 1403 499.5 1391 c 128,-1,11
 466 1379 466 1379 453.5 1344.5 c 128,-1,12
 441 1310 441 1310 441 1233 c 2,13,-1
 441 729 l 1,14,-1
 591 729 l 2,15,16
 663 729 663 729 701.5 763 c 128,-1,17
 740 797 740 797 753.5 843 c 128,-1,18
 767 889 767 889 776 959 c 0,19,20
 777 977 777 977 781 999 c 1,21,-1
 828 999 l 1,22,23
 821 899 821 899 821 806 c 2,24,-1
 822 709 l 2,25,26
 822 601 822 601 835 418 c 1,27,-1
 787 418 l 1,28,-1
 784 446 l 2,29,30
 775 527 775 527 761 575 c 128,-1,31
 747 623 747 623 707.5 655.5 c 128,-1,32
 668 688 668 688 591 688 c 2,33,-1
 441 688 l 1,34,-1
 441 217 l 2,35,36
 441 140 441 140 457 105 c 128,-1,37
 473 70 473 70 515 57 c 128,-1,38
 557 44 557 44 648 41 c 1,39,-1
 648 0 l 1,40,41
 542 6 542 6 347 6 c 0,42,43
 171 6 171 6 85 0 c 1,44,-1
 85 41 l 1,45,46
 159 44 159 44 192.5 57 c 128,-1,47
 226 70 226 70 238.5 105 c 128,-1,48
 251 140 251 140 251 217 c 2,49,-1
 251 1233 l 2,50,51
 251 1310 251 1310 238.5 1345 c 128,-1,52
 226 1380 226 1380 192.5 1393 c 128,-1,53
 159 1406 159 1406 85 1409 c 1,54,-1
 85 1450 l 1,55,56
 286 1444 286 1444 679 1444 c 0,57,58
 980 1444 980 1444 1107 1450 c 1,59,0
 1093 1304 1093 1304 1093 1188 c 0,1,2
EndSplineSet
Substitution2: "'c2sc' Capitals to Small Capitals lookup 23 subtable" f.smcp
Substitution2: "'aalt' Access All Alternates lookup 0 subtable" f.smcp
Position2: "'cpsp' Capital Spacing lookup 0 subtable" dx=20 dy=0 dh=20 dv=0
EndChar
StartChar: G
Encoding: 71 71 35
Width: 1440
GlyphClass: 2
Flags: W
AnchorPoint: "Anchor-5" 772 0 basechar 0
AnchorPoint: "Anchor-4" 739 1450 basechar 0
AnchorPoint: "Anchor-3" 0 0 basechar 0
LayerCount: 2
Back
Fore
SplineSet
916.5 1461.5 m 128,-1,1
 981 1444 981 1444 1028.5 1417 c 128,-1,2
 1076 1390 1076 1390 1138 1346 c 0,3,4
 1164 1325 1164 1325 1179 1325 c 0,5,6
 1218 1325 1218 1325 1230 1450 c 1,7,-1
 1277 1450 l 1,8,9
 1269 1317 1269 1317 1269 979 c 1,10,-1
 1222 979 l 1,11,12
 1204 1089 1204 1089 1183 1159.5 c 128,-1,13
 1162 1230 1162 1230 1119 1282 c 0,14,15
 1059 1356 1059 1356 964 1399 c 128,-1,16
 869 1442 869 1442 765 1442 c 0,17,18
 630 1442 630 1442 528 1354 c 128,-1,19
 426 1266 426 1266 370 1103.5 c 128,-1,20
 314 941 314 941 314 723 c 0,21,22
 314 477 314 477 366.5 320 c 128,-1,23
 419 163 419 163 526.5 87.5 c 128,-1,24
 634 12 634 12 802 12 c 0,25,26
 925 12 925 12 1015 76 c 0,27,28
 1052 101 1052 101 1063 124 c 128,-1,29
 1074 147 1074 147 1074 188 c 2,30,-1
 1074 385 l 2,31,32
 1074 470 1074 470 1058 509.5 c 128,-1,33
 1042 549 1042 549 1000 563.5 c 128,-1,34
 958 578 958 578 867 582 c 1,35,-1
 867 623 l 1,36,37
 968 616 968 616 1156 616 c 0,38,39
 1300 616 1300 616 1369 623 c 1,40,-1
 1369 582 l 1,41,42
 1321 578 1321 578 1300.5 565.5 c 128,-1,43
 1280 553 1280 553 1272.5 519 c 128,-1,44
 1265 485 1265 485 1265 406 c 2,45,-1
 1265 0 l 1,46,-1
 1224 0 l 1,47,48
 1222 42 1222 42 1207 79.5 c 128,-1,49
 1192 117 1192 117 1168 117 c 0,50,51
 1155 117 1155 117 1143 110.5 c 128,-1,52
 1131 104 1131 104 1101 82 c 0,53,54
 1029 27 1029 27 952.5 -1 c 128,-1,55
 876 -29 876 -29 781 -29 c 0,56,57
 571 -29 571 -29 420 58 c 128,-1,58
 269 145 269 145 189.5 309 c 128,-1,59
 110 473 110 473 110 700 c 0,60,61
 110 935 110 935 194.5 1111.5 c 128,-1,62
 279 1288 279 1288 429 1383.5 c 128,-1,63
 579 1479 579 1479 769 1479 c 0,64,0
 852 1479 852 1479 916.5 1461.5 c 128,-1,1
EndSplineSet
Substitution2: "'c2sc' Capitals to Small Capitals lookup 23 subtable" g.smcp
Substitution2: "'aalt' Access All Alternates lookup 0 subtable" g.smcp
Position2: "'cpsp' Capital Spacing lookup 0 subtable" dx=20 dy=0 dh=20 dv=0
EndChar
StartChar: H
Encoding: 72 72 41
Width: 1550
GlyphClass: 2
Flags: W
AnchorPoint: "Anchor-5" 0 0 basechar 0
AnchorPoint: "Anchor-4" 780 1450 basechar 0
AnchorPoint: "Anchor-3" 0 0 basechar 0
LayerCount: 2
Back
Fore
SplineSet
1355.5 1393 m 128,-1,1
 1322 1380 1322 1380 1309.5 1345 c 128,-1,2
 1297 1310 1297 1310 1297 1233 c 2,3,-1
 1297 217 l 2,4,5
 1297 140 1297 140 1309.5 105 c 128,-1,6
 1322 70 1322 70 1355.5 57 c 128,-1,7
 1389 44 1389 44 1463 41 c 1,8,-1
 1463 0 l 1,9,10
 1378 6 1378 6 1201 6 c 0,11,12
 1037 6 1037 6 941 0 c 1,13,-1
 941 41 l 1,14,15
 1015 44 1015 44 1048.5 57 c 128,-1,16
 1082 70 1082 70 1094.5 105 c 128,-1,17
 1107 140 1107 140 1107 217 c 2,18,-1
 1107 709 l 1,19,-1
 441 709 l 1,20,-1
 441 217 l 2,21,22
 441 140 441 140 453.5 105 c 128,-1,23
 466 70 466 70 499.5 57 c 128,-1,24
 533 44 533 44 607 41 c 1,25,-1
 607 0 l 1,26,27
 513 6 513 6 347 6 c 0,28,29
 171 6 171 6 85 0 c 1,30,-1
 85 41 l 1,31,32
 159 44 159 44 192.5 57 c 128,-1,33
 226 70 226 70 238.5 105 c 128,-1,34
 251 140 251 140 251 217 c 2,35,-1
 251 1233 l 2,36,37
 251 1310 251 1310 238.5 1345 c 128,-1,38
 226 1380 226 1380 192.5 1393 c 128,-1,39
 159 1406 159 1406 85 1409 c 1,40,-1
 85 1450 l 1,41,42
 170 1444 170 1444 347 1444 c 0,43,44
 513 1444 513 1444 607 1450 c 1,45,-1
 607 1409 l 1,46,47
 533 1406 533 1406 499.5 1393 c 128,-1,48
 466 1380 466 1380 453.5 1345 c 128,-1,49
 441 1310 441 1310 441 1233 c 2,50,-1
 441 750 l 1,51,-1
 1107 750 l 1,52,-1
 1107 1233 l 2,53,54
 1107 1310 1107 1310 1094.5 1345 c 128,-1,55
 1082 1380 1082 1380 1048.5 1393 c 128,-1,56
 1015 1406 1015 1406 941 1409 c 1,57,-1
 941 1450 l 1,58,59
 1037 1444 1037 1444 1201 1444 c 0,60,61
 1377 1444 1377 1444 1463 1450 c 1,62,-1
 1463 1409 l 1,63,0
 1389 1406 1389 1406 1355.5 1393 c 128,-1,1
EndSplineSet
Substitution2: "'c2sc' Capitals to Small Capitals lookup 23 subtable" h.smcp
Substitution2: "'aalt' Access All Alternates lookup 0 subtable" h.smcp
Position2: "'cpsp' Capital Spacing lookup 0 subtable" dx=20 dy=0 dh=20 dv=0
EndChar
StartChar: I
Encoding: 73 73 44
Width: 694
GlyphClass: 2
Flags: W
AnchorPoint: "Anchor-5" 348 0 basechar 0
AnchorPoint: "Anchor-4" 348 1450 basechar 0
AnchorPoint: "Anchor-3" 608 0 basechar 0
LayerCount: 2
Back
Fore
SplineSet
499.5 1393 m 128,-1,1
 466 1380 466 1380 453.5 1345 c 128,-1,2
 441 1310 441 1310 441 1233 c 2,3,-1
 441 217 l 2,4,5
 441 140 441 140 453.5 105 c 128,-1,6
 466 70 466 70 499.5 57 c 128,-1,7
 533 44 533 44 607 41 c 1,8,-1
 607 0 l 1,9,10
 513 6 513 6 347 6 c 0,11,12
 171 6 171 6 85 0 c 1,13,-1
 85 41 l 1,14,15
 159 44 159 44 192.5 57 c 128,-1,16
 226 70 226 70 238.5 105 c 128,-1,17
 251 140 251 140 251 217 c 2,18,-1
 251 1233 l 2,19,20
 251 1310 251 1310 238.5 1345 c 128,-1,21
 226 1380 226 1380 192.5 1393 c 128,-1,22
 159 1406 159 1406 85 1409 c 1,23,-1
 85 1450 l 1,24,25
 170 1444 170 1444 347 1444 c 0,26,27
 513 1444 513 1444 607 1450 c 1,28,-1
 607 1409 l 1,29,0
 533 1406 533 1406 499.5 1393 c 128,-1,1
EndSplineSet
Substitution2: "'c2sc' Capitals to Small Capitals lookup 23 subtable" i.smcp
Substitution2: "'aalt' Access All Alternates lookup 0 subtable" i.smcp
Position2: "'cpsp' Capital Spacing lookup 0 subtable" dx=20 dy=0 dh=20 dv=0
EndChar
StartChar: J
Encoding: 74 74 55
Width: 668
GlyphClass: 2
Flags: W
AnchorPoint: "Anchor-5" 0 0 basechar 0
AnchorPoint: "Anchor-4" 336 1450 basechar 0
AnchorPoint: "Anchor-3" 0 0 basechar 0
LayerCount: 2
Back
Fore
SplineSet
488.5 1393 m 128,-1,1
 455 1380 455 1380 442.5 1345 c 128,-1,2
 430 1310 430 1310 430 1233 c 2,3,-1
 430 483 l 2,4,5
 430 309 430 309 423.5 174.5 c 128,-1,6
 417 40 417 40 395 -51 c 0,7,8
 372 -147 372 -147 314 -222.5 c 128,-1,9
 256 -298 256 -298 166.5 -341.5 c 128,-1,10
 77 -385 77 -385 -37 -385 c 0,11,12
 -137 -385 -137 -385 -209 -348 c 0,13,14
 -307 -297 -307 -297 -307 -207 c 0,15,16
 -307 -159 -307 -159 -276.5 -128.5 c 128,-1,17
 -246 -98 -246 -98 -199 -98 c 0,18,19
 -150 -98 -150 -98 -118 -128 c 128,-1,20
 -86 -158 -86 -158 -86 -209 c 0,21,22
 -86 -252 -86 -252 -109 -278.5 c 128,-1,23
 -132 -305 -132 -305 -172 -313 c 1,24,25
 -154 -331 -154 -331 -115.5 -338.5 c 128,-1,26
 -77 -346 -77 -346 -41 -346 c 0,27,28
 48 -346 48 -346 112.5 -300 c 128,-1,29
 177 -254 177 -254 205 -172 c 0,30,31
 226 -108 226 -108 233 -12.5 c 128,-1,32
 240 83 240 83 240 297 c 2,33,-1
 240 1233 l 2,34,35
 240 1310 240 1310 227.5 1345 c 128,-1,36
 215 1380 215 1380 181.5 1393 c 128,-1,37
 148 1406 148 1406 74 1409 c 1,38,-1
 74 1450 l 1,39,40
 159 1444 159 1444 336 1444 c 0,41,42
 500 1444 500 1444 596 1450 c 1,43,-1
 596 1409 l 1,44,0
 522 1406 522 1406 488.5 1393 c 128,-1,1
EndSplineSet
Substitution2: "'c2sc' Capitals to Small Capitals lookup 23 subtable" j.smcp
Substitution2: "'aalt' Access All Alternates lookup 0 subtable" j.smcp
Position2: "'cpsp' Capital Spacing lookup 0 subtable" dx=20 dy=0 dh=20 dv=0
EndChar
StartChar: K
Encoding: 75 75 57
Width: 1341
GlyphClass: 2
Flags: W
AnchorPoint: "Anchor-5" 709 0 basechar 0
AnchorPoint: "Anchor-4" 707 1450 basechar 0
AnchorPoint: "Anchor-3" 0 0 basechar 0
LayerCount: 2
Back
Fore
SplineSet
1234 85 m 128,-1,1
 1276 56 1276 56 1338 41 c 1,2,-1
 1338 0 l 1,3,4
 1241 6 1241 6 1093 6 c 0,5,6
 982 6 982 6 882 0 c 1,7,-1
 882 41 l 1,8,9
 930 43 930 43 953 53 c 128,-1,10
 976 63 976 63 976 84 c 0,11,12
 976 103 976 103 955 133 c 2,13,-1
 656 584 l 2,14,15
 615 647 615 647 584.5 677 c 128,-1,16
 554 707 554 707 523 718.5 c 128,-1,17
 492 730 492 730 441 733 c 1,18,-1
 441 217 l 2,19,20
 441 140 441 140 453.5 105 c 128,-1,21
 466 70 466 70 499.5 57 c 128,-1,22
 533 44 533 44 607 41 c 1,23,-1
 607 0 l 1,24,25
 513 6 513 6 347 6 c 0,26,27
 171 6 171 6 85 0 c 1,28,-1
 85 41 l 1,29,30
 159 44 159 44 192.5 57 c 128,-1,31
 226 70 226 70 238.5 105 c 128,-1,32
 251 140 251 140 251 217 c 2,33,-1
 251 1233 l 2,34,35
 251 1310 251 1310 238.5 1345 c 128,-1,36
 226 1380 226 1380 192.5 1393 c 128,-1,37
 159 1406 159 1406 85 1409 c 1,38,-1
 85 1450 l 1,39,40
 170 1444 170 1444 347 1444 c 0,41,42
 513 1444 513 1444 607 1450 c 1,43,-1
 607 1409 l 1,44,45
 533 1406 533 1406 499.5 1393 c 128,-1,46
 466 1380 466 1380 453.5 1345 c 128,-1,47
 441 1310 441 1310 441 1233 c 2,48,-1
 441 774 l 1,49,50
 589 779 589 779 675 889 c 2,51,-1
 871 1139 l 2,52,53
 976 1272 976 1272 976 1335 c 0,54,55
 976 1406 976 1406 849 1409 c 1,56,-1
 849 1450 l 1,57,58
 966 1444 966 1444 1084 1444 c 0,59,60
 1198 1444 1198 1444 1259 1450 c 1,61,-1
 1259 1409 l 1,62,63
 1191 1399 1191 1399 1131.5 1365 c 128,-1,64
 1072 1331 1072 1331 1017 1260 c 2,65,-1
 683 832 l 1,66,-1
 1158 166 l 2,67,0
 1192 114 1192 114 1234 85 c 128,-1,1
EndSplineSet
Substitution2: "'c2sc' Capitals to Small Capitals lookup 23 subtable" k.smcp
Substitution2: "'aalt' Access All Alternates lookup 0 subtable" k.smcp
Position2: "'cpsp' Capital Spacing lookup 0 subtable" dx=20 dy=0 dh=20 dv=0
EndChar
StartChar: L
Encoding: 76 76 59
Width: 1204
GlyphClass: 2
Flags: W
AnchorPoint: "Anchor-5" 680 0 basechar 0
AnchorPoint: "Anchor-4" 348 1450 basechar 0
AnchorPoint: "Anchor-3" 0 0 basechar 0
LayerCount: 2
Back
Fore
SplineSet
499.5 1393 m 128,-1,1
 466 1380 466 1380 453.5 1345 c 128,-1,2
 441 1310 441 1310 441 1233 c 2,3,-1
 441 217 l 2,4,5
 441 140 441 140 453.5 105.5 c 128,-1,6
 466 71 466 71 499.5 59 c 128,-1,7
 533 47 533 47 607 47 c 2,8,-1
 757 47 l 2,9,10
 885 47 885 47 951.5 83 c 128,-1,11
 1018 119 1018 119 1047.5 198 c 128,-1,12
 1077 277 1077 277 1093 430 c 1,13,-1
 1140 430 l 1,14,15
 1134 366 1134 366 1134 262 c 0,16,17
 1134 146 1134 146 1148 0 c 1,18,19
 1009 6 1009 6 679 6 c 0,20,21
 286 6 286 6 85 0 c 1,22,-1
 85 41 l 1,23,24
 159 44 159 44 192.5 57 c 128,-1,25
 226 70 226 70 238.5 105 c 128,-1,26
 251 140 251 140 251 217 c 2,27,-1
 251 1233 l 2,28,29
 251 1310 251 1310 238.5 1345 c 128,-1,30
 226 1380 226 1380 192.5 1393 c 128,-1,31
 159 1406 159 1406 85 1409 c 1,32,-1
 85 1450 l 1,33,34
 170 1444 170 1444 347 1444 c 0,35,36
 513 1444 513 1444 607 1450 c 1,37,-1
 607 1409 l 1,38,0
 533 1406 533 1406 499.5 1393 c 128,-1,1
EndSplineSet
Substitution2: "'c2sc' Capitals to Small Capitals lookup 23 subtable" l.smcp
Substitution2: "'aalt' Access All Alternates lookup 0 subtable" l.smcp
Position2: "'cpsp' Capital Spacing lookup 0 subtable" dx=20 dy=0 dh=20 dv=0
EndChar
StartChar: M
Encoding: 77 77 65
Width: 1784
GlyphClass: 2
Flags: W
LayerCount: 2
Back
Fore
SplineSet
1589.5 1393 m 128,-1,1
 1556 1380 1556 1380 1543.5 1345 c 128,-1,2
 1531 1310 1531 1310 1531 1233 c 2,3,-1
 1531 217 l 2,4,5
 1531 140 1531 140 1543.5 105 c 128,-1,6
 1556 70 1556 70 1589.5 57 c 128,-1,7
 1623 44 1623 44 1697 41 c 1,8,-1
 1697 0 l 1,9,10
 1601 6 1601 6 1437 6 c 0,11,12
 1261 6 1261 6 1175 0 c 1,13,-1
 1175 41 l 1,14,15
 1249 44 1249 44 1282 57 c 128,-1,16
 1315 70 1315 70 1327.5 105 c 128,-1,17
 1340 140 1340 140 1340 217 c 2,18,-1
 1340 1313 l 1,19,-1
 847 -10 l 1,20,-1
 814 -10 l 1,21,-1
 298 1319 l 1,22,-1
 298 238 l 2,23,24
 298 159 298 159 312 119 c 128,-1,25
 326 79 326 79 364.5 61.5 c 128,-1,26
 403 44 403 44 484 41 c 1,27,-1
 484 0 l 1,28,29
 411 6 411 6 275 6 c 0,30,31
 153 6 153 6 85 0 c 1,32,-1
 85 41 l 1,33,34
 156 44 156 44 190.5 61.5 c 128,-1,35
 225 79 225 79 238 119 c 128,-1,36
 251 159 251 159 251 238 c 2,37,-1
 251 1233 l 2,38,39
 251 1310 251 1310 238.5 1345 c 128,-1,40
 226 1380 226 1380 192.5 1393 c 128,-1,41
 159 1406 159 1406 85 1409 c 1,42,-1
 85 1450 l 1,43,44
 152 1444 152 1444 275 1444 c 0,45,46
 383 1444 383 1444 450 1450 c 1,47,-1
 900 262 l 1,48,-1
 1340 1444 l 1,49,-1
 1437 1444 l 2,50,51
 1601 1444 1601 1444 1697 1450 c 1,52,-1
 1697 1409 l 1,53,0
 1623 1406 1623 1406 1589.5 1393 c 128,-1,1
EndSplineSet
Substitution2: "'c2sc' Capitals to Small Capitals lookup 23 subtable" m.smcp
Substitution2: "'aalt' Access All Alternates lookup 0 subtable" m.smcp
Position2: "'cpsp' Capital Spacing lookup 0 subtable" dx=20 dy=0 dh=20 dv=0
EndChar
StartChar: N
Encoding: 78 78 66
Width: 1446
GlyphClass: 2
Flags: W
AnchorPoint: "Anchor-5" 752 0 basechar 0
AnchorPoint: "Anchor-4" 766 1450 basechar 0
AnchorPoint: "Anchor-3" 0 0 basechar 0
LayerCount: 2
Back
Fore
SplineSet
1265.5 1388.5 m 128,-1,1
 1231 1371 1231 1371 1218 1331 c 128,-1,2
 1205 1291 1205 1291 1205 1212 c 2,3,-1
 1205 -10 l 1,4,-1
 1158 -10 l 1,5,-1
 298 1319 l 1,6,-1
 298 238 l 2,7,8
 298 159 298 159 312 119 c 128,-1,9
 326 79 326 79 364.5 61.5 c 128,-1,10
 403 44 403 44 484 41 c 1,11,-1
 484 0 l 1,12,13
 411 6 411 6 275 6 c 0,14,15
 153 6 153 6 85 0 c 1,16,-1
 85 41 l 1,17,18
 156 44 156 44 190.5 61.5 c 128,-1,19
 225 79 225 79 238 119 c 128,-1,20
 251 159 251 159 251 238 c 2,21,-1
 251 1233 l 2,22,23
 251 1310 251 1310 238.5 1345 c 128,-1,24
 226 1380 226 1380 192.5 1393 c 128,-1,25
 159 1406 159 1406 85 1409 c 1,26,-1
 85 1450 l 1,27,28
 152 1444 152 1444 275 1444 c 0,29,30
 367 1444 367 1444 435 1450 c 1,31,-1
 1158 336 l 1,32,-1
 1158 1212 l 2,33,34
 1158 1291 1158 1291 1144.5 1331 c 128,-1,35
 1131 1371 1131 1371 1092 1388.5 c 128,-1,36
 1053 1406 1053 1406 972 1409 c 1,37,-1
 972 1450 l 1,38,39
 1045 1444 1045 1444 1181 1444 c 0,40,41
 1303 1444 1303 1444 1371 1450 c 1,42,-1
 1371 1409 l 1,43,0
 1300 1406 1300 1406 1265.5 1388.5 c 128,-1,1
EndSplineSet
Substitution2: "'c2sc' Capitals to Small Capitals lookup 23 subtable" n.smcp
Substitution2: "'aalt' Access All Alternates lookup 0 subtable" n.smcp
Position2: "'cpsp' Capital Spacing lookup 0 subtable" dx=20 dy=0 dh=20 dv=0
EndChar
StartChar: O
Encoding: 79 79 72
Width: 1518
GlyphClass: 2
Flags: W
AnchorPoint: "Anchor-5" 762 0 basechar 0
AnchorPoint: "Anchor-4" 756 1450 basechar 0
AnchorPoint: "Anchor-3" 0 0 basechar 0
LayerCount: 2
Back
Fore
SplineSet
1100.5 1391 m 128,-1,1
 1247 1303 1247 1303 1327.5 1135.5 c 128,-1,2
 1408 968 1408 968 1408 737 c 0,3,4
 1408 511 1408 511 1325 337 c 128,-1,5
 1242 163 1242 163 1094 67 c 128,-1,6
 946 -29 946 -29 757 -29 c 0,7,8
 562 -29 562 -29 415.5 59 c 128,-1,9
 269 147 269 147 188.5 314.5 c 128,-1,10
 108 482 108 482 108 713 c 0,11,12
 108 939 108 939 191 1113 c 128,-1,13
 274 1287 274 1287 422 1383 c 128,-1,14
 570 1479 570 1479 759 1479 c 0,15,0
 954 1479 954 1479 1100.5 1391 c 128,-1,1
520 1350.5 m 128,-1,17
 420 1259 420 1259 366 1095.5 c 128,-1,18
 312 932 312 932 312 721 c 0,19,20
 312 508 312 508 372 346 c 128,-1,21
 432 184 432 184 535.5 96 c 128,-1,22
 639 8 639 8 765 8 c 0,23,24
 896 8 896 8 995.5 99.5 c 128,-1,25
 1095 191 1095 191 1149 354.5 c 128,-1,26
 1203 518 1203 518 1203 729 c 0,27,28
 1203 942 1203 942 1143 1104 c 128,-1,29
 1083 1266 1083 1266 980 1354 c 128,-1,30
 877 1442 877 1442 751 1442 c 0,31,16
 620 1442 620 1442 520 1350.5 c 128,-1,17
EndSplineSet
Substitution2: "Single Substitution lookup 29 subtable" ordmasculine
Substitution2: "'c2sc' Capitals to Small Capitals lookup 23 subtable" o.smcp
AlternateSubs2: "'aalt' Access All Alternates lookup 1 subtable" ordmasculine o.smcp
Position2: "'cpsp' Capital Spacing lookup 0 subtable" dx=20 dy=0 dh=20 dv=0
EndChar
StartChar: P
Encoding: 80 80 83
Width: 1198
GlyphClass: 2
Flags: W
AnchorPoint: "Anchor-5" 348 0 basechar 0
AnchorPoint: "Anchor-4" 633 1450 basechar 0
AnchorPoint: "Anchor-3" 0 0 basechar 0
LayerCount: 2
Back
Fore
SplineSet
441 217 m 2,0,1
 441 140 441 140 457 105 c 128,-1,2
 473 70 473 70 515 57 c 128,-1,3
 557 44 557 44 648 41 c 1,4,-1
 648 0 l 1,5,6
 542 6 542 6 347 6 c 0,7,8
 171 6 171 6 85 0 c 1,9,-1
 85 41 l 1,10,11
 159 44 159 44 192.5 57 c 128,-1,12
 226 70 226 70 238.5 105 c 128,-1,13
 251 140 251 140 251 217 c 2,14,-1
 251 1233 l 2,15,16
 251 1310 251 1310 238.5 1345 c 128,-1,17
 226 1380 226 1380 192.5 1393 c 128,-1,18
 159 1406 159 1406 85 1409 c 1,19,-1
 85 1450 l 1,20,21
 170 1444 170 1444 335 1444 c 0,22,23
 371 1444 371 1444 557 1447 c 2,24,-1
 644 1448 l 2,25,26
 805 1448 805 1448 916 1397.5 c 128,-1,27
 1027 1347 1027 1347 1082.5 1256 c 128,-1,28
 1138 1165 1138 1165 1138 1044 c 0,29,30
 1138 932 1138 932 1088 828 c 128,-1,31
 1038 724 1038 724 917.5 655 c 128,-1,32
 797 586 797 586 599 586 c 2,33,-1
 441 586 l 1,34,-1
 441 217 l 2,0,1
497 1394.5 m 128,-1,36
 465 1380 465 1380 453 1343 c 128,-1,37
 441 1306 441 1306 441 1233 c 2,38,-1
 441 627 l 1,39,-1
 579 627 l 2,40,41
 779 627 779 627 856 734 c 128,-1,42
 933 841 933 841 933 1022 c 0,43,44
 933 1154 933 1154 899 1239 c 128,-1,45
 865 1324 865 1324 790.5 1366.5 c 128,-1,46
 716 1409 716 1409 593 1409 c 0,47,35
 529 1409 529 1409 497 1394.5 c 128,-1,36
EndSplineSet
Substitution2: "'c2sc' Capitals to Small Capitals lookup 23 subtable" p.smcp
Substitution2: "'aalt' Access All Alternates lookup 0 subtable" p.smcp
Position2: "'cpsp' Capital Spacing lookup 0 subtable" dx=20 dy=0 dh=20 dv=0
EndChar
StartChar: Q
Encoding: 81 81 85
Width: 1518
GlyphClass: 2
Flags: W
AnchorPoint: "Anchor-5" 762 0 basechar 0
AnchorPoint: "Anchor-4" 776 1450 basechar 0
AnchorPoint: "Anchor-3" 0 0 basechar 0
LayerCount: 2
Back
Fore
SplineSet
1433 -293 m 0,1,2
 1331 -385 1331 -385 1156 -385 c 0,3,4
 1089 -385 1089 -385 1023.5 -369.5 c 128,-1,5
 958 -354 958 -354 897.5 -331 c 128,-1,6
 837 -308 837 -308 745 -267 c 0,7,8
 580 -195 580 -195 497 -168 c 0,9,10
 474 -161 474 -161 469 -160 c 2,11,-1
 448 -154 l 1,12,13
 358 -184 358 -184 278 -184 c 0,14,15
 183 -184 183 -184 183 -143 c 0,16,17
 183 -100 183 -100 294 -100 c 0,18,19
 368 -100 368 -100 448 -117 c 1,20,21
 511 -100 511 -100 596 -61 c 0,22,23
 640 -40 640 -40 679 -25 c 1,24,25
 506 -8 506 -8 377.5 84.5 c 128,-1,26
 249 177 249 177 178.5 337.5 c 128,-1,27
 108 498 108 498 108 713 c 0,28,29
 108 939 108 939 191 1113 c 128,-1,30
 274 1287 274 1287 422 1383 c 128,-1,31
 570 1479 570 1479 759 1479 c 0,32,33
 954 1479 954 1479 1100.5 1391 c 128,-1,34
 1247 1303 1247 1303 1327.5 1135.5 c 128,-1,35
 1408 968 1408 968 1408 737 c 0,36,37
 1408 524 1408 524 1334 357 c 128,-1,38
 1260 190 1260 190 1127 90 c 128,-1,39
 994 -10 994 -10 822 -26 c 1,40,-1
 822 -27 l 1,41,42
 772 -32 772 -32 733.5 -45 c 128,-1,43
 695 -58 695 -58 642 -81 c 0,44,45
 570 -112 570 -112 519 -127 c 1,46,47
 744 -172 744 -172 903.5 -198.5 c 128,-1,48
 1063 -225 1063 -225 1168 -225 c 0,49,50
 1314 -225 1314 -225 1399 -182.5 c 128,-1,51
 1484 -140 1484 -140 1531 -47 c 1,52,-1
 1562 -59 l 1,53,0
 1516 -216 1516 -216 1433 -293 c 0,1,2
372 346 m 128,-1,55
 432 184 432 184 535.5 96 c 128,-1,56
 639 8 639 8 765 8 c 0,57,58
 896 8 896 8 995.5 99.5 c 128,-1,59
 1095 191 1095 191 1149 354.5 c 128,-1,60
 1203 518 1203 518 1203 729 c 0,61,62
 1203 942 1203 942 1143 1104 c 128,-1,63
 1083 1266 1083 1266 980 1354 c 128,-1,64
 877 1442 877 1442 751 1442 c 0,65,66
 620 1442 620 1442 520 1350.5 c 128,-1,67
 420 1259 420 1259 366 1095.5 c 128,-1,68
 312 932 312 932 312 721 c 0,69,54
 312 508 312 508 372 346 c 128,-1,55
EndSplineSet
Substitution2: "'c2sc' Capitals to Small Capitals lookup 23 subtable" q.smcp
Substitution2: "'aalt' Access All Alternates lookup 0 subtable" q.smcp
Position2: "'cpsp' Capital Spacing lookup 0 subtable" dx=20 dy=0 dh=20 dv=0
EndChar
StartChar: R
Encoding: 82 82 86
Width: 1327
GlyphClass: 2
Flags: W
AnchorPoint: "Anchor-5" 690 0 basechar 0
AnchorPoint: "Anchor-4" 606 1450 basechar 0
AnchorPoint: "Anchor-3" 0 0 basechar 0
LayerCount: 2
Back
Fore
SplineSet
1256 2 m 128,-1,1
 1209 -29 1209 -29 1132 -29 c 0,2,3
 1048 -29 1048 -29 994 20 c 128,-1,4
 940 69 940 69 912 193 c 2,5,-1
 867 397 l 2,6,7
 843 504 843 504 821.5 561.5 c 128,-1,8
 800 619 800 619 756.5 653.5 c 128,-1,9
 713 688 713 688 636 688 c 2,10,-1
 441 688 l 1,11,-1
 441 217 l 2,12,13
 441 140 441 140 453.5 105 c 128,-1,14
 466 70 466 70 499.5 57 c 128,-1,15
 533 44 533 44 607 41 c 1,16,-1
 607 0 l 1,17,18
 513 6 513 6 347 6 c 0,19,20
 171 6 171 6 85 0 c 1,21,-1
 85 41 l 1,22,23
 159 44 159 44 192.5 57 c 128,-1,24
 226 70 226 70 238.5 105 c 128,-1,25
 251 140 251 140 251 217 c 2,26,-1
 251 1233 l 2,27,28
 251 1310 251 1310 238.5 1345 c 128,-1,29
 226 1380 226 1380 192.5 1393 c 128,-1,30
 159 1406 159 1406 85 1409 c 1,31,-1
 85 1450 l 1,32,33
 171 1444 171 1444 335 1444 c 0,34,35
 371 1444 371 1444 557 1447 c 2,36,-1
 644 1448 l 2,37,38
 804 1448 804 1448 915 1401.5 c 128,-1,39
 1026 1355 1026 1355 1082 1274.5 c 128,-1,40
 1138 1194 1138 1194 1138 1092 c 0,41,42
 1138 1012 1138 1012 1100 930.5 c 128,-1,43
 1062 849 1062 849 973 784.5 c 128,-1,44
 884 720 884 720 740 698 c 1,45,-1
 765 694 l 2,46,47
 857 679 857 679 912 648.5 c 128,-1,48
 967 618 967 618 999.5 565 c 128,-1,49
 1032 512 1032 512 1052 424 c 2,50,-1
 1103 215 l 2,51,52
 1116 152 1116 152 1129.5 116.5 c 128,-1,53
 1143 81 1143 81 1161.5 64 c 128,-1,54
 1180 47 1180 47 1208 47 c 0,55,56
 1242 47 1242 47 1264 64.5 c 128,-1,57
 1286 82 1286 82 1320 125 c 1,58,-1
 1351 102 l 1,59,0
 1303 33 1303 33 1256 2 c 128,-1,1
497 1394.5 m 128,-1,61
 465 1380 465 1380 453 1343 c 128,-1,62
 441 1306 441 1306 441 1233 c 2,63,-1
 441 729 l 1,64,-1
 579 729 l 2,65,66
 717 729 717 729 795 773 c 128,-1,67
 873 817 873 817 903 891 c 128,-1,68
 933 965 933 965 933 1069 c 0,69,70
 933 1237 933 1237 853 1323 c 128,-1,71
 773 1409 773 1409 593 1409 c 0,72,60
 529 1409 529 1409 497 1394.5 c 128,-1,61
EndSplineSet
Substitution2: "'c2sc' Capitals to Small Capitals lookup 23 subtable" r.smcp
Substitution2: "'aalt' Access All Alternates lookup 0 subtable" r.smcp
Position2: "'cpsp' Capital Spacing lookup 0 subtable" dx=20 dy=0 dh=20 dv=0
EndChar
StartChar: S
Encoding: 83 83 90
Width: 1106
GlyphClass: 2
Flags: W
AnchorPoint: "Anchor-5" 586 0 basechar 0
AnchorPoint: "Anchor-4" 563 1450 basechar 0
AnchorPoint: "Anchor-3" 0 0 basechar 0
LayerCount: 2
Back
Fore
SplineSet
631.5 1462.5 m 128,-1,1
 677 1452 677 1452 707 1436.5 c 128,-1,2
 737 1421 737 1421 773 1397 c 0,3,4
 819 1368 819 1368 843 1368 c 0,5,6
 862 1368 862 1368 872 1389.5 c 128,-1,7
 882 1411 882 1411 888 1458 c 1,8,-1
 935 1458 l 1,9,10
 925 1338 925 1338 925 1040 c 1,11,-1
 878 1040 l 1,12,13
 870 1145 870 1145 832.5 1234 c 128,-1,14
 795 1323 795 1323 722.5 1378.5 c 128,-1,15
 650 1434 650 1434 542 1434 c 0,16,17
 470 1434 470 1434 413 1404 c 128,-1,18
 356 1374 356 1374 324 1320 c 128,-1,19
 292 1266 292 1266 292 1196 c 0,20,21
 292 1118 292 1118 327.5 1061 c 128,-1,22
 363 1004 363 1004 418.5 962 c 128,-1,23
 474 920 474 920 575 858 c 2,24,-1
 636 821 l 2,25,26
 765 740 765 740 840 680.5 c 128,-1,27
 915 621 915 621 960 542.5 c 128,-1,28
 1005 464 1005 464 1005 360 c 0,29,30
 1005 234 1005 234 947 146.5 c 128,-1,31
 889 59 889 59 790.5 15 c 128,-1,32
 692 -29 692 -29 570 -29 c 0,33,34
 472 -29 472 -29 409 -8.5 c 128,-1,35
 346 12 346 12 290 47 c 0,36,37
 244 76 244 76 220 76 c 0,38,39
 201 76 201 76 191 54.5 c 128,-1,40
 181 33 181 33 175 -14 c 1,41,-1
 128 -14 l 1,42,43
 136 98 136 98 136 477 c 1,44,-1
 183 477 l 1,45,46
 197 269 197 269 285 140.5 c 128,-1,47
 373 12 373 12 556 12 c 0,48,49
 626 12 626 12 686.5 41 c 128,-1,50
 747 70 747 70 784.5 131.5 c 128,-1,51
 822 193 822 193 822 285 c 0,52,53
 822 364 822 364 783.5 426.5 c 128,-1,54
 745 489 745 489 679 541 c 128,-1,55
 613 593 613 593 503 659 c 0,56,57
 381 732 381 732 307 790 c 128,-1,58
 233 848 233 848 185.5 928.5 c 128,-1,59
 138 1009 138 1009 138 1118 c 0,60,61
 138 1234 138 1234 190.5 1314 c 128,-1,62
 243 1394 243 1394 330.5 1433.5 c 128,-1,63
 418 1473 418 1473 523 1473 c 0,64,0
 586 1473 586 1473 631.5 1462.5 c 128,-1,1
EndSplineSet
Substitution2: "'c2sc' Capitals to Small Capitals lookup 23 subtable" s.smcp
Substitution2: "'aalt' Access All Alternates lookup 0 subtable" s.smcp
Position2: "'cpsp' Capital Spacing lookup 0 subtable" dx=20 dy=0 dh=20 dv=0
EndChar
StartChar: T
Encoding: 84 84 97
Width: 1272
GlyphClass: 2
Flags: W
AnchorPoint: "Anchor-5" 637 0 basechar 0
AnchorPoint: "Anchor-4" 637 1450 basechar 0
AnchorPoint: "Anchor-3" 0 0 basechar 0
LayerCount: 2
Back
Fore
SplineSet
1197 1188 m 0,1,2
 1197 1085 1197 1085 1203 1020 c 1,3,-1
 1156 1020 l 1,4,5
 1140 1179 1140 1179 1115.5 1255.5 c 128,-1,6
 1091 1332 1091 1332 1029.5 1367.5 c 128,-1,7
 968 1403 968 1403 841 1403 c 2,8,-1
 730 1403 l 1,9,-1
 730 238 l 2,10,11
 730 153 730 153 746 113.5 c 128,-1,12
 762 74 762 74 804 59 c 128,-1,13
 846 44 846 44 937 41 c 1,14,-1
 937 0 l 1,15,16
 829 6 829 6 636 6 c 0,17,18
 431 6 431 6 333 0 c 1,19,-1
 333 41 l 1,20,21
 424 44 424 44 466 59 c 128,-1,22
 508 74 508 74 524 113.5 c 128,-1,23
 540 153 540 153 540 238 c 2,24,-1
 540 1403 l 1,25,-1
 429 1403 l 2,26,27
 302 1403 302 1403 240.5 1367.5 c 128,-1,28
 179 1332 179 1332 154.5 1255.5 c 128,-1,29
 130 1179 130 1179 114 1020 c 1,30,-1
 67 1020 l 1,31,32
 73 1085 73 1085 73 1188 c 0,33,34
 73 1308 73 1308 58 1450 c 1,35,36
 228 1444 228 1444 636 1444 c 0,37,38
 1041 1444 1041 1444 1211 1450 c 1,39,0
 1197 1304 1197 1304 1197 1188 c 0,1,2
EndSplineSet
Substitution2: "'c2sc' Capitals to Small Capitals lookup 23 subtable" t.smcp
Substitution2: "'aalt' Access All Alternates lookup 0 subtable" t.smcp
Position2: "'cpsp' Capital Spacing lookup 0 subtable" dx=20 dy=0 dh=20 dv=0
EndChar
StartChar: U
Encoding: 85 85 102
Width: 1397
GlyphClass: 2
Flags: W
AnchorPoint: "Anchor-5" 737 0 basechar 0
AnchorPoint: "Anchor-4" 721 1450 basechar 0
AnchorPoint: "Anchor-3" 901 0 basechar 0
LayerCount: 2
Back
Fore
SplineSet
1234.5 1388.5 m 128,-1,1
 1200 1371 1200 1371 1187.5 1331 c 128,-1,2
 1175 1291 1175 1291 1175 1212 c 2,3,-1
 1175 596 l 2,4,5
 1175 449 1175 449 1155.5 343.5 c 128,-1,6
 1136 238 1136 238 1091 162 c 0,7,8
 1039 74 1039 74 939.5 22.5 c 128,-1,9
 840 -29 840 -29 716 -29 c 0,10,11
 491 -29 491 -29 372 82 c 0,12,13
 311 139 311 139 278.5 202.5 c 128,-1,14
 246 266 246 266 233 356 c 128,-1,15
 220 446 220 446 220 590 c 2,16,-1
 220 1233 l 2,17,18
 220 1310 220 1310 207.5 1345 c 128,-1,19
 195 1380 195 1380 161.5 1393 c 128,-1,20
 128 1406 128 1406 54 1409 c 1,21,-1
 54 1450 l 1,22,23
 141 1444 141 1444 316 1444 c 0,24,25
 481 1444 481 1444 577 1450 c 1,26,-1
 577 1409 l 1,27,28
 503 1406 503 1406 469.5 1393 c 128,-1,29
 436 1380 436 1380 423.5 1345 c 128,-1,30
 411 1310 411 1310 411 1233 c 2,31,-1
 411 555 l 2,32,33
 411 391 411 391 433 283 c 128,-1,34
 455 175 455 175 525.5 109 c 128,-1,35
 596 43 596 43 734 43 c 0,36,37
 951 43 951 43 1039 182 c 128,-1,38
 1127 321 1127 321 1127 573 c 2,39,-1
 1127 1212 l 2,40,41
 1127 1288 1127 1288 1109.5 1329 c 128,-1,42
 1092 1370 1092 1370 1052.5 1388 c 128,-1,43
 1013 1406 1013 1406 941 1409 c 1,44,-1
 941 1450 l 1,45,46
 1015 1444 1015 1444 1150 1444 c 0,47,48
 1273 1444 1273 1444 1340 1450 c 1,49,-1
 1340 1409 l 1,50,0
 1269 1406 1269 1406 1234.5 1388.5 c 128,-1,1
EndSplineSet
Substitution2: "'c2sc' Capitals to Small Capitals lookup 23 subtable" u.smcp
Substitution2: "'aalt' Access All Alternates lookup 0 subtable" u.smcp
Position2: "'cpsp' Capital Spacing lookup 0 subtable" dx=20 dy=0 dh=20 dv=0
EndChar
StartChar: V
Encoding: 86 86 113
Width: 1290
GlyphClass: 2
Flags: W
LayerCount: 2
Back
Fore
SplineSet
1305 1450 m 1,1,-1
 1305 1409 l 1,2,3
 1202 1386 1202 1386 1143 1231 c 2,4,-1
 662 -10 l 1,5,-1
 645 -10 l 1,6,-1
 629 -10 l 1,7,-1
 129 1278 l 2,8,9
 79 1405 79 1405 -12 1409 c 1,10,-1
 -12 1450 l 1,11,12
 71 1444 71 1444 207 1444 c 0,13,14
 383 1444 383 1444 469 1450 c 1,15,-1
 469 1409 l 1,16,17
 391 1406 391 1406 357.5 1390 c 128,-1,18
 324 1374 324 1374 324 1333 c 0,19,20
 324 1299 324 1299 348 1237 c 2,21,-1
 719 253 l 1,22,-1
 1053 1118 l 2,23,24
 1094 1224 1094 1224 1094 1285 c 0,25,26
 1094 1350 1094 1350 1050 1378.5 c 128,-1,27
 1006 1407 1006 1407 915 1409 c 1,28,-1
 915 1450 l 1,29,30
 1032 1444 1032 1444 1151 1444 c 0,31,0
 1243 1444 1243 1444 1305 1450 c 1,1,-1
EndSplineSet
Substitution2: "'c2sc' Capitals to Small Capitals lookup 23 subtable" v.smcp
Substitution2: "'aalt' Access All Alternates lookup 0 subtable" v.smcp
Position2: "'cpsp' Capital Spacing lookup 0 subtable" dx=20 dy=0 dh=20 dv=0
EndChar
StartChar: W
Encoding: 87 87 114
Width: 1853
GlyphClass: 2
Flags: W
AnchorPoint: "Anchor-5" 0 0 basechar 0
AnchorPoint: "Anchor-4" 950 1450 basechar 0
AnchorPoint: "Anchor-3" 0 0 basechar 0
LayerCount: 2
Back
Fore
SplineSet
1858 1450 m 1,1,-1
 1858 1409 l 1,2,3
 1744 1384 1744 1384 1696 1231 c 2,4,-1
 1309 -10 l 1,5,-1
 1292 -10 l 1,6,-1
 1276 -10 l 1,7,-1
 920 1045 l 1,8,-1
 594 -10 l 1,9,-1
 578 -10 l 1,10,-1
 561 -10 l 1,11,-1
 127 1278 l 2,12,13
 83 1404 83 1404 -14 1409 c 1,14,-1
 -14 1450 l 1,15,16
 68 1444 68 1444 205 1444 c 0,17,18
 352 1444 352 1444 426 1450 c 1,19,-1
 426 1409 l 1,20,21
 372 1405 372 1405 349 1389 c 128,-1,22
 326 1373 326 1373 326 1338 c 0,23,24
 326 1305 326 1305 348 1237 c 2,25,-1
 648 324 l 1,26,-1
 896 1117 l 1,27,-1
 842 1278 l 2,28,29
 800 1405 800 1405 721 1409 c 1,30,-1
 721 1450 l 1,31,32
 795 1444 795 1444 920 1444 c 0,33,34
 1095 1444 1095 1444 1182 1450 c 1,35,-1
 1182 1409 l 1,36,37
 1129 1407 1129 1407 1101 1401.5 c 128,-1,38
 1073 1396 1073 1396 1057.5 1381 c 128,-1,39
 1042 1366 1042 1366 1042 1336 c 0,40,41
 1042 1302 1042 1302 1063 1237 c 2,42,-1
 1357 326 l 1,43,-1
 1610 1118 l 2,44,45
 1643 1222 1643 1222 1643 1283 c 0,46,47
 1643 1351 1643 1351 1601.5 1379 c 128,-1,48
 1560 1407 1560 1407 1468 1409 c 1,49,-1
 1468 1450 l 1,50,51
 1585 1444 1585 1444 1704 1444 c 0,52,0
 1796 1444 1796 1444 1858 1450 c 1,1,-1
EndSplineSet
Substitution2: "'c2sc' Capitals to Small Capitals lookup 23 subtable" w.smcp
Substitution2: "'aalt' Access All Alternates lookup 0 subtable" w.smcp
Position2: "'cpsp' Capital Spacing lookup 0 subtable" dx=20 dy=0 dh=20 dv=0
EndChar
StartChar: X
Encoding: 88 88 119
Width: 1298
GlyphClass: 2
Flags: W
LayerCount: 2
Back
Fore
SplineSet
1191 83.5 m 128,-1,1
 1210 63 1210 63 1231 54 c 128,-1,2
 1252 45 1252 45 1283 43 c 1,3,-1
 1283 0 l 1,4,5
 1278 0 1278 0 1256 2 c 0,6,7
 1142 8 1142 8 1107 8 c 0,8,9
 1002 8 1002 8 855 1 c 2,10,-1
 818 0 l 1,11,-1
 818 43 l 1,12,13
 898 43 898 43 931 50 c 128,-1,14
 964 57 964 57 964 76 c 0,15,16
 964 91 964 91 949 113 c 2,17,-1
 599 649 l 1,18,-1
 378 319 l 2,19,20
 300 203 300 203 300 139 c 0,21,22
 300 87 300 87 346.5 65 c 128,-1,23
 393 43 393 43 482 41 c 1,24,-1
 482 0 l 1,25,26
 366 6 366 6 206 6 c 0,27,28
 93 6 93 6 32 0 c 1,29,-1
 32 41 l 1,30,31
 93 50 93 50 148.5 96 c 128,-1,32
 204 142 204 142 263 229 c 2,33,-1
 572 690 l 1,34,-1
 171 1305 l 2,35,36
 145 1346 145 1346 126 1366.5 c 128,-1,37
 107 1387 107 1387 86 1396 c 128,-1,38
 65 1405 65 1405 34 1407 c 1,39,-1
 34 1450 l 1,40,41
 39 1450 39 1450 61 1448 c 0,42,43
 175 1442 175 1442 210 1442 c 0,44,45
 347 1442 347 1442 499 1450 c 1,46,-1
 499 1407 l 1,47,48
 362 1407 362 1407 362 1362 c 0,49,50
 362 1346 362 1346 380 1317 c 2,51,-1
 699 829 l 1,52,-1
 900 1130 l 2,53,54
 989 1263 989 1263 989 1327 c 0,55,56
 989 1370 989 1370 949.5 1388.5 c 128,-1,57
 910 1407 910 1407 830 1409 c 1,58,-1
 830 1450 l 1,59,60
 947 1444 947 1444 1066 1444 c 0,61,62
 1178 1444 1178 1444 1240 1450 c 1,63,-1
 1240 1409 l 1,64,65
 1178 1400 1178 1400 1122.5 1353.5 c 128,-1,66
 1067 1307 1067 1307 1009 1221 c 2,67,-1
 722 793 l 1,68,-1
 1146 145 l 2,69,0
 1172 104 1172 104 1191 83.5 c 128,-1,1
EndSplineSet
Substitution2: "'c2sc' Capitals to Small Capitals lookup 23 subtable" x.smcp
Substitution2: "'aalt' Access All Alternates lookup 0 subtable" x.smcp
Position2: "'cpsp' Capital Spacing lookup 0 subtable" dx=20 dy=0 dh=20 dv=0
EndChar
StartChar: Y
Encoding: 89 89 120
Width: 1210
GlyphClass: 2
Flags: W
AnchorPoint: "Anchor-5" 0 0 basechar 0
AnchorPoint: "Anchor-4" 623 1450 basechar 0
AnchorPoint: "Anchor-3" 0 0 basechar 0
LayerCount: 2
Back
Fore
SplineSet
1204 1450 m 1,1,-1
 1204 1409 l 1,2,3
 1163 1400 1163 1400 1124 1357.5 c 128,-1,4
 1085 1315 1085 1315 1040 1227 c 2,5,-1
 719 590 l 1,6,-1
 719 217 l 2,7,8
 719 140 719 140 731.5 105 c 128,-1,9
 744 70 744 70 777.5 57 c 128,-1,10
 811 44 811 44 885 41 c 1,11,-1
 885 0 l 1,12,13
 789 6 789 6 625 6 c 0,14,15
 449 6 449 6 362 0 c 1,16,-1
 362 41 l 1,17,18
 436 44 436 44 469.5 57 c 128,-1,19
 503 70 503 70 515.5 105 c 128,-1,20
 528 140 528 140 528 217 c 2,21,-1
 528 526 l 1,22,-1
 113 1292 l 2,23,24
 75 1361 75 1361 47.5 1384 c 128,-1,25
 20 1407 20 1407 -6 1407 c 1,26,-1
 -6 1450 l 1,27,28
 74 1444 74 1444 174 1444 c 0,29,30
 373 1444 373 1444 461 1450 c 1,31,-1
 461 1407 l 1,32,33
 317 1407 317 1407 317 1328 c 0,34,35
 317 1298 317 1298 338 1257 c 2,36,-1
 679 604 l 1,37,-1
 940 1124 l 2,38,39
 996 1237 996 1237 996 1300 c 0,40,41
 996 1358 996 1358 951 1382.5 c 128,-1,42
 906 1407 906 1407 815 1409 c 1,43,-1
 815 1450 l 1,44,45
 932 1444 932 1444 1051 1444 c 0,46,0
 1143 1444 1143 1444 1204 1450 c 1,1,-1
EndSplineSet
Substitution2: "'c2sc' Capitals to Small Capitals lookup 23 subtable" y.smcp
Substitution2: "'aalt' Access All Alternates lookup 0 subtable" y.smcp
Position2: "'cpsp' Capital Spacing lookup 0 subtable" dx=20 dy=0 dh=20 dv=0
EndChar
StartChar: Z
Encoding: 90 90 125
Width: 1217
GlyphClass: 2
Flags: W
AnchorPoint: "Anchor-5" 612 0 basechar 0
AnchorPoint: "Anchor-4" 604 1450 basechar 0
AnchorPoint: "Anchor-3" 0 0 basechar 0
LayerCount: 2
Back
Fore
SplineSet
278 47 m 1,0,-1
 710 47 l 2,1,2
 838 47 838 47 904.5 83 c 128,-1,3
 971 119 971 119 1000.5 198 c 128,-1,4
 1030 277 1030 277 1046 430 c 1,5,-1
 1093 430 l 1,6,7
 1086 355 1086 355 1086 262 c 0,8,9
 1086 156 1086 156 1101 0 c 1,10,11
 949 6 949 6 591 6 c 0,12,13
 241 6 241 6 85 0 c 1,14,-1
 85 41 l 1,15,-1
 939 1403 l 1,16,-1
 509 1403 l 2,17,18
 381 1403 381 1403 314.5 1367 c 128,-1,19
 248 1331 248 1331 218.5 1252 c 128,-1,20
 189 1173 189 1173 173 1020 c 1,21,-1
 126 1020 l 1,22,23
 132 1085 132 1085 132 1188 c 0,24,25
 132 1304 132 1304 118 1450 c 1,26,27
 269 1444 269 1444 628 1444 c 0,28,29
 976 1444 976 1444 1125 1450 c 1,30,-1
 1125 1409 l 1,31,-1
 278 47 l 1,0,-1
EndSplineSet
Substitution2: "'c2sc' Capitals to Small Capitals lookup 23 subtable" z.smcp
Substitution2: "'aalt' Access All Alternates lookup 0 subtable" z.smcp
Position2: "'cpsp' Capital Spacing lookup 0 subtable" dx=20 dy=0 dh=20 dv=0
EndChar
StartChar: bracketleft
Encoding: 91 91 640
Width: 606
Flags: W
LayerCount: 2
Back
Fore
SplineSet
372 1542 m 1,0,-1
 372 -332 l 1,1,-1
 538 -332 l 1,2,-1
 538 -371 l 1,3,-1
 187 -371 l 1,4,-1
 187 1581 l 1,5,-1
 538 1581 l 1,6,-1
 538 1542 l 1,7,-1
 372 1542 l 1,0,-1
EndSplineSet
Substitution2: "'case' Case-Sensitive Forms lookup 25 subtable" bracketleft.case
Substitution2: "'smcp' Lowercase to Small Capitals lookup 24 subtable" bracketleft.smcp
Substitution2: "'c2sc' Capitals to Small Capitals lookup 23 subtable" bracketleft.smcp
AlternateSubs2: "'aalt' Access All Alternates lookup 1 subtable" bracketleft.smcp bracketleft.case
EndChar
StartChar: asciicircum
Encoding: 94 94 761
Width: 1098
Flags: W
LayerCount: 2
Back
Fore
SplineSet
717 857 m 128,-1,1
 819 751 819 751 949 688 c 1,2,-1
 933 659 l 1,3,4
 809 704 809 704 693 771 c 128,-1,5
 577 838 577 838 507 905 c 1,6,7
 449 838 449 838 355.5 771 c 128,-1,8
 262 704 262 704 163 659 c 1,9,-1
 146 688 l 1,10,11
 277 751 277 751 379 857 c 128,-1,12
 481 963 481 963 529 1081 c 1,13,-1
 566 1081 l 1,14,0
 615 963 615 963 717 857 c 128,-1,1
EndSplineSet
Substitution2: "'case' Case-Sensitive Forms lookup 25 subtable" asciicircum.case
Substitution2: "'smcp' Lowercase to Small Capitals lookup 24 subtable" asciicircum.smcp
Substitution2: "'c2sc' Capitals to Small Capitals lookup 23 subtable" asciicircum.smcp
AlternateSubs2: "'aalt' Access All Alternates lookup 1 subtable" asciicircum.smcp asciicircum.case
EndChar
StartChar: grave
Encoding: 96 96 799
Width: 457
Flags: W
LayerCount: 2
Back
Fore
SplineSet
113 1680 m 0,1,2
 157 1680 157 1680 192 1634 c 0,3,4
 219 1599 219 1599 274 1494 c 0,5,6
 349 1348 349 1348 415 1245 c 1,7,-1
 392 1227 l 1,8,9
 303 1321 303 1321 186 1423 c 0,10,11
 101 1498 101 1498 69 1538 c 0,12,13
 41 1575 41 1575 41 1608 c 0,14,15
 41 1642 41 1642 69 1665 c 0,16,0
 88 1680 88 1680 113 1680 c 0,1,2
EndSplineSet
Substitution2: "'case' Case-Sensitive Forms lookup 25 subtable" grave.case
Substitution2: "'smcp' Lowercase to Small Capitals lookup 24 subtable" grave.smcp
Substitution2: "'c2sc' Capitals to Small Capitals lookup 23 subtable" grave.smcp
AlternateSubs2: "'aalt' Access All Alternates lookup 1 subtable" grave.smcp grave.case
EndChar
StartChar: a
Encoding: 97 97 134
Width: 1020
GlyphClass: 2
Flags: W
AnchorPoint: "Anchor-5" 0 0 basechar 0
AnchorPoint: "Anchor-4" 504 1053 basechar 0
AnchorPoint: "Anchor-3" 932 0 basechar 0
LayerCount: 2
Back
Fore
SplineSet
657 1062.5 m 128,-1,1
 721 1042 721 1042 757 1006 c 0,2,3
 804 958 804 958 821.5 894.5 c 128,-1,4
 839 831 839 831 839 719 c 2,5,-1
 839 150 l 2,6,7
 839 99 839 99 853.5 76 c 128,-1,8
 868 53 868 53 902 53 c 0,9,10
 927 53 927 53 948 64 c 128,-1,11
 969 75 969 75 994 96 c 1,12,-1
 1017 61 l 1,13,14
 981 34 981 34 957 19 c 128,-1,15
 933 4 933 4 902 -5 c 128,-1,16
 871 -14 871 -14 830 -14 c 0,17,18
 731 -14 731 -14 692.5 35.5 c 128,-1,19
 654 85 654 85 654 168 c 1,20,21
 594 69 594 69 510 27.5 c 128,-1,22
 426 -14 426 -14 339 -14 c 0,23,24
 268 -14 268 -14 209 10.5 c 128,-1,25
 150 35 150 35 114.5 86.5 c 128,-1,26
 79 138 79 138 79 215 c 0,27,28
 79 293 79 293 117 348 c 128,-1,29
 155 403 155 403 224 444.5 c 128,-1,30
 293 486 293 486 409 535 c 2,31,-1
 449 552 l 2,32,33
 523 581 523 581 563.5 601 c 128,-1,34
 604 621 604 621 629 647.5 c 128,-1,35
 654 674 654 674 654 709 c 2,36,-1
 654 836 l 2,37,38
 654 955 654 955 604.5 998.5 c 128,-1,39
 555 1042 555 1042 464 1042 c 0,40,41
 319 1042 319 1042 261 969 c 1,42,43
 302 959 302 959 329.5 925.5 c 128,-1,44
 357 892 357 892 357 844 c 0,45,46
 357 792 357 792 324.5 762.5 c 128,-1,47
 292 733 292 733 237 733 c 0,48,49
 185 733 185 733 155.5 768 c 128,-1,50
 126 803 126 803 126 860 c 0,51,52
 126 940 126 940 222 1006 c 0,53,54
 272 1039 272 1039 345.5 1061 c 128,-1,55
 419 1083 419 1083 509 1083 c 0,56,0
 593 1083 593 1083 657 1062.5 c 128,-1,1
604 582 m 128,-1,58
 569 562 569 562 458 508 c 0,59,60
 399 480 399 480 358 450.5 c 128,-1,61
 317 421 317 421 288 371 c 128,-1,62
 259 321 259 321 259 248 c 0,63,64
 259 159 259 159 304 113.5 c 128,-1,65
 349 68 349 68 423 68 c 0,66,67
 559 68 559 68 654 223 c 1,68,-1
 654 625 l 1,69,57
 639 602 639 602 604 582 c 128,-1,58
EndSplineSet
Substitution2: "Single Substitution lookup 29 subtable" ordfeminine
Substitution2: "'smcp' Lowercase to Small Capitals lookup 24 subtable" a.smcp
AlternateSubs2: "'aalt' Access All Alternates lookup 1 subtable" ordfeminine a.smcp
EndChar
StartChar: b
Encoding: 98 98 145
Width: 1153
GlyphClass: 2
Flags: W
LayerCount: 2
Back
Fore
SplineSet
869.5 1020.5 m 128,-1,1
 957 958 957 958 1007 832.5 c 128,-1,2
 1057 707 1057 707 1057 526 c 0,3,4
 1057 349 1057 349 995.5 223.5 c 128,-1,5
 934 98 934 98 830 34.5 c 128,-1,6
 726 -29 726 -29 600 -29 c 0,7,8
 525 -29 525 -29 454 1.5 c 128,-1,9
 383 32 383 32 330 91 c 1,10,-1
 184 -33 l 1,11,-1
 150 -18 l 1,12,13
 164 32 164 32 164 100 c 2,14,-1
 164 1358 l 2,15,16
 164 1453 164 1453 129.5 1495.5 c 128,-1,17
 95 1538 95 1538 8 1538 c 1,18,-1
 8 1581 l 1,19,20
 72 1575 72 1575 135 1575 c 0,21,22
 267 1575 267 1575 348 1604 c 1,23,-1
 348 864 l 1,24,25
 393 968 393 968 477.5 1025.5 c 128,-1,26
 562 1083 562 1083 668 1083 c 0,27,0
 782 1083 782 1083 869.5 1020.5 c 128,-1,1
790 142.5 m 128,-1,29
 858 267 858 267 858 526 c 0,30,31
 858 776 858 776 796.5 899 c 128,-1,32
 735 1022 735 1022 608 1022 c 0,33,34
 552 1022 552 1022 500.5 992.5 c 128,-1,35
 449 963 449 963 408.5 905.5 c 128,-1,36
 368 848 368 848 348 767 c 1,37,-1
 348 120 l 1,38,39
 397 70 397 70 458 44 c 128,-1,40
 519 18 519 18 584 18 c 0,41,28
 722 18 722 18 790 142.5 c 128,-1,29
EndSplineSet
Substitution2: "'smcp' Lowercase to Small Capitals lookup 24 subtable" b.smcp
Substitution2: "'aalt' Access All Alternates lookup 0 subtable" b.smcp
EndChar
StartChar: c
Encoding: 99 99 146
Width: 995
GlyphClass: 2
Flags: W
AnchorPoint: "Anchor-5" 549 0 basechar 0
AnchorPoint: "Anchor-4" 539 1053 basechar 0
AnchorPoint: "Anchor-3" 0 0 basechar 0
LayerCount: 2
Back
Fore
SplineSet
808 1018 m 0,1,2
 904 953 904 953 904 860 c 0,3,4
 904 806 904 806 873.5 775.5 c 128,-1,5
 843 745 843 745 796 745 c 0,6,7
 748 745 748 745 715.5 772.5 c 128,-1,8
 683 800 683 800 683 848 c 0,9,10
 683 892 683 892 707.5 921.5 c 128,-1,11
 732 951 732 951 769 961 c 1,12,13
 749 998 749 998 696 1022.5 c 128,-1,14
 643 1047 643 1047 585 1047 c 0,15,16
 510 1047 510 1047 444 999 c 128,-1,17
 378 951 378 951 335 839 c 128,-1,18
 292 727 292 727 292 545 c 0,19,20
 292 290 292 290 374 174.5 c 128,-1,21
 456 59 456 59 587 59 c 0,22,23
 674 59 674 59 753.5 110 c 128,-1,24
 833 161 833 161 884 270 c 1,25,-1
 923 256 l 1,26,27
 900 183 900 183 852 118.5 c 128,-1,28
 804 54 804 54 726.5 12.5 c 128,-1,29
 649 -29 649 -29 546 -29 c 0,30,31
 418 -29 418 -29 315 37 c 128,-1,32
 212 103 212 103 152.5 226 c 128,-1,33
 93 349 93 349 93 514 c 0,34,35
 93 680 93 680 153.5 809.5 c 128,-1,36
 214 939 214 939 323 1011 c 128,-1,37
 432 1083 432 1083 570 1083 c 256,38,0
 708 1083 708 1083 808 1018 c 0,1,2
EndSplineSet
Substitution2: "'smcp' Lowercase to Small Capitals lookup 24 subtable" c.smcp
Substitution2: "'aalt' Access All Alternates lookup 0 subtable" c.smcp
EndChar
StartChar: d
Encoding: 100 100 152
Width: 1190
GlyphClass: 2
Flags: W
LayerCount: 2
Back
Fore
SplineSet
1025.5 85.5 m 128,-1,1
 1060 43 1060 43 1147 43 c 1,2,-1
 1147 0 l 1,3,4
 1082 6 1082 6 1020 6 c 0,5,6
 888 6 888 6 807 -23 c 1,7,-1
 807 159 l 1,8,9
 769 67 769 67 695.5 19 c 128,-1,10
 622 -29 622 -29 516 -29 c 0,11,12
 386 -29 386 -29 292 33 c 128,-1,13
 198 95 198 95 147.5 219 c 128,-1,14
 97 343 97 343 98 526 c 0,15,16
 97 705 97 705 160 831 c 128,-1,17
 223 957 223 957 328.5 1020 c 128,-1,18
 434 1083 434 1083 561 1083 c 0,19,20
 639 1083 639 1083 704 1053.5 c 128,-1,21
 769 1024 769 1024 807 962 c 1,22,-1
 807 1360 l 2,23,24
 807 1455 807 1455 772.5 1497.5 c 128,-1,25
 738 1540 738 1540 651 1540 c 1,26,-1
 651 1583 l 1,27,28
 716 1577 716 1577 778 1577 c 0,29,30
 910 1577 910 1577 991 1606 c 1,31,-1
 991 223 l 2,32,0
 991 128 991 128 1025.5 85.5 c 128,-1,1
674.5 60 m 128,-1,34
 722 87 722 87 756.5 140.5 c 128,-1,35
 791 194 791 194 807 269 c 1,36,-1
 807 878 l 1,37,38
 750 1036 750 1036 578 1036 c 0,39,40
 495 1036 495 1036 431.5 979.5 c 128,-1,41
 368 923 368 923 332 808.5 c 128,-1,42
 296 694 296 694 297 526 c 0,43,44
 296 280 296 280 366.5 156.5 c 128,-1,45
 437 33 437 33 575 33 c 0,46,33
 627 33 627 33 674.5 60 c 128,-1,34
EndSplineSet
Substitution2: "'smcp' Lowercase to Small Capitals lookup 24 subtable" d.smcp
Substitution2: "'aalt' Access All Alternates lookup 0 subtable" d.smcp
EndChar
StartChar: e
Encoding: 101 101 156
Width: 1036
GlyphClass: 2
Flags: W
AnchorPoint: "Anchor-5" 571 0 basechar 0
AnchorPoint: "Anchor-4" 555 1053 basechar 0
AnchorPoint: "Anchor-3" 729 0 basechar 0
LayerCount: 2
Back
Fore
SplineSet
870.5 111.5 m 128,-1,1
 818 49 818 49 739.5 10 c 128,-1,2
 661 -29 661 -29 564 -29 c 0,3,4
 418 -29 418 -29 311.5 37.5 c 128,-1,5
 205 104 205 104 149 224.5 c 128,-1,6
 93 345 93 345 93 502 c 0,7,8
 93 680 93 680 150 811 c 128,-1,9
 207 942 207 942 311.5 1012.5 c 128,-1,10
 416 1083 416 1083 556 1083 c 0,11,12
 740 1083 740 1083 839.5 971.5 c 128,-1,13
 939 860 939 860 939 633 c 1,14,-1
 299 633 l 1,15,16
 292 578 292 578 292 502 c 0,17,18
 292 367 292 367 336.5 266 c 128,-1,19
 381 165 381 165 453 111 c 128,-1,20
 525 57 525 57 605 57 c 0,21,22
 811 57 811 57 906 262 c 1,23,-1
 947 246 l 1,24,0
 923 174 923 174 870.5 111.5 c 128,-1,1
432 1003.5 m 128,-1,26
 379 963 379 963 343 879.5 c 128,-1,27
 307 796 307 796 296 672 c 1,28,-1
 742 672 l 1,29,30
 746 774 746 774 725 859 c 128,-1,31
 704 944 704 944 659 994 c 128,-1,32
 614 1044 614 1044 548 1044 c 0,33,25
 485 1044 485 1044 432 1003.5 c 128,-1,26
EndSplineSet
Substitution2: "'smcp' Lowercase to Small Capitals lookup 24 subtable" e.smcp
Substitution2: "'aalt' Access All Alternates lookup 0 subtable" e.smcp
EndChar
StartChar: f
Encoding: 102 102 166
Width: 680
GlyphClass: 2
Flags: W
LayerCount: 2
Back
Fore
SplineSet
742 1546 m 0,1,2
 806 1494 806 1494 806 1419 c 0,3,4
 806 1372 806 1372 775.5 1341.5 c 128,-1,5
 745 1311 745 1311 697 1311 c 0,6,7
 650 1311 650 1311 617.5 1341 c 128,-1,8
 585 1371 585 1371 585 1421 c 0,9,10
 585 1463 585 1463 608.5 1490.5 c 128,-1,11
 632 1518 632 1518 671 1526 c 1,12,13
 665 1545 665 1545 638 1558 c 128,-1,14
 611 1571 611 1571 570 1571 c 0,15,16
 479 1571 479 1571 437 1495 c 0,17,18
 414 1454 414 1454 407 1372.5 c 128,-1,19
 400 1291 400 1291 400 1106 c 2,20,-1
 400 1053 l 1,21,-1
 620 1053 l 1,22,-1
 620 1012 l 1,23,-1
 400 1012 l 1,24,-1
 400 211 l 2,25,26
 400 116 400 116 454 79.5 c 128,-1,27
 508 43 508 43 617 43 c 1,28,-1
 617 0 l 1,29,30
 606 0 606 0 568 2 c 0,31,32
 364 8 364 8 302 8 c 0,33,34
 255 8 255 8 96 2 c 0,35,36
 68 0 68 0 60 0 c 1,37,-1
 60 43 l 1,38,39
 118 43 118 43 151.5 56 c 128,-1,40
 185 69 185 69 200.5 101 c 128,-1,41
 216 133 216 133 216 190 c 2,42,-1
 216 1012 l 1,43,-1
 52 1012 l 1,44,-1
 52 1053 l 1,45,-1
 216 1053 l 1,46,47
 216 1175 216 1175 226 1256.5 c 128,-1,48
 236 1338 236 1338 258.5 1395 c 128,-1,49
 281 1452 281 1452 321 1499 c 0,50,51
 361 1547 361 1547 425 1574.5 c 128,-1,52
 489 1602 489 1602 564 1602 c 0,53,0
 669 1602 669 1602 742 1546 c 0,1,2
EndSplineSet
Substitution2: "'smcp' Lowercase to Small Capitals lookup 24 subtable" f.smcp
Substitution2: "'aalt' Access All Alternates lookup 0 subtable" f.smcp
EndChar
StartChar: g
Encoding: 103 103 167
Width: 1061
GlyphClass: 2
Flags: W
AnchorPoint: "Anchor-5" 0 0 basechar 0
AnchorPoint: "Anchor-4" 516 1053 basechar 0
AnchorPoint: "Anchor-3" 0 0 basechar 0
LayerCount: 2
Back
Fore
SplineSet
956.5 180 m 128,-1,1
 1023 135 1023 135 1023 35 c 0,2,3
 1023 -63 1023 -63 959.5 -160 c 128,-1,4
 896 -257 896 -257 766.5 -321 c 128,-1,5
 637 -385 637 -385 450 -385 c 0,6,7
 343 -385 343 -385 248.5 -363.5 c 128,-1,8
 154 -342 154 -342 96 -299.5 c 128,-1,9
 38 -257 38 -257 38 -197 c 0,10,11
 38 -127 38 -127 111.5 -62 c 128,-1,12
 185 3 185 3 295 53 c 1,13,-1
 288 53 l 2,14,15
 210 53 210 53 146.5 86 c 128,-1,16
 83 119 83 119 83 209 c 0,17,18
 83 279 83 279 141.5 342 c 128,-1,19
 200 405 200 405 339 468 c 1,20,21
 249 503 249 503 199 576 c 128,-1,22
 149 649 149 649 149 760 c 0,23,24
 149 922 149 922 252.5 1002.5 c 128,-1,25
 356 1083 356 1083 527 1083 c 0,26,27
 606 1083 606 1083 672 1065 c 1,28,29
 693 1179 693 1179 744 1247 c 0,30,31
 799 1315 799 1315 884 1315 c 0,32,33
 935 1315 935 1315 963.5 1285 c 128,-1,34
 992 1255 992 1255 992 1208 c 0,35,36
 992 1166 992 1166 964 1138 c 128,-1,37
 936 1110 936 1110 894 1110 c 0,38,39
 842 1110 842 1110 819 1141.5 c 128,-1,40
 796 1173 796 1173 785 1239 c 1,41,42
 755 1212 755 1212 730 1139 c 0,43,44
 714 1085 714 1085 709 1054 c 1,45,46
 802 1020 802 1020 854 946 c 128,-1,47
 906 872 906 872 906 760 c 0,48,49
 906 651 906 651 857 578.5 c 128,-1,50
 808 506 808 506 723 471 c 128,-1,51
 638 436 638 436 527 436 c 0,52,53
 442 436 442 436 376 455 c 1,54,55
 293 411 293 411 248.5 373.5 c 128,-1,56
 204 336 204 336 204 293 c 0,57,58
 204 259 204 259 227 242 c 128,-1,59
 250 225 250 225 302 225 c 2,60,-1
 783 225 l 2,61,0
 890 225 890 225 956.5 180 c 128,-1,1
388.5 981.5 m 128,-1,63
 341 916 341 916 341 760 c 256,64,65
 341 604 341 604 388.5 538.5 c 128,-1,66
 436 473 436 473 527 473 c 0,67,68
 619 473 619 473 666.5 538 c 128,-1,69
 714 603 714 603 714 760 c 256,70,71
 714 917 714 917 666.5 982 c 128,-1,72
 619 1047 619 1047 527 1047 c 0,73,62
 436 1047 436 1047 388.5 981.5 c 128,-1,63
683 -317.5 m 128,-1,75
 770 -285 770 -285 826 -219.5 c 128,-1,76
 882 -154 882 -154 882 -61 c 0,77,78
 882 -21 882 -21 868.5 3.5 c 128,-1,79
 855 28 855 28 821 40.5 c 128,-1,80
 787 53 787 53 726 53 c 2,81,-1
 345 53 l 1,82,83
 280 20 280 20 243 -37.5 c 128,-1,84
 206 -95 206 -95 206 -154 c 0,85,86
 206 -220 206 -220 250 -264 c 128,-1,87
 294 -308 294 -308 363 -329 c 128,-1,88
 432 -350 432 -350 505 -350 c 0,89,74
 596 -350 596 -350 683 -317.5 c 128,-1,75
EndSplineSet
Substitution2: "'smcp' Lowercase to Small Capitals lookup 24 subtable" g.smcp
Substitution2: "'aalt' Access All Alternates lookup 0 subtable" g.smcp
EndChar
StartChar: h
Encoding: 104 104 173
Width: 1204
GlyphClass: 2
Flags: W
AnchorPoint: "Anchor-5" 0 0 basechar 0
AnchorPoint: "Anchor-4" 303 1581 basechar 0
AnchorPoint: "Anchor-3" 0 0 basechar 0
LayerCount: 2
Back
Fore
SplineSet
522.5 1025.5 m 128,-1,1
 614 1083 614 1083 728 1083 c 0,2,3
 871 1083 871 1083 945 1006 c 0,4,5
 984 964 984 964 1000.5 902.5 c 128,-1,6
 1017 841 1017 841 1017 737 c 2,7,-1
 1017 190 l 2,8,9
 1017 133 1017 133 1032.5 101 c 128,-1,10
 1048 69 1048 69 1081.5 56 c 128,-1,11
 1115 43 1115 43 1173 43 c 1,12,-1
 1173 0 l 1,13,14
 1166 0 1166 0 1140 2 c 0,15,16
 975 8 975 8 927 8 c 0,17,18
 839 8 839 8 725 1 c 2,19,-1
 697 0 l 1,20,-1
 697 43 l 1,21,22
 748 43 748 43 777 56 c 128,-1,23
 806 69 806 69 819.5 101 c 128,-1,24
 833 133 833 133 833 190 c 2,25,-1
 833 782 l 2,26,27
 833 856 833 856 821 906 c 128,-1,28
 809 956 809 956 772.5 987 c 128,-1,29
 736 1018 736 1018 667 1018 c 0,30,31
 584 1018 584 1018 518.5 970.5 c 128,-1,32
 453 923 453 923 416.5 838.5 c 128,-1,33
 380 754 380 754 380 647 c 2,34,-1
 380 190 l 2,35,36
 380 133 380 133 393.5 101 c 128,-1,37
 407 69 407 69 435.5 56 c 128,-1,38
 464 43 464 43 515 43 c 1,39,-1
 515 0 l 1,40,-1
 487 1 l 2,41,42
 370 8 370 8 286 8 c 0,43,44
 198 8 198 8 70 1 c 2,45,-1
 40 0 l 1,46,-1
 40 43 l 1,47,48
 98 43 98 43 131.5 56 c 128,-1,49
 165 69 165 69 180.5 101 c 128,-1,50
 196 133 196 133 196 190 c 2,51,-1
 196 1358 l 2,52,53
 196 1453 196 1453 161.5 1495.5 c 128,-1,54
 127 1538 127 1538 40 1538 c 1,55,-1
 40 1581 l 1,56,57
 105 1575 105 1575 167 1575 c 0,58,59
 299 1575 299 1575 380 1604 c 1,60,-1
 380 838 l 1,61,0
 431 968 431 968 522.5 1025.5 c 128,-1,1
EndSplineSet
Substitution2: "'smcp' Lowercase to Small Capitals lookup 24 subtable" h.smcp
Substitution2: "'aalt' Access All Alternates lookup 0 subtable" h.smcp
EndChar
StartChar: j
Encoding: 106 106 188
Width: 547
GlyphClass: 2
Flags: W
AnchorPoint: "Anchor-5" 0 0 basechar 0
AnchorPoint: "Anchor-4" 274 1053 basechar 0
AnchorPoint: "Anchor-3" 0 0 basechar 0
LayerCount: 2
Back
Fore
SplineSet
337.5 1538.5 m 128,-1,1
 368 1521 368 1521 385.5 1490.5 c 128,-1,2
 403 1460 403 1460 403 1425 c 256,3,4
 403 1390 403 1390 385.5 1360 c 128,-1,5
 368 1330 368 1330 337.5 1312 c 128,-1,6
 307 1294 307 1294 272 1294 c 256,7,8
 237 1294 237 1294 207 1312 c 128,-1,9
 177 1330 177 1330 159 1360 c 128,-1,10
 141 1390 141 1390 141 1425 c 256,11,12
 141 1460 141 1460 159 1490.5 c 128,-1,13
 177 1521 177 1521 207 1538.5 c 128,-1,14
 237 1556 237 1556 272 1556 c 256,15,0
 307 1556 307 1556 337.5 1538.5 c 128,-1,1
362.5 -55.5 m 128,-1,17
 340 -180 340 -180 276 -260 c 0,18,19
 229 -321 229 -321 162.5 -353 c 128,-1,20
 96 -385 96 -385 29 -385 c 0,21,22
 -43 -385 -43 -385 -86 -354 c 0,23,24
 -131 -320 -131 -320 -131 -260 c 0,25,26
 -131 -213 -131 -213 -101.5 -183.5 c 128,-1,27
 -72 -154 -72 -154 -25 -154 c 0,28,29
 24 -154 24 -154 53 -179 c 128,-1,30
 82 -204 82 -204 82 -254 c 0,31,32
 82 -324 82 -324 4 -352 c 1,33,34
 16 -354 16 -354 39 -354 c 0,35,36
 110 -354 110 -354 154 -307 c 1,37,38
 201 -248 201 -248 201 -133 c 2,39,-1
 201 831 l 2,40,41
 201 926 201 926 166.5 969 c 128,-1,42
 132 1012 132 1012 45 1012 c 1,43,-1
 45 1055 l 1,44,45
 109 1049 109 1049 172 1049 c 0,46,47
 302 1049 302 1049 385 1077 c 1,48,-1
 385 236 l 2,49,16
 385 69 385 69 362.5 -55.5 c 128,-1,17
EndSplineSet
Substitution2: "'smcp' Lowercase to Small Capitals lookup 24 subtable" j.smcp
Substitution2: "'aalt' Access All Alternates lookup 0 subtable" j.smcp
EndChar
StartChar: k
Encoding: 107 107 191
Width: 1126
GlyphClass: 2
Flags: W
AnchorPoint: "Anchor-5" 575 0 basechar 0
AnchorPoint: "Anchor-4" 301 1602 basechar 0
AnchorPoint: "Anchor-3" 0 0 basechar 0
LayerCount: 2
Back
Fore
SplineSet
1037 73.5 m 128,-1,1
 1068 49 1068 49 1111 43 c 1,2,-1
 1111 0 l 1,3,4
 987 8 987 8 945 8 c 0,5,6
 863 8 863 8 746 1 c 2,7,-1
 718 0 l 1,8,-1
 718 43 l 1,9,10
 747 43 747 43 764 54 c 128,-1,11
 781 65 781 65 781 82 c 0,12,13
 781 96 781 96 769 113 c 2,14,-1
 534 457 l 2,15,16
 497 509 497 509 466 527 c 128,-1,17
 435 545 435 545 380 547 c 1,18,-1
 380 190 l 2,19,20
 380 133 380 133 393.5 101 c 128,-1,21
 407 69 407 69 435.5 56 c 128,-1,22
 464 43 464 43 515 43 c 1,23,-1
 515 0 l 1,24,-1
 487 1 l 2,25,26
 370 8 370 8 288 8 c 0,27,28
 197 8 197 8 71 1 c 2,29,-1
 40 0 l 1,30,-1
 40 43 l 1,31,32
 98 43 98 43 131.5 56 c 128,-1,33
 165 69 165 69 180.5 101 c 128,-1,34
 196 133 196 133 196 190 c 2,35,-1
 196 1360 l 2,36,37
 196 1455 196 1455 161.5 1497.5 c 128,-1,38
 127 1540 127 1540 40 1540 c 1,39,-1
 40 1583 l 1,40,41
 105 1577 105 1577 167 1577 c 0,42,43
 299 1577 299 1577 380 1606 c 1,44,-1
 380 589 l 1,45,46
 440 597 440 597 480 617 c 128,-1,47
 520 637 520 637 556 674 c 2,48,-1
 708 831 l 2,49,50
 773 899 773 899 773 944 c 0,51,52
 773 980 773 980 732 997 c 128,-1,53
 691 1014 691 1014 622 1014 c 1,54,-1
 622 1055 l 1,55,56
 764 1047 764 1047 853 1047 c 0,57,58
 949 1047 949 1047 1031 1055 c 1,59,-1
 1031 1014 l 1,60,61
 931 1005 931 1005 847 918 c 2,62,-1
 598 656 l 1,63,-1
 968 150 l 2,64,0
 1006 98 1006 98 1037 73.5 c 128,-1,1
EndSplineSet
Substitution2: "'smcp' Lowercase to Small Capitals lookup 24 subtable" k.smcp
Substitution2: "'aalt' Access All Alternates lookup 0 subtable" k.smcp
EndChar
StartChar: l
Encoding: 108 108 194
Width: 586
GlyphClass: 2
Flags: W
AnchorPoint: "Anchor-5" 293 0 basechar 0
AnchorPoint: "Anchor-4" 293 1581 basechar 0
AnchorPoint: "Anchor-3" 0 0 basechar 0
LayerCount: 2
Back
Fore
SplineSet
399.5 101 m 128,-1,1
 415 69 415 69 448.5 56 c 128,-1,2
 482 43 482 43 540 43 c 1,3,-1
 540 0 l 1,4,-1
 509 1 l 2,5,6
 383 8 383 8 292 8 c 256,7,8
 201 8 201 8 75 1 c 2,9,-1
 44 0 l 1,10,-1
 44 43 l 1,11,12
 102 43 102 43 135.5 56 c 128,-1,13
 169 69 169 69 184.5 101 c 128,-1,14
 200 133 200 133 200 190 c 2,15,-1
 200 1360 l 2,16,17
 200 1455 200 1455 165.5 1497.5 c 128,-1,18
 131 1540 131 1540 44 1540 c 1,19,-1
 44 1583 l 1,20,21
 108 1577 108 1577 171 1577 c 0,22,23
 303 1577 303 1577 384 1606 c 1,24,-1
 384 190 l 2,25,0
 384 133 384 133 399.5 101 c 128,-1,1
EndSplineSet
Substitution2: "'smcp' Lowercase to Small Capitals lookup 24 subtable" l.smcp
Substitution2: "'aalt' Access All Alternates lookup 0 subtable" l.smcp
EndChar
StartChar: m
Encoding: 109 109 200
Width: 1819
GlyphClass: 2
Flags: W
LayerCount: 2
Back
Fore
SplineSet
1646.5 101 m 128,-1,1
 1662 69 1662 69 1695.5 56 c 128,-1,2
 1729 43 1729 43 1787 43 c 1,3,-1
 1787 0 l 1,4,-1
 1757 1 l 2,5,6
 1629 8 1629 8 1541 8 c 0,7,8
 1457 8 1457 8 1340 1 c 2,9,-1
 1312 0 l 1,10,-1
 1312 43 l 1,11,12
 1363 43 1363 43 1391.5 56 c 128,-1,13
 1420 69 1420 69 1433.5 101 c 128,-1,14
 1447 133 1447 133 1447 190 c 2,15,-1
 1447 782 l 2,16,17
 1447 860 1447 860 1438 908.5 c 128,-1,18
 1429 957 1429 957 1395 987.5 c 128,-1,19
 1361 1018 1361 1018 1291 1018 c 0,20,21
 1213 1018 1213 1018 1150 969 c 128,-1,22
 1087 920 1087 920 1051 835 c 128,-1,23
 1015 750 1015 750 1015 647 c 2,24,-1
 1015 190 l 2,25,26
 1015 133 1015 133 1030.5 101 c 128,-1,27
 1046 69 1046 69 1079 56 c 128,-1,28
 1112 43 1112 43 1170 43 c 1,29,-1
 1170 0 l 1,30,-1
 1139 1 l 2,31,32
 1013 8 1013 8 925 8 c 256,33,34
 837 8 837 8 723 1 c 2,35,-1
 695 0 l 1,36,-1
 695 43 l 1,37,38
 746 43 746 43 775 56 c 128,-1,39
 804 69 804 69 817 101 c 128,-1,40
 830 133 830 133 830 190 c 2,41,-1
 830 782 l 2,42,43
 830 860 830 860 821 908.5 c 128,-1,44
 812 957 812 957 778 987.5 c 128,-1,45
 744 1018 744 1018 675 1018 c 0,46,47
 596 1018 596 1018 533 968.5 c 128,-1,48
 470 919 470 919 434 833.5 c 128,-1,49
 398 748 398 748 398 645 c 2,50,-1
 398 190 l 2,51,52
 398 133 398 133 411.5 101 c 128,-1,53
 425 69 425 69 454 56 c 128,-1,54
 483 43 483 43 534 43 c 1,55,-1
 534 0 l 1,56,-1
 506 1 l 2,57,58
 392 8 392 8 304 8 c 256,59,60
 216 8 216 8 88 1 c 2,61,-1
 58 0 l 1,62,-1
 58 43 l 1,63,64
 116 43 116 43 149.5 56 c 128,-1,65
 183 69 183 69 198.5 101 c 128,-1,66
 214 133 214 133 214 190 c 2,67,-1
 214 831 l 2,68,69
 214 926 214 926 179.5 969 c 128,-1,70
 145 1012 145 1012 58 1012 c 1,71,-1
 58 1055 l 1,72,73
 122 1049 122 1049 185 1049 c 0,74,75
 315 1049 315 1049 398 1077 c 1,76,-1
 398 836 l 1,77,78
 448 962 448 962 538 1022.5 c 128,-1,79
 628 1083 628 1083 734 1083 c 0,80,81
 873 1083 873 1083 947 1006 c 0,82,83
 998 951 998 951 1010 841 c 1,84,85
 1061 971 1061 971 1151.5 1027 c 128,-1,86
 1242 1083 1242 1083 1351 1083 c 0,87,88
 1490 1083 1490 1083 1564 1006 c 0,89,90
 1601 965 1601 965 1616 901.5 c 128,-1,91
 1631 838 1631 838 1631 737 c 2,92,-1
 1631 190 l 2,93,0
 1631 133 1631 133 1646.5 101 c 128,-1,1
EndSplineSet
Substitution2: "'smcp' Lowercase to Small Capitals lookup 24 subtable" m.smcp
Substitution2: "'aalt' Access All Alternates lookup 0 subtable" m.smcp
EndChar
StartChar: n
Encoding: 110 110 201
Width: 1223
GlyphClass: 2
Flags: W
AnchorPoint: "Anchor-5" 647 0 basechar 0
AnchorPoint: "Anchor-4" 627 1053 basechar 0
AnchorPoint: "Anchor-3" 0 0 basechar 0
LayerCount: 2
Back
Fore
SplineSet
964 1006 m 0,1,2
 1002 964 1002 964 1018.5 902.5 c 128,-1,3
 1035 841 1035 841 1035 737 c 2,4,-1
 1035 190 l 2,5,6
 1035 133 1035 133 1050.5 101 c 128,-1,7
 1066 69 1066 69 1099.5 56 c 128,-1,8
 1133 43 1133 43 1191 43 c 1,9,-1
 1191 0 l 1,10,-1
 1161 1 l 2,11,12
 1033 8 1033 8 945 8 c 0,13,14
 861 8 861 8 744 1 c 2,15,-1
 716 0 l 1,16,-1
 716 43 l 1,17,18
 767 43 767 43 795.5 56 c 128,-1,19
 824 69 824 69 837.5 101 c 128,-1,20
 851 133 851 133 851 190 c 2,21,-1
 851 782 l 2,22,23
 851 856 851 856 839.5 906 c 128,-1,24
 828 956 828 956 791.5 987 c 128,-1,25
 755 1018 755 1018 685 1018 c 0,26,27
 601 1018 601 1018 535.5 969 c 128,-1,28
 470 920 470 920 434 834.5 c 128,-1,29
 398 749 398 749 398 645 c 2,30,-1
 398 190 l 2,31,32
 398 133 398 133 411.5 101 c 128,-1,33
 425 69 425 69 454 56 c 128,-1,34
 483 43 483 43 534 43 c 1,35,-1
 534 0 l 1,36,-1
 506 1 l 2,37,38
 392 8 392 8 304 8 c 256,39,40
 216 8 216 8 88 1 c 2,41,-1
 58 0 l 1,42,-1
 58 43 l 1,43,44
 116 43 116 43 149.5 56 c 128,-1,45
 183 69 183 69 198.5 101 c 128,-1,46
 214 133 214 133 214 190 c 2,47,-1
 214 831 l 2,48,49
 214 926 214 926 179.5 969 c 128,-1,50
 145 1012 145 1012 58 1012 c 1,51,-1
 58 1055 l 1,52,53
 122 1049 122 1049 185 1049 c 0,54,55
 315 1049 315 1049 398 1077 c 1,56,-1
 398 836 l 1,57,58
 449 966 449 966 540.5 1024.5 c 128,-1,59
 632 1083 632 1083 747 1083 c 0,60,0
 890 1083 890 1083 964 1006 c 0,1,2
EndSplineSet
Substitution2: "'smcp' Lowercase to Small Capitals lookup 24 subtable" n.smcp
Substitution2: "'aalt' Access All Alternates lookup 0 subtable" n.smcp
EndChar
StartChar: o
Encoding: 111 111 208
Width: 1122
GlyphClass: 2
Flags: W
AnchorPoint: "Anchor-5" 561 0 basechar 0
AnchorPoint: "Anchor-4" 567 1053 basechar 0
AnchorPoint: "Anchor-3" 0 0 basechar 0
LayerCount: 2
Back
Fore
SplineSet
799.5 1024 m 128,-1,1
 904 965 904 965 964.5 840.5 c 128,-1,2
 1025 716 1025 716 1025 526 c 256,3,4
 1025 336 1025 336 964.5 212 c 128,-1,5
 904 88 904 88 799.5 29.5 c 128,-1,6
 695 -29 695 -29 560 -29 c 256,7,8
 425 -29 425 -29 320.5 29.5 c 128,-1,9
 216 88 216 88 155.5 212 c 128,-1,10
 95 336 95 336 95 526 c 256,11,12
 95 716 95 716 155.5 840.5 c 128,-1,13
 216 965 216 965 320.5 1024 c 128,-1,14
 425 1083 425 1083 560 1083 c 256,15,0
 695 1083 695 1083 799.5 1024 c 128,-1,1
365.5 916 m 128,-1,17
 294 790 294 790 294 526 c 0,18,19
 294 263 294 263 365.5 137.5 c 128,-1,20
 437 12 437 12 560 12 c 256,21,22
 683 12 683 12 754.5 137.5 c 128,-1,23
 826 263 826 263 826 526 c 0,24,25
 826 790 826 790 754.5 916 c 128,-1,26
 683 1042 683 1042 560 1042 c 256,27,16
 437 1042 437 1042 365.5 916 c 128,-1,17
EndSplineSet
Substitution2: "Single Substitution lookup 29 subtable" ordmasculine
Substitution2: "'smcp' Lowercase to Small Capitals lookup 24 subtable" o.smcp
AlternateSubs2: "'aalt' Access All Alternates lookup 1 subtable" ordmasculine o.smcp
EndChar
StartChar: p
Encoding: 112 112 219
Width: 1190
GlyphClass: 2
Flags: W
LayerCount: 2
Back
Fore
SplineSet
907.5 1024 m 128,-1,1
 994 965 994 965 1043.5 850 c 128,-1,2
 1093 735 1093 735 1093 575 c 0,3,4
 1093 418 1093 418 1043 280.5 c 128,-1,5
 993 143 993 143 887.5 57 c 128,-1,6
 782 -29 782 -29 624 -29 c 0,7,8
 546 -29 546 -29 483 1.5 c 128,-1,9
 420 32 420 32 384 82 c 1,10,-1
 384 -180 l 2,11,12
 384 -263 384 -263 433 -295.5 c 128,-1,13
 482 -328 482 -328 581 -328 c 1,14,-1
 581 -371 l 1,15,-1
 524 -369 l 2,16,17
 375 -362 375 -362 286 -362 c 0,18,19
 216 -362 216 -362 104 -369 c 0,20,21
 74 -371 74 -371 65 -371 c 1,22,-1
 65 -328 l 1,23,24
 140 -328 140 -328 170 -300.5 c 128,-1,25
 200 -273 200 -273 200 -201 c 2,26,-1
 200 831 l 2,27,28
 200 926 200 926 165.5 969 c 128,-1,29
 131 1012 131 1012 44 1012 c 1,30,-1
 44 1055 l 1,31,32
 108 1049 108 1049 171 1049 c 0,33,34
 301 1049 301 1049 384 1077 c 1,35,-1
 384 861 l 1,36,37
 430 967 430 967 516.5 1025 c 128,-1,38
 603 1083 603 1083 712 1083 c 256,39,0
 821 1083 821 1083 907.5 1024 c 128,-1,1
894 547 m 0,41,42
 894 1022 894 1022 656 1022 c 0,43,44
 563 1022 563 1022 489.5 955.5 c 128,-1,45
 416 889 416 889 384 763 c 1,46,-1
 384 150 l 1,47,48
 414 89 414 89 469 53.5 c 128,-1,49
 524 18 524 18 601 18 c 0,50,40
 894 18 894 18 894 547 c 0,41,42
EndSplineSet
Substitution2: "'smcp' Lowercase to Small Capitals lookup 24 subtable" p.smcp
Substitution2: "'aalt' Access All Alternates lookup 0 subtable" p.smcp
EndChar
StartChar: q
Encoding: 113 113 221
Width: 1153
GlyphClass: 2
Flags: W
LayerCount: 2
Back
Fore
SplineSet
1018 -300.5 m 128,-1,1
 1048 -328 1048 -328 1123 -328 c 1,2,-1
 1123 -371 l 1,3,4
 1114 -371 1114 -371 1084 -369 c 0,5,6
 972 -362 972 -362 902 -362 c 0,7,8
 813 -362 813 -362 664 -369 c 2,9,-1
 607 -371 l 1,10,-1
 607 -328 l 1,11,12
 706 -328 706 -328 755 -295.5 c 128,-1,13
 804 -263 804 -263 804 -180 c 2,14,-1
 804 173 l 1,15,16
 763 76 763 76 687.5 23.5 c 128,-1,17
 612 -29 612 -29 517 -29 c 0,18,19
 397 -29 397 -29 301.5 33 c 128,-1,20
 206 95 206 95 150.5 220 c 128,-1,21
 95 345 95 345 95 526 c 256,22,23
 95 707 95 707 152.5 832.5 c 128,-1,24
 210 958 210 958 309 1020.5 c 128,-1,25
 408 1083 408 1083 534 1083 c 0,26,27
 638 1083 638 1083 707.5 1047.5 c 128,-1,28
 777 1012 777 1012 822 934 c 1,29,-1
 847 960 l 2,30,31
 907 1025 907 1025 968 1087 c 1,32,-1
 1003 1073 l 1,33,34
 988 1023 988 1023 988 954 c 2,35,-1
 988 -201 l 2,36,0
 988 -273 988 -273 1018 -300.5 c 128,-1,1
714.5 94.5 m 128,-1,38
 777 156 777 156 804 270 c 1,39,-1
 804 899 l 1,40,41
 725 1036 725 1036 550 1036 c 0,42,43
 426 1036 426 1036 360 908.5 c 128,-1,44
 294 781 294 781 294 526 c 0,45,46
 294 281 294 281 366.5 157 c 128,-1,47
 439 33 439 33 577 33 c 0,48,37
 652 33 652 33 714.5 94.5 c 128,-1,38
EndSplineSet
Substitution2: "'smcp' Lowercase to Small Capitals lookup 24 subtable" q.smcp
Substitution2: "'aalt' Access All Alternates lookup 0 subtable" q.smcp
EndChar
StartChar: r
Encoding: 114 114 222
Width: 911
GlyphClass: 2
Flags: W
AnchorPoint: "Anchor-5" 346 0 basechar 0
AnchorPoint: "Anchor-4" 483 1053 basechar 0
AnchorPoint: "Anchor-3" 0 0 basechar 0
LayerCount: 2
Back
Fore
SplineSet
791.5 1061.5 m 128,-1,1
 834 1040 834 1040 858 1003 c 128,-1,2
 882 966 882 966 882 922 c 0,3,4
 882 868 882 868 850 830.5 c 128,-1,5
 818 793 818 793 765 793 c 0,6,7
 720 793 720 793 688 821.5 c 128,-1,8
 656 850 656 850 656 899 c 0,9,10
 656 966 656 966 726 1010 c 1,11,12
 712 1030 712 1030 683 1030 c 0,13,14
 602 1030 602 1030 537 968 c 128,-1,15
 472 906 472 906 435 815 c 128,-1,16
 398 724 398 724 398 645 c 2,17,-1
 398 211 l 2,18,19
 398 116 398 116 452 79.5 c 128,-1,20
 506 43 506 43 615 43 c 1,21,-1
 615 0 l 1,22,23
 604 0 604 0 566 2 c 0,24,25
 362 8 362 8 300 8 c 0,26,27
 251 8 251 8 92 2 c 0,28,29
 66 0 66 0 58 0 c 1,30,-1
 58 43 l 1,31,32
 116 43 116 43 149.5 56 c 128,-1,33
 183 69 183 69 198.5 101 c 128,-1,34
 214 133 214 133 214 190 c 2,35,-1
 214 831 l 2,36,37
 214 926 214 926 179.5 969 c 128,-1,38
 145 1012 145 1012 58 1012 c 1,39,-1
 58 1055 l 1,40,41
 122 1049 122 1049 185 1049 c 0,42,43
 315 1049 315 1049 398 1077 c 1,44,-1
 398 821 l 1,45,46
 421 885 421 885 464.5 945 c 128,-1,47
 508 1005 508 1005 568 1044 c 128,-1,48
 628 1083 628 1083 695 1083 c 0,49,0
 749 1083 749 1083 791.5 1061.5 c 128,-1,1
EndSplineSet
Substitution2: "'smcp' Lowercase to Small Capitals lookup 24 subtable" r.smcp
Substitution2: "'aalt' Access All Alternates lookup 0 subtable" r.smcp
EndChar
StartChar: s
Encoding: 115 115 226
Width: 913
GlyphClass: 2
Flags: W
AnchorPoint: "Anchor-5" 467 0 basechar 0
AnchorPoint: "Anchor-4" 467 1053 basechar 0
AnchorPoint: "Anchor-3" 0 0 basechar 0
LayerCount: 2
Back
Fore
SplineSet
552.5 1060 m 128,-1,1
 610 1037 610 1037 646 1008 c 0,2,3
 668 991 668 991 682 991 c 0,4,5
 718 991 718 991 728 1081 c 1,6,-1
 775 1081 l 1,7,8
 767 981 767 981 767 733 c 1,9,-1
 720 733 l 1,10,11
 698 868 698 868 633 956 c 128,-1,12
 568 1044 568 1044 441 1044 c 0,13,14
 367 1044 367 1044 320 1002.5 c 128,-1,15
 273 961 273 961 273 887 c 0,16,17
 273 837 273 837 299 798 c 128,-1,18
 325 759 325 759 365 729 c 128,-1,19
 405 699 405 699 478 653 c 2,20,-1
 536 616 l 2,21,22
 630 555 630 555 687.5 507.5 c 128,-1,23
 745 460 745 460 780.5 398.5 c 128,-1,24
 816 337 816 337 816 258 c 0,25,26
 816 167 816 167 768.5 102.5 c 128,-1,27
 721 38 721 38 641 4.5 c 128,-1,28
 561 -29 561 -29 466 -29 c 0,29,30
 375 -29 375 -29 304 0 c 0,31,32
 264 20 264 20 220 55 c 0,33,34
 212 63 212 63 201 63 c 0,35,36
 171 63 171 63 159 -14 c 1,37,-1
 112 -14 l 1,38,39
 120 103 120 103 120 395 c 1,40,-1
 167 395 l 1,41,42
 182 268 182 268 210 186 c 128,-1,43
 238 104 238 104 296 58 c 128,-1,44
 354 12 354 12 452 12 c 0,45,46
 497 12 497 12 538.5 31.5 c 128,-1,47
 580 51 580 51 607 94.5 c 128,-1,48
 634 138 634 138 634 207 c 0,49,50
 634 263 634 263 605.5 307.5 c 128,-1,51
 577 352 577 352 531 387.5 c 128,-1,52
 485 423 485 423 402 475 c 0,53,54
 301 539 301 539 247.5 580 c 128,-1,55
 194 621 194 621 157 680 c 128,-1,56
 120 739 120 739 120 819 c 0,57,58
 120 906 120 906 161 965.5 c 128,-1,59
 202 1025 202 1025 270.5 1054 c 128,-1,60
 339 1083 339 1083 423 1083 c 0,61,0
 495 1083 495 1083 552.5 1060 c 128,-1,1
EndSplineSet
Substitution2: "'smcp' Lowercase to Small Capitals lookup 24 subtable" s.smcp
Substitution2: "'aalt' Access All Alternates lookup 0 subtable" s.smcp
EndChar
StartChar: t
Encoding: 116 116 233
Width: 725
GlyphClass: 2
Flags: W
AnchorPoint: "Anchor-5" 479 0 basechar 0
AnchorPoint: "Anchor-4" 315 1053 basechar 0
AnchorPoint: "Anchor-3" 0 0 basechar 0
LayerCount: 2
Back
Fore
SplineSet
692 1053 m 1,0,-1
 692 1012 l 1,1,-1
 389 1012 l 1,2,-1
 389 219 l 2,3,4
 389 126 389 126 422 85.5 c 128,-1,5
 455 45 455 45 520 45 c 0,6,7
 584 45 584 45 629 96 c 128,-1,8
 674 147 674 147 705 264 c 1,9,-1
 745 254 l 1,10,11
 695 -29 695 -29 479 -29 c 0,12,13
 410 -29 410 -29 365 -12.5 c 128,-1,14
 320 4 320 4 285 39 c 0,15,16
 241 84 241 84 223 149.5 c 128,-1,17
 205 215 205 215 205 326 c 2,18,-1
 205 1012 l 1,19,-1
 8 1012 l 1,20,-1
 8 1053 l 1,21,-1
 205 1053 l 1,22,-1
 205 1366 l 1,23,24
 320 1369 320 1369 389 1395 c 1,25,-1
 389 1053 l 1,26,-1
 692 1053 l 1,0,-1
EndSplineSet
Substitution2: "'smcp' Lowercase to Small Capitals lookup 24 subtable" t.smcp
Substitution2: "'aalt' Access All Alternates lookup 0 subtable" t.smcp
EndChar
StartChar: u
Encoding: 117 117 238
Width: 1190
GlyphClass: 2
Flags: W
AnchorPoint: "Anchor-5" 616 0 basechar 0
AnchorPoint: "Anchor-4" 573 1053 basechar 0
AnchorPoint: "Anchor-3" 1120 0 basechar 0
LayerCount: 2
Back
Fore
SplineSet
1022.5 83.5 m 128,-1,1
 1057 41 1057 41 1144 41 c 1,2,-1
 1144 -2 l 1,3,4
 1080 4 1080 4 1017 4 c 0,5,6
 885 4 885 4 804 -25 c 1,7,-1
 804 217 l 1,8,9
 754 91 754 91 664.5 31 c 128,-1,10
 575 -29 575 -29 468 -29 c 0,11,12
 330 -29 330 -29 255 49 c 0,13,14
 218 89 218 89 202.5 153 c 128,-1,15
 187 217 187 217 187 317 c 2,16,-1
 187 831 l 2,17,18
 187 926 187 926 153 969 c 128,-1,19
 119 1012 119 1012 32 1012 c 1,20,-1
 32 1055 l 1,21,22
 96 1049 96 1049 159 1049 c 0,23,24
 288 1049 288 1049 372 1077 c 1,25,-1
 372 272 l 2,26,27
 372 194 372 194 381 146 c 128,-1,28
 390 98 390 98 424 67.5 c 128,-1,29
 458 37 458 37 527 37 c 0,30,31
 606 37 606 37 669 86 c 128,-1,32
 732 135 732 135 768 220 c 128,-1,33
 804 305 804 305 804 408 c 2,34,-1
 804 831 l 2,35,36
 804 926 804 926 769.5 969 c 128,-1,37
 735 1012 735 1012 648 1012 c 1,38,-1
 648 1055 l 1,39,40
 712 1049 712 1049 775 1049 c 0,41,42
 905 1049 905 1049 988 1077 c 1,43,-1
 988 221 l 2,44,0
 988 126 988 126 1022.5 83.5 c 128,-1,1
EndSplineSet
Substitution2: "'smcp' Lowercase to Small Capitals lookup 24 subtable" u.smcp
Substitution2: "'aalt' Access All Alternates lookup 0 subtable" u.smcp
EndChar
StartChar: v
Encoding: 118 118 249
Width: 1001
GlyphClass: 2
Flags: W
LayerCount: 2
Back
Fore
SplineSet
995 1055 m 1,1,-1
 995 1014 l 1,2,3
 954 1009 954 1009 922 977 c 128,-1,4
 890 945 890 945 862 870 c 2,5,-1
 526 -10 l 1,6,-1
 492 -10 l 1,7,-1
 115 897 l 2,8,9
 85 968 85 968 55.5 990 c 128,-1,10
 26 1012 26 1012 -4 1012 c 1,11,-1
 -4 1055 l 1,12,13
 102 1047 102 1047 176 1047 c 0,14,15
 333 1047 333 1047 442 1055 c 1,16,-1
 442 1012 l 1,17,18
 391 1012 391 1012 362.5 1008.5 c 128,-1,19
 334 1005 334 1005 315.5 990 c 128,-1,20
 297 975 297 975 297 942 c 0,21,22
 297 908 297 908 319 852 c 2,23,-1
 571 229 l 1,24,-1
 797 821 l 2,25,26
 819 877 819 877 819 916 c 0,27,28
 819 963 819 963 783 986 c 128,-1,29
 747 1009 747 1009 668 1014 c 1,30,-1
 668 1055 l 1,31,32
 774 1049 774 1049 840 1049 c 0,33,0
 930 1049 930 1049 995 1055 c 1,1,-1
EndSplineSet
Substitution2: "'smcp' Lowercase to Small Capitals lookup 24 subtable" v.smcp
Substitution2: "'aalt' Access All Alternates lookup 0 subtable" v.smcp
EndChar
StartChar: w
Encoding: 119 119 250
Width: 1577
GlyphClass: 2
Flags: W
AnchorPoint: "Anchor-5" 0 0 basechar 0
AnchorPoint: "Anchor-4" 842 1053 basechar 0
AnchorPoint: "Anchor-3" 0 0 basechar 0
LayerCount: 2
Back
Fore
SplineSet
1571 1055 m 1,1,-1
 1571 1014 l 1,2,3
 1528 1009 1528 1009 1495 977 c 128,-1,4
 1462 945 1462 945 1438 870 c 2,5,-1
 1141 -10 l 1,6,-1
 1106 -10 l 1,7,-1
 781 814 l 1,8,-1
 489 -10 l 1,9,-1
 455 -10 l 1,10,-1
 119 897 l 2,11,12
 91 969 91 969 61 990.5 c 128,-1,13
 31 1012 31 1012 0 1012 c 1,14,-1
 0 1055 l 1,15,16
 86 1042 86 1042 180 1042 c 0,17,18
 271 1042 271 1042 446 1055 c 1,19,-1
 446 1012 l 1,20,21
 395 1012 395 1012 367 1008.5 c 128,-1,22
 339 1005 339 1005 321 989 c 128,-1,23
 303 973 303 973 303 937 c 0,24,25
 303 899 303 899 324 840 c 2,26,-1
 529 251 l 1,27,-1
 823 1063 l 1,28,-1
 870 1063 l 1,29,-1
 1184 234 l 1,30,-1
 1376 821 l 2,31,32
 1395 881 1395 881 1395 914 c 0,33,34
 1395 963 1395 963 1359.5 986 c 128,-1,35
 1324 1009 1324 1009 1243 1014 c 1,36,-1
 1243 1055 l 1,37,38
 1351 1049 1351 1049 1415 1049 c 0,39,0
 1506 1049 1506 1049 1571 1055 c 1,1,-1
EndSplineSet
Substitution2: "'smcp' Lowercase to Small Capitals lookup 24 subtable" w.smcp
Substitution2: "'aalt' Access All Alternates lookup 0 subtable" w.smcp
EndChar
StartChar: x
Encoding: 120 120 255
Width: 1063
GlyphClass: 2
Flags: W
AnchorPoint: "Anchor-5" 549 0 basechar 0
AnchorPoint: "Anchor-4" 561 1053 basechar 0
AnchorPoint: "Anchor-3" 0 0 basechar 0
LayerCount: 2
Back
Fore
SplineSet
970 71.5 m 128,-1,1
 996 50 996 50 1035 43 c 1,2,-1
 1035 0 l 1,3,4
 931 8 931 8 890 8 c 0,5,6
 820 8 820 8 648 0 c 1,7,-1
 648 43 l 1,8,9
 681 43 681 43 705 56 c 128,-1,10
 729 69 729 69 729 89 c 0,11,12
 729 99 729 99 720 113 c 2,13,-1
 487 453 l 1,14,-1
 337 258 l 2,15,16
 280 185 280 185 280 135 c 0,17,18
 280 51 280 51 431 41 c 1,19,-1
 431 0 l 1,20,21
 323 6 323 6 198 6 c 0,22,23
 107 6 107 6 42 0 c 1,24,-1
 42 41 l 1,25,26
 82 46 82 46 124 78 c 128,-1,27
 166 110 166 110 222 184 c 2,28,-1
 458 495 l 1,29,-1
 173 909 l 2,30,31
 145 950 145 950 126 970.5 c 128,-1,32
 107 991 107 991 89.5 1000 c 128,-1,33
 72 1009 72 1009 46 1012 c 1,34,-1
 46 1055 l 1,35,36
 154 1047 154 1047 192 1047 c 0,37,38
 261 1047 261 1047 433 1055 c 1,39,-1
 433 1012 l 1,40,41
 400 1012 400 1012 376.5 999.5 c 128,-1,42
 353 987 353 987 353 966 c 0,43,44
 353 954 353 954 361 942 c 2,45,-1
 580 623 l 1,46,-1
 722 821 l 2,47,48
 784 908 784 908 784 950 c 0,49,50
 784 979 784 979 756 994.5 c 128,-1,51
 728 1010 728 1010 667 1014 c 1,52,-1
 667 1055 l 1,53,54
 773 1049 773 1049 839 1049 c 0,55,56
 929 1049 929 1049 994 1055 c 1,57,-1
 994 1014 l 1,58,59
 911 1004 911 1004 814 870 c 2,60,-1
 607 584 l 1,61,-1
 908 145 l 2,62,0
 944 93 944 93 970 71.5 c 128,-1,1
EndSplineSet
Substitution2: "'smcp' Lowercase to Small Capitals lookup 24 subtable" x.smcp
Substitution2: "'aalt' Access All Alternates lookup 0 subtable" x.smcp
EndChar
StartChar: y
Encoding: 121 121 256
Width: 1032
GlyphClass: 2
Flags: W
AnchorPoint: "Anchor-5" 0 0 basechar 0
AnchorPoint: "Anchor-4" 520 1053 basechar 0
AnchorPoint: "Anchor-3" 0 0 basechar 0
LayerCount: 2
Back
Fore
SplineSet
1012 1055 m 1,1,-1
 1012 1014 l 1,2,3
 971 1009 971 1009 939 977 c 128,-1,4
 907 945 907 945 879 870 c 2,5,-1
 543 -10 l 1,6,-1
 473 -188 l 2,7,8
 434 -289 434 -289 385 -332 c 0,9,10
 327 -385 327 -385 225 -385 c 0,11,12
 164 -385 164 -385 125 -352.5 c 128,-1,13
 86 -320 86 -320 86 -262 c 0,14,15
 86 -213 86 -213 115 -183.5 c 128,-1,16
 144 -154 144 -154 195 -154 c 0,17,18
 240 -154 240 -154 269.5 -179 c 128,-1,19
 299 -204 299 -204 299 -250 c 0,20,21
 299 -311 299 -311 244 -342 c 1,22,23
 248 -344 248 -344 256 -344 c 0,24,25
 369 -344 369 -344 430 -184 c 2,26,-1
 503 3 l 1,27,-1
 131 897 l 1,28,29
 96 968 96 968 61.5 990 c 128,-1,30
 27 1012 27 1012 -8 1012 c 1,31,-1
 -8 1055 l 1,32,33
 88 1042 88 1042 193 1042 c 0,34,35
 281 1042 281 1042 459 1055 c 1,36,-1
 459 1012 l 1,37,38
 409 1012 409 1012 381 1008.5 c 128,-1,39
 353 1005 353 1005 334.5 989.5 c 128,-1,40
 316 974 316 974 316 941 c 0,41,42
 316 904 316 904 342 840 c 2,43,-1
 589 228 l 1,44,-1
 815 821 l 2,45,46
 837 881 837 881 837 915 c 0,47,48
 837 963 837 963 800.5 986 c 128,-1,49
 764 1009 764 1009 684 1014 c 1,50,-1
 684 1055 l 1,51,52
 792 1049 792 1049 856 1049 c 0,53,0
 947 1049 947 1049 1012 1055 c 1,1,-1
EndSplineSet
Substitution2: "'smcp' Lowercase to Small Capitals lookup 24 subtable" y.smcp
Substitution2: "'aalt' Access All Alternates lookup 0 subtable" y.smcp
EndChar
StartChar: z
Encoding: 122 122 261
Width: 975
GlyphClass: 2
Flags: W
AnchorPoint: "Anchor-5" 496 0 basechar 0
AnchorPoint: "Anchor-4" 520 1053 basechar 0
AnchorPoint: "Anchor-3" 0 0 basechar 0
LayerCount: 2
Back
Fore
SplineSet
531 31 m 2,0,1
 657 31 657 31 730 109.5 c 128,-1,2
 803 188 803 188 816 360 c 1,3,-1
 863 360 l 1,4,5
 863 93 863 93 871 -8 c 1,6,7
 711 0 711 0 491 0 c 0,8,9
 295 0 295 0 77 -10 c 1,10,-1
 669 1024 l 1,11,-1
 443 1024 l 2,12,13
 351 1024 351 1024 292 991 c 128,-1,14
 233 958 233 958 200.5 885.5 c 128,-1,15
 168 813 168 813 159 694 c 1,16,-1
 112 694 l 1,17,18
 112 965 112 965 103 1063 c 1,19,20
 264 1055 264 1055 484 1055 c 0,21,22
 680 1055 680 1055 898 1065 c 1,23,-1
 306 31 l 1,24,-1
 531 31 l 2,0,1
EndSplineSet
Substitution2: "'smcp' Lowercase to Small Capitals lookup 24 subtable" z.smcp
Substitution2: "'aalt' Access All Alternates lookup 0 subtable" z.smcp
EndChar
StartChar: braceleft
Encoding: 123 123 638
Width: 623
Flags: W
LayerCount: 2
Back
Fore
SplineSet
463.5 1532 m 128,-1,1
 431 1503 431 1503 418 1414.5 c 128,-1,2
 405 1326 405 1326 405 1128 c 0,3,4
 405 954 405 954 365.5 848 c 128,-1,5
 326 742 326 742 262.5 690 c 128,-1,6
 199 638 199 638 112 612 c 1,7,8
 199 586 199 586 262.5 534 c 128,-1,9
 326 482 326 482 365.5 375.5 c 128,-1,10
 405 269 405 269 405 96 c 0,11,12
 405 -109 405 -109 418 -199 c 128,-1,13
 431 -289 431 -289 463.5 -317 c 128,-1,14
 496 -345 496 -345 568 -346 c 1,15,-1
 568 -385 l 1,16,17
 434 -385 434 -385 360 -342.5 c 128,-1,18
 286 -300 286 -300 253 -197 c 128,-1,19
 220 -94 220 -94 220 96 c 0,20,21
 220 293 220 293 207 396.5 c 128,-1,22
 194 500 194 500 161 544.5 c 128,-1,23
 128 589 128 589 65 594 c 1,24,-1
 54 594 l 1,25,-1
 54 631 l 1,26,-1
 65 631 l 1,27,28
 128 635 128 635 161 679 c 128,-1,29
 194 723 194 723 207 826.5 c 128,-1,30
 220 930 220 930 220 1128 c 0,31,32
 220 1311 220 1311 253 1413 c 128,-1,33
 286 1515 286 1515 360.5 1558.5 c 128,-1,34
 435 1602 435 1602 568 1602 c 1,35,-1
 568 1563 l 1,36,0
 496 1561 496 1561 463.5 1532 c 128,-1,1
EndSplineSet
Substitution2: "'case' Case-Sensitive Forms lookup 25 subtable" braceleft.case
Substitution2: "'smcp' Lowercase to Small Capitals lookup 24 subtable" braceleft.smcp
Substitution2: "'c2sc' Capitals to Small Capitals lookup 23 subtable" braceleft.smcp
AlternateSubs2: "'aalt' Access All Alternates lookup 1 subtable" braceleft.smcp braceleft.case
EndChar
StartChar: bar
Encoding: 124 124 763
Width: 455
Flags: W
LayerCount: 2
Back
Fore
SplineSet
185 -399 m 1,0,-1
 185 1757 l 1,1,-1
 267 1757 l 1,2,-1
 267 -399 l 1,3,-1
 185 -399 l 1,0,-1
EndSplineSet
EndChar
StartChar: asciitilde
Encoding: 126 126 725
Width: 1329
Flags: W
LayerCount: 2
Back
Fore
SplineSet
565.5 728 m 128,-1,1
 624 708 624 708 708 667 c 0,2,3
 787 629 787 629 842.5 609.5 c 128,-1,4
 898 590 898 590 960 590 c 0,5,6
 1094 590 1094 590 1144 709 c 1,7,-1
 1179 698 l 1,8,9
 1171 632 1171 632 1130 583 c 128,-1,10
 1089 534 1089 534 1026 507.5 c 128,-1,11
 963 481 963 481 890 481 c 0,12,13
 822 481 822 481 763.5 501 c 128,-1,14
 705 521 705 521 621 562 c 0,15,16
 542 600 542 600 486.5 619.5 c 128,-1,17
 431 639 431 639 370 639 c 0,18,19
 235 639 235 639 185 520 c 1,20,-1
 151 530 l 1,21,22
 159 596 159 596 199.5 645.5 c 128,-1,23
 240 695 240 695 303 721.5 c 128,-1,24
 366 748 366 748 439 748 c 0,25,0
 507 748 507 748 565.5 728 c 128,-1,1
EndSplineSet
Substitution2: "'case' Case-Sensitive Forms lookup 25 subtable" asciitilde.case
Substitution2: "'smcp' Lowercase to Small Capitals lookup 24 subtable" asciitilde.smcp
Substitution2: "'c2sc' Capitals to Small Capitals lookup 23 subtable" asciitilde.smcp
AlternateSubs2: "'aalt' Access All Alternates lookup 1 subtable" asciitilde.smcp asciitilde.case
EndChar
StartChar: exclamdown
Encoding: 161 161 678
Width: 510
Flags: W
LayerCount: 2
Back
Fore
SplineSet
320.5 1065.5 m 128,-1,1
 351 1048 351 1048 368.5 1017.5 c 128,-1,2
 386 987 386 987 386 952 c 256,3,4
 386 917 386 917 368.5 887 c 128,-1,5
 351 857 351 857 320.5 839 c 128,-1,6
 290 821 290 821 255 821 c 256,7,8
 220 821 220 821 189.5 839 c 128,-1,9
 159 857 159 857 141.5 887 c 128,-1,10
 124 917 124 917 124 952 c 256,11,12
 124 987 124 987 141.5 1017.5 c 128,-1,13
 159 1048 159 1048 189.5 1065.5 c 128,-1,14
 220 1083 220 1083 255 1083 c 256,15,0
 290 1083 290 1083 320.5 1065.5 c 128,-1,1
283.5 366 m 128,-1,17
 296 224 296 224 319 40 c 0,18,19
 347 -197 347 -197 347 -270 c 0,20,21
 347 -329 347 -329 321 -357 c 128,-1,22
 295 -385 295 -385 253 -385 c 0,23,24
 212 -385 212 -385 185.5 -356.5 c 128,-1,25
 159 -328 159 -328 159 -270 c 0,26,27
 159 -197 159 -197 187 40 c 0,28,29
 210 224 210 224 222.5 366 c 128,-1,30
 235 508 235 508 235 651 c 1,31,-1
 271 651 l 1,32,16
 271 508 271 508 283.5 366 c 128,-1,17
EndSplineSet
Substitution2: "'case' Case-Sensitive Forms lookup 25 subtable" exclamdown.case
Substitution2: "'smcp' Lowercase to Small Capitals lookup 24 subtable" exclamdown.smcp
Substitution2: "'c2sc' Capitals to Small Capitals lookup 23 subtable" exclamdown.smcp
AlternateSubs2: "'aalt' Access All Alternates lookup 1 subtable" exclamdown.smcp exclamdown.case
EndChar
StartChar: cent
Encoding: 162 162 717
Width: 971
Flags: W
LayerCount: 2
Back
Fore
SplineSet
830.5 122.5 m 128,-1,1
 785 60 785 60 712 18 c 128,-1,2
 639 -24 639 -24 542 -29 c 1,3,-1
 542 -371 l 1,4,-1
 497 -371 l 1,5,-1
 497 -28 l 1,6,7
 375 -22 375 -22 277.5 45.5 c 128,-1,8
 180 113 180 113 124 234 c 128,-1,9
 68 355 68 355 68 514 c 0,10,11
 68 670 68 670 122 794.5 c 128,-1,12
 176 919 176 919 273.5 994 c 128,-1,13
 371 1069 371 1069 497 1081 c 1,14,-1
 497 1450 l 1,15,-1
 542 1450 l 1,16,-1
 542 1083 l 1,17,-1
 545 1083 l 2,18,19
 683 1083 683 1083 783 1018 c 0,20,21
 879 953 879 953 879 860 c 0,22,23
 879 806 879 806 848.5 775.5 c 128,-1,24
 818 745 818 745 771 745 c 0,25,26
 723 745 723 745 690.5 772.5 c 128,-1,27
 658 800 658 800 658 848 c 0,28,29
 658 892 658 892 682.5 921.5 c 128,-1,30
 707 951 707 951 744 961 c 1,31,32
 724 998 724 998 671 1022.5 c 128,-1,33
 618 1047 618 1047 560 1047 c 2,34,-1
 542 1046 l 1,35,-1
 542 60 l 1,36,-1
 562 59 l 1,37,38
 649 59 649 59 728.5 110 c 128,-1,39
 808 161 808 161 859 270 c 1,40,-1
 898 256 l 1,41,0
 876 185 876 185 830.5 122.5 c 128,-1,1
329.5 208 m 128,-1,43
 392 92 392 92 497 67 c 1,44,-1
 497 1038 l 1,45,46
 397 1010 397 1010 332 891.5 c 128,-1,47
 267 773 267 773 267 545 c 0,48,42
 267 324 267 324 329.5 208 c 128,-1,43
EndSplineSet
Substitution2: "'smcp' Lowercase to Small Capitals lookup 24 subtable" cent.smcp
Substitution2: "'c2sc' Capitals to Small Capitals lookup 23 subtable" cent.smcp
Substitution2: "'aalt' Access All Alternates lookup 0 subtable" cent.smcp
EndChar
StartChar: sterling
Encoding: 163 163 722
Width: 1233
Flags: W
LayerCount: 2
Back
Fore
SplineSet
1032.5 411 m 128,-1,1
 1092 378 1092 378 1129 324 c 128,-1,2
 1166 270 1166 270 1166 199 c 0,3,4
 1166 140 1166 140 1140.5 87.5 c 128,-1,5
 1115 35 1115 35 1064.5 3 c 128,-1,6
 1014 -29 1014 -29 943 -29 c 0,7,8
 877 -29 877 -29 819.5 -4 c 128,-1,9
 762 21 762 21 678 71 c 0,10,11
 579 130 579 130 529 147 c 0,12,13
 486 164 486 164 429 164 c 0,14,15
 371 164 371 164 316 143 c 1,16,17
 269 62 269 62 213 16.5 c 128,-1,18
 157 -29 157 -29 103 -29 c 0,19,20
 87 -29 87 -29 79 -25 c 128,-1,21
 71 -21 71 -21 71 -8 c 0,22,23
 71 11 71 11 98.5 42.5 c 128,-1,24
 126 74 126 74 169 104 c 128,-1,25
 212 134 212 134 255 150 c 1,26,27
 269 216 269 216 273.5 294.5 c 128,-1,28
 278 373 278 373 278 528 c 2,29,-1
 278 608 l 1,30,-1
 120 608 l 1,31,-1
 120 649 l 1,32,-1
 278 649 l 1,33,-1
 278 813 l 1,34,-1
 120 813 l 1,35,-1
 120 854 l 1,36,-1
 278 854 l 1,37,-1
 278 899 l 2,38,39
 278 1507 278 1507 732 1507 c 0,40,41
 853 1507 853 1507 925 1452 c 0,42,43
 986 1403 986 1403 986 1339 c 0,44,45
 986 1296 986 1296 957.5 1267.5 c 128,-1,46
 929 1239 929 1239 890 1239 c 0,47,48
 853 1239 853 1239 824.5 1265 c 128,-1,49
 796 1291 796 1291 796 1331 c 0,50,51
 796 1365 796 1365 813.5 1390 c 128,-1,52
 831 1415 831 1415 863 1427 c 1,53,54
 859 1447 859 1447 819.5 1462 c 128,-1,55
 780 1477 780 1477 736 1477 c 0,56,57
 614 1477 614 1477 555.5 1406 c 128,-1,58
 497 1335 497 1335 482.5 1229 c 128,-1,59
 468 1123 468 1123 468 952 c 2,60,-1
 468 854 l 1,61,-1
 765 854 l 1,62,-1
 765 813 l 1,63,-1
 468 813 l 1,64,-1
 468 649 l 1,65,-1
 765 649 l 1,66,-1
 765 608 l 1,67,-1
 467 608 l 1,68,69
 463 486 463 486 431.5 390 c 128,-1,70
 400 294 400 294 335 180 c 1,71,72
 422 221 422 221 511 221 c 0,73,74
 557 221 557 221 599.5 210.5 c 128,-1,75
 642 200 642 200 710 177 c 0,76,77
 779 153 779 153 828.5 141 c 128,-1,78
 878 129 878 129 931 129 c 0,79,80
 1000 129 1000 129 1035 162.5 c 128,-1,81
 1070 196 1070 196 1070 246 c 0,82,83
 1070 315 1070 315 1023 360.5 c 128,-1,84
 976 406 976 406 896 422 c 1,85,-1
 904 455 l 1,86,0
 973 444 973 444 1032.5 411 c 128,-1,1
EndSplineSet
Substitution2: "'smcp' Lowercase to Small Capitals lookup 24 subtable" sterling.smcp
Substitution2: "'c2sc' Capitals to Small Capitals lookup 23 subtable" sterling.smcp
Substitution2: "'aalt' Access All Alternates lookup 0 subtable" sterling.smcp
EndChar
StartChar: currency
Encoding: 164 164 718
Width: 1096
Flags: W
LayerCount: 2
Back
Fore
SplineSet
849 858 m 1,0,1
 935 749 935 749 935 614 c 0,2,3
 935 476 935 476 849 371 c 1,4,-1
 939 283 l 1,5,-1
 882 223 l 1,6,-1
 792 313 l 1,7,8
 682 227 682 227 548 227 c 0,9,10
 409 227 409 227 304 311 c 1,11,-1
 216 223 l 1,12,-1
 157 283 l 1,13,-1
 245 371 l 1,14,15
 159 476 159 476 159 614 c 0,16,17
 159 753 159 753 247 860 c 1,18,-1
 157 950 l 1,19,-1
 214 1008 l 1,20,-1
 304 918 l 1,21,22
 411 1004 411 1004 548 1004 c 0,23,24
 684 1004 684 1004 792 915 c 1,25,-1
 884 1008 l 1,26,-1
 941 950 l 1,27,-1
 849 858 l 1,0,1
395.5 885 m 128,-1,29
 325 842 325 842 284 770 c 128,-1,30
 243 698 243 698 243 614 c 256,31,32
 243 530 243 530 284.5 458.5 c 128,-1,33
 326 387 326 387 396 345 c 128,-1,34
 466 303 466 303 548 303 c 256,35,36
 630 303 630 303 699.5 345 c 128,-1,37
 769 387 769 387 810 458.5 c 128,-1,38
 851 530 851 530 851 614 c 0,39,40
 851 697 851 697 810 769 c 128,-1,41
 769 841 769 841 699 884.5 c 128,-1,42
 629 928 629 928 548 928 c 0,43,28
 466 928 466 928 395.5 885 c 128,-1,29
EndSplineSet
Substitution2: "'smcp' Lowercase to Small Capitals lookup 24 subtable" currency.smcp
Substitution2: "'c2sc' Capitals to Small Capitals lookup 23 subtable" currency.smcp
Substitution2: "'aalt' Access All Alternates lookup 0 subtable" currency.smcp
EndChar
StartChar: yen
Encoding: 165 165 723
Width: 1325
Flags: W
LayerCount: 2
Back
Fore
SplineSet
1264 1450 m 1,1,-1
 1264 1409 l 1,2,3
 1223 1400 1223 1400 1184 1357.5 c 128,-1,4
 1145 1315 1145 1315 1100 1227 c 2,5,-1
 787 606 l 1,6,-1
 1066 606 l 1,7,-1
 1066 565 l 1,8,-1
 779 565 l 1,9,-1
 779 401 l 1,10,-1
 1066 401 l 1,11,-1
 1066 360 l 1,12,-1
 779 360 l 1,13,-1
 779 217 l 2,14,15
 779 140 779 140 791.5 105 c 128,-1,16
 804 70 804 70 837.5 57 c 128,-1,17
 871 44 871 44 945 41 c 1,18,-1
 945 0 l 1,19,20
 849 6 849 6 685 6 c 0,21,22
 509 6 509 6 422 0 c 1,23,-1
 422 41 l 1,24,25
 496 44 496 44 529.5 57 c 128,-1,26
 563 70 563 70 575.5 105 c 128,-1,27
 588 140 588 140 588 217 c 2,28,-1
 588 360 l 1,29,-1
 302 360 l 1,30,-1
 302 401 l 1,31,-1
 588 401 l 1,32,-1
 588 526 l 1,33,-1
 567 565 l 1,34,-1
 302 565 l 1,35,-1
 302 606 l 1,36,-1
 545 606 l 1,37,-1
 173 1292 l 2,38,39
 135 1361 135 1361 107.5 1384 c 128,-1,40
 80 1407 80 1407 54 1407 c 1,41,-1
 54 1450 l 1,42,43
 134 1444 134 1444 234 1444 c 0,44,45
 433 1444 433 1444 521 1450 c 1,46,-1
 521 1407 l 1,47,48
 377 1407 377 1407 377 1328 c 0,49,50
 377 1298 377 1298 398 1257 c 2,51,-1
 738 606 l 1,52,-1
 740 606 l 1,53,-1
 1000 1124 l 2,54,55
 1056 1237 1056 1237 1056 1300 c 0,56,57
 1056 1358 1056 1358 1011 1382.5 c 128,-1,58
 966 1407 966 1407 875 1409 c 1,59,-1
 875 1450 l 1,60,61
 992 1444 992 1444 1111 1444 c 0,62,0
 1203 1444 1203 1444 1264 1450 c 1,1,-1
EndSplineSet
Substitution2: "'smcp' Lowercase to Small Capitals lookup 24 subtable" yen.smcp
Substitution2: "'c2sc' Capitals to Small Capitals lookup 23 subtable" yen.smcp
Substitution2: "'aalt' Access All Alternates lookup 0 subtable" yen.smcp
EndChar
StartChar: section
Encoding: 167 167 773
Width: 1040
Flags: W
LayerCount: 2
Back
Fore
SplineSet
829 92.5 m 128,-1,1
 867 23 867 23 867 -63 c 0,2,3
 867 -158 867 -158 822.5 -231 c 128,-1,4
 778 -304 778 -304 696.5 -344.5 c 128,-1,5
 615 -385 615 -385 507 -385 c 0,6,7
 409 -385 409 -385 325 -350 c 0,8,9
 251 -319 251 -319 209 -269.5 c 128,-1,10
 167 -220 167 -220 167 -166 c 0,11,12
 167 -119 167 -119 196 -87 c 128,-1,13
 225 -55 225 -55 275 -55 c 0,14,15
 323 -55 323 -55 355.5 -85.5 c 128,-1,16
 388 -116 388 -116 388 -164 c 0,17,18
 388 -202 388 -202 366.5 -231.5 c 128,-1,19
 345 -261 345 -261 300 -272 c 1,20,21
 317 -311 317 -311 378 -328.5 c 128,-1,22
 439 -346 439 -346 501 -346 c 0,23,24
 579 -346 579 -346 629 -316 c 128,-1,25
 679 -286 679 -286 701.5 -240 c 128,-1,26
 724 -194 724 -194 724 -143 c 0,27,28
 724 -74 724 -74 682 -12.5 c 128,-1,29
 640 49 640 49 580.5 97 c 128,-1,30
 521 145 521 145 419 216 c 2,31,-1
 384 240 l 2,32,33
 275 315 275 315 212 371.5 c 128,-1,34
 149 428 149 428 116 492.5 c 128,-1,35
 83 557 83 557 83 639 c 0,36,37
 83 863 83 863 318 993 c 1,38,39
 247 1058 247 1058 210 1126.5 c 128,-1,40
 173 1195 173 1195 173 1280 c 0,41,42
 173 1374 173 1374 217.5 1447.5 c 128,-1,43
 262 1521 262 1521 344 1561.5 c 128,-1,44
 426 1602 426 1602 534 1602 c 0,45,46
 626 1602 626 1602 716 1567 c 0,47,48
 789 1536 789 1536 831 1486 c 128,-1,49
 873 1436 873 1436 873 1382 c 0,50,51
 873 1335 873 1335 844 1303.5 c 128,-1,52
 815 1272 815 1272 765 1272 c 0,53,54
 718 1272 718 1272 685 1302 c 128,-1,55
 652 1332 652 1332 652 1380 c 0,56,57
 652 1418 652 1418 673.5 1448 c 128,-1,58
 695 1478 695 1478 740 1489 c 1,59,60
 721 1528 721 1528 661 1545.5 c 128,-1,61
 601 1563 601 1563 542 1563 c 0,62,63
 462 1563 462 1563 411.5 1533 c 128,-1,64
 361 1503 361 1503 338.5 1457 c 128,-1,65
 316 1411 316 1411 316 1360 c 0,66,67
 316 1290 316 1290 358 1229 c 128,-1,68
 400 1168 400 1168 460 1119.5 c 128,-1,69
 520 1071 520 1071 620 1002 c 0,70,71
 632 993 632 993 656 977 c 0,72,73
 765 902 765 902 828 845.5 c 128,-1,74
 891 789 891 789 924 724.5 c 128,-1,75
 957 660 957 660 957 578 c 0,76,77
 957 359 957 359 717 228 c 1,78,0
 791 162 791 162 829 92.5 c 128,-1,1
695 247 m 1,80,81
 772 290 772 290 809.5 349 c 128,-1,82
 847 408 847 408 847 475 c 0,83,84
 847 539 847 539 808.5 596.5 c 128,-1,85
 770 654 770 654 709.5 703.5 c 128,-1,86
 649 753 649 753 552 819 c 0,87,88
 398 925 398 925 344 970 c 1,89,90
 269 928 269 928 231.5 868 c 128,-1,91
 194 808 194 808 194 741 c 0,92,93
 194 677 194 677 232.5 619.5 c 128,-1,94
 271 562 271 562 330.5 513.5 c 128,-1,95
 390 465 390 465 488 397 c 0,96,79
 642 291 642 291 695 247 c 1,80,81
EndSplineSet
Substitution2: "'smcp' Lowercase to Small Capitals lookup 24 subtable" section.smcp
Substitution2: "'c2sc' Capitals to Small Capitals lookup 23 subtable" section.smcp
Substitution2: "'aalt' Access All Alternates lookup 0 subtable" section.smcp
EndChar
StartChar: dieresis
Encoding: 168 168 797
Width: 799
Flags: W
LayerCount: 2
Back
Fore
SplineSet
239.5 1505.5 m 128,-1,1
 267 1489 267 1489 283.5 1461.5 c 128,-1,2
 300 1434 300 1434 300 1403 c 0,3,4
 300 1371 300 1371 283.5 1343.5 c 128,-1,5
 267 1316 267 1316 240 1300 c 128,-1,6
 213 1284 213 1284 181 1284 c 0,7,8
 132 1284 132 1284 97 1319 c 128,-1,9
 62 1354 62 1354 62 1403 c 0,10,11
 62 1434 62 1434 78 1461.5 c 128,-1,12
 94 1489 94 1489 121.5 1505.5 c 128,-1,13
 149 1522 149 1522 181 1522 c 0,14,0
 212 1522 212 1522 239.5 1505.5 c 128,-1,1
673.5 1505.5 m 128,-1,16
 701 1489 701 1489 717.5 1461.5 c 128,-1,17
 734 1434 734 1434 734 1403 c 0,18,19
 734 1371 734 1371 717.5 1343.5 c 128,-1,20
 701 1316 701 1316 674 1300 c 128,-1,21
 647 1284 647 1284 615 1284 c 0,22,23
 566 1284 566 1284 531.5 1319 c 128,-1,24
 497 1354 497 1354 497 1403 c 0,25,26
 497 1434 497 1434 513 1461.5 c 128,-1,27
 529 1489 529 1489 556 1505.5 c 128,-1,28
 583 1522 583 1522 615 1522 c 0,29,15
 646 1522 646 1522 673.5 1505.5 c 128,-1,16
EndSplineSet
Substitution2: "'case' Case-Sensitive Forms lookup 25 subtable" dieresis.case
Substitution2: "'smcp' Lowercase to Small Capitals lookup 24 subtable" dieresis.smcp
Substitution2: "'c2sc' Capitals to Small Capitals lookup 23 subtable" dieresis.smcp
AlternateSubs2: "'aalt' Access All Alternates lookup 1 subtable" dieresis.smcp dieresis.case
EndChar
StartChar: copyright
Encoding: 169 169 766
Width: 1831
Flags: W
LayerCount: 2
Back
Fore
SplineSet
1323.5 1492.5 m 128,-1,1
 1511 1383 1511 1383 1620.5 1195.5 c 128,-1,2
 1730 1008 1730 1008 1730 786 c 0,3,4
 1730 565 1730 565 1620.5 377.5 c 128,-1,5
 1511 190 1511 190 1323.5 80.5 c 128,-1,6
 1136 -29 1136 -29 914 -29 c 0,7,8
 693 -29 693 -29 505.5 80.5 c 128,-1,9
 318 190 318 190 208.5 377.5 c 128,-1,10
 99 565 99 565 99 786 c 0,11,12
 99 1008 99 1008 208.5 1195.5 c 128,-1,13
 318 1383 318 1383 505.5 1492.5 c 128,-1,14
 693 1602 693 1602 914 1602 c 0,15,0
 1136 1602 1136 1602 1323.5 1492.5 c 128,-1,1
546.5 1435 m 128,-1,17
 378 1334 378 1334 279.5 1162 c 128,-1,18
 181 990 181 990 181 786 c 0,19,20
 181 583 181 583 279.5 411 c 128,-1,21
 378 239 378 239 546.5 138 c 128,-1,22
 715 37 715 37 914 37 c 0,23,24
 1114 37 1114 37 1282.5 138 c 128,-1,25
 1451 239 1451 239 1549.5 411 c 128,-1,26
 1648 583 1648 583 1648 786 c 0,27,28
 1648 990 1648 990 1549.5 1162 c 128,-1,29
 1451 1334 1451 1334 1282.5 1435 c 128,-1,30
 1114 1536 1114 1536 914 1536 c 0,31,16
 715 1536 715 1536 546.5 1435 c 128,-1,17
1084 1325 m 128,-1,33
 1149 1307 1149 1307 1195 1272 c 0,34,35
 1281 1212 1281 1212 1281 1120 c 0,36,37
 1281 1067 1281 1067 1250.5 1036.5 c 128,-1,38
 1220 1006 1220 1006 1173 1006 c 0,39,40
 1125 1006 1125 1006 1092.5 1036 c 128,-1,41
 1060 1066 1060 1066 1060 1116 c 0,42,43
 1060 1158 1060 1158 1083 1185 c 128,-1,44
 1106 1212 1106 1212 1146 1221 c 1,45,46
 1126 1258 1126 1258 1073 1282.5 c 128,-1,47
 1020 1307 1020 1307 962 1307 c 0,48,49
 861 1307 861 1307 785 1227 c 0,50,51
 669 1099 669 1099 669 799 c 0,52,53
 669 630 669 630 708.5 523 c 128,-1,54
 748 416 748 416 813.5 367.5 c 128,-1,55
 879 319 879 319 962 319 c 0,56,57
 1051 319 1051 319 1130.5 370 c 128,-1,58
 1210 421 1210 421 1261 530 c 1,59,-1
 1299 516 l 1,60,61
 1277 443 1277 443 1229 378.5 c 128,-1,62
 1181 314 1181 314 1104 272.5 c 128,-1,63
 1027 231 1027 231 925 231 c 0,64,65
 796 231 796 231 692.5 297 c 128,-1,66
 589 363 589 363 529.5 486 c 128,-1,67
 470 609 470 609 470 774 c 0,68,69
 470 940 470 940 530.5 1069.5 c 128,-1,70
 591 1199 591 1199 700 1271 c 128,-1,71
 809 1343 809 1343 949 1343 c 0,72,32
 1019 1343 1019 1343 1084 1325 c 128,-1,33
EndSplineSet
EndChar
StartChar: ordfeminine
Encoding: 170 170 421
Width: 948
GlyphClass: 2
Flags: W
LayerCount: 2
Back
Fore
SplineSet
651 1417.5 m 128,-1,1
 710 1356 710 1356 710 1219 c 2,2,-1
 710 885 l 2,3,4
 710 842 710 842 721.5 825.5 c 128,-1,5
 733 809 733 809 761 809 c 0,6,7
 810 809 810 809 845 844 c 1,8,-1
 867 813 l 1,9,10
 787 737 787 737 683 737 c 0,11,12
 610 737 610 737 579.5 761.5 c 128,-1,13
 549 786 549 786 546 834 c 1,14,15
 446 737 446 737 306 737 c 0,16,17
 257 737 257 737 214 754.5 c 128,-1,18
 171 772 171 772 143.5 808 c 128,-1,19
 116 844 116 844 116 897 c 0,20,21
 116 953 116 953 148.5 992 c 128,-1,22
 181 1031 181 1031 235.5 1058.5 c 128,-1,23
 290 1086 290 1086 382 1120 c 0,24,25
 462 1150 462 1150 504 1175 c 128,-1,26
 546 1200 546 1200 546 1235 c 2,27,-1
 546 1272 l 2,28,29
 546 1361 546 1361 511 1400.5 c 128,-1,30
 476 1440 476 1440 407 1440 c 0,31,32
 322 1440 322 1440 255 1397 c 1,33,34
 285 1388 285 1388 305 1362.5 c 128,-1,35
 325 1337 325 1337 325 1300 c 0,36,37
 325 1261 325 1261 298 1235.5 c 128,-1,38
 271 1210 271 1210 235 1210 c 0,39,40
 190 1210 190 1210 163 1235.5 c 128,-1,41
 136 1261 136 1261 136 1303 c 0,42,43
 136 1384 136 1384 235 1432 c 0,44,45
 334 1479 334 1479 460 1479 c 0,46,0
 592 1479 592 1479 651 1417.5 c 128,-1,1
514.5 1138.5 m 128,-1,48
 491 1123 491 1123 431 1096 c 0,49,50
 354 1061 354 1061 319 1024 c 128,-1,51
 284 987 284 987 284 934 c 0,52,53
 284 878 284 878 315 843.5 c 128,-1,54
 346 809 346 809 396 809 c 0,55,56
 473 809 473 809 546 874 c 1,57,-1
 546 1171 l 1,58,47
 538 1154 538 1154 514.5 1138.5 c 128,-1,48
EndSplineSet
EndChar
StartChar: guillemotleft
Encoding: 171 171 657
Width: 1028
Flags: W
LayerCount: 2
Back
Fore
SplineSet
415 755.5 m 128,-1,1
 331 633 331 633 218 535 c 1,2,3
 328 439 328 439 412.5 309.5 c 128,-1,4
 497 180 497 180 570 -14 c 1,5,-1
 536 -29 l 1,6,7
 448 167 448 167 335.5 303 c 128,-1,8
 223 439 223 439 65 526 c 1,9,-1
 65 528 l 1,10,11
 223 616 223 616 335.5 751.5 c 128,-1,12
 448 887 448 887 536 1083 c 1,13,-1
 570 1069 l 1,14,0
 499 878 499 878 415 755.5 c 128,-1,1
773.5 755.5 m 128,-1,16
 690 633 690 633 577 535 c 1,17,18
 687 439 687 439 771.5 310 c 128,-1,19
 856 181 856 181 929 -14 c 1,20,-1
 894 -29 l 1,21,22
 806 167 806 167 693.5 303 c 128,-1,23
 581 439 581 439 423 526 c 1,24,-1
 423 528 l 1,25,26
 581 616 581 616 693.5 751.5 c 128,-1,27
 806 887 806 887 894 1083 c 1,28,-1
 929 1069 l 1,29,15
 857 878 857 878 773.5 755.5 c 128,-1,16
EndSplineSet
Substitution2: "'case' Case-Sensitive Forms lookup 25 subtable" guillemotleft.case
Substitution2: "'smcp' Lowercase to Small Capitals lookup 24 subtable" guillemotleft.smcp
Substitution2: "'c2sc' Capitals to Small Capitals lookup 23 subtable" guillemotleft.smcp
AlternateSubs2: "'aalt' Access All Alternates lookup 1 subtable" guillemotleft.smcp guillemotleft.case
EndChar
StartChar: logicalnot
Encoding: 172 172 734
Width: 1343
Flags: W
LayerCount: 2
Back
Fore
SplineSet
1119 338 m 1,0,-1
 1119 696 l 1,1,-1
 167 696 l 1,2,-1
 167 758 l 1,3,-1
 1193 758 l 1,4,-1
 1193 338 l 1,5,-1
 1119 338 l 1,0,-1
EndSplineSet
EndChar
StartChar: registered
Encoding: 174 174 772
Width: 1389
Flags: W
LayerCount: 2
Back
Fore
SplineSet
979.5 1525 m 128,-1,1
 1111 1448 1111 1448 1188 1316.5 c 128,-1,2
 1265 1185 1265 1185 1265 1030 c 256,3,4
 1265 875 1265 875 1188 744 c 128,-1,5
 1111 613 1111 613 979.5 536 c 128,-1,6
 848 459 848 459 693 459 c 256,7,8
 538 459 538 459 407 536 c 128,-1,9
 276 613 276 613 199 744 c 128,-1,10
 122 875 122 875 122 1030 c 256,11,12
 122 1185 122 1185 199 1316.5 c 128,-1,13
 276 1448 276 1448 407 1525 c 128,-1,14
 538 1602 538 1602 693 1602 c 256,15,0
 848 1602 848 1602 979.5 1525 c 128,-1,1
937.5 592.5 m 128,-1,17
 1049 661 1049 661 1114 777.5 c 128,-1,18
 1179 894 1179 894 1179 1030 c 0,19,20
 1179 1167 1179 1167 1114 1283 c 128,-1,21
 1049 1399 1049 1399 937.5 1467.5 c 128,-1,22
 826 1536 826 1536 693 1536 c 256,23,24
 560 1536 560 1536 449 1467.5 c 128,-1,25
 338 1399 338 1399 273 1283 c 128,-1,26
 208 1167 208 1167 208 1030 c 0,27,28
 208 894 208 894 273 777.5 c 128,-1,29
 338 661 338 661 449.5 592.5 c 128,-1,30
 561 524 561 524 693 524 c 0,31,16
 826 524 826 524 937.5 592.5 c 128,-1,17
998 762 m 1,33,-1
 1019 748 l 1,34,35
 1007 724 1007 724 985.5 714.5 c 128,-1,36
 964 705 964 705 929 705 c 0,37,38
 877 705 877 705 852 724.5 c 128,-1,39
 827 744 827 744 816 788 c 2,40,-1
 781 940 l 2,41,42
 772 980 772 980 758 998.5 c 128,-1,43
 744 1017 744 1017 709.5 1024.5 c 128,-1,44
 675 1032 675 1032 601 1034 c 1,45,-1
 601 827 l 2,46,47
 601 795 601 795 604.5 780 c 128,-1,48
 608 765 608 765 617.5 759.5 c 128,-1,49
 627 754 627 754 648 752 c 1,50,-1
 648 721 l 1,51,52
 621 721 621 721 605 722 c 2,53,-1
 544 723 l 1,54,-1
 476 722 l 2,55,56
 461 721 461 721 437 721 c 1,57,-1
 437 752 l 1,58,59
 458 754 458 754 467.5 759.5 c 128,-1,60
 477 765 477 765 480.5 780 c 128,-1,61
 484 795 484 795 484 827 c 2,62,-1
 484 1276 l 2,63,64
 484 1309 484 1309 480.5 1324.5 c 128,-1,65
 477 1340 477 1340 467.5 1346 c 128,-1,66
 458 1352 458 1352 437 1354 c 1,67,-1
 437 1384 l 1,68,69
 462 1382 462 1382 536 1382 c 2,70,-1
 662 1383 l 2,71,72
 683 1384 683 1384 712 1384 c 0,73,74
 827 1384 827 1384 888 1342 c 128,-1,75
 949 1300 949 1300 949 1223 c 0,76,77
 949 1084 949 1084 751 1049 c 1,78,79
 832 1040 832 1040 867 1012 c 128,-1,80
 902 984 902 984 912 930 c 2,81,-1
 937 813 l 2,82,83
 939 805 939 805 943 784.5 c 128,-1,84
 947 764 947 764 954.5 754.5 c 128,-1,85
 962 745 962 745 974 745 c 0,86,32
 989 745 989 745 998 762 c 1,33,-1
629 1348.5 m 128,-1,88
 613 1343 613 1343 607 1329 c 128,-1,89
 601 1315 601 1315 601 1286 c 2,90,-1
 601 1067 l 1,91,-1
 650 1067 l 2,92,93
 751 1067 751 1067 786.5 1102 c 128,-1,94
 822 1137 822 1137 822 1202 c 0,95,96
 822 1281 822 1281 789.5 1317.5 c 128,-1,97
 757 1354 757 1354 679 1354 c 0,98,87
 645 1354 645 1354 629 1348.5 c 128,-1,88
EndSplineSet
EndChar
StartChar: macron
Encoding: 175 175 801
Width: 741
Flags: W
LayerCount: 2
Back
Fore
SplineSet
50 1407 m 1,0,-1
 50 1458 l 1,1,-1
 689 1458 l 1,2,-1
 689 1407 l 1,3,-1
 50 1407 l 1,0,-1
EndSplineSet
Substitution2: "'case' Case-Sensitive Forms lookup 25 subtable" macron.case
Substitution2: "'smcp' Lowercase to Small Capitals lookup 24 subtable" macron.smcp
Substitution2: "'c2sc' Capitals to Small Capitals lookup 23 subtable" macron.smcp
AlternateSubs2: "'aalt' Access All Alternates lookup 1 subtable" macron.smcp macron.case
EndChar
StartChar: degree
Encoding: 176 176 769
Width: 682
Flags: W
LayerCount: 2
Back
Fore
SplineSet
463.5 1649 m 128,-1,1
 521 1619 521 1619 555 1563 c 128,-1,2
 589 1507 589 1507 589 1434 c 0,3,4
 589 1359 589 1359 555 1303 c 128,-1,5
 521 1247 521 1247 463.5 1216.5 c 128,-1,6
 406 1186 406 1186 339 1186 c 0,7,8
 273 1186 273 1186 216 1216.5 c 128,-1,9
 159 1247 159 1247 125 1303.5 c 128,-1,10
 91 1360 91 1360 91 1434 c 0,11,12
 91 1507 91 1507 125 1563 c 128,-1,13
 159 1619 159 1619 216 1649 c 128,-1,14
 273 1679 273 1679 339 1679 c 0,15,0
 406 1679 406 1679 463.5 1649 c 128,-1,1
245.5 1620 m 128,-1,17
 200 1595 200 1595 171 1546.5 c 128,-1,18
 142 1498 142 1498 142 1432 c 0,19,20
 142 1364 142 1364 171 1316 c 128,-1,21
 200 1268 200 1268 245 1244.5 c 128,-1,22
 290 1221 290 1221 339 1221 c 256,23,24
 388 1221 388 1221 433.5 1244.5 c 128,-1,25
 479 1268 479 1268 508.5 1316 c 128,-1,26
 538 1364 538 1364 538 1432 c 0,27,28
 538 1498 538 1498 508.5 1546.5 c 128,-1,29
 479 1595 479 1595 433 1620 c 128,-1,30
 387 1645 387 1645 339 1645 c 256,31,16
 291 1645 291 1645 245.5 1620 c 128,-1,17
EndSplineSet
EndChar
StartChar: twosuperior
Encoding: 178 178 636
Width: 692
Flags: W
LayerCount: 2
Back
Fore
SplineSet
504 1507 m 128,-1,1
 560 1468 560 1468 560 1393 c 0,2,3
 560 1339 560 1339 531 1291 c 128,-1,4
 502 1243 502 1243 460.5 1206 c 128,-1,5
 419 1169 419 1169 350 1116 c 0,6,7
 260 1046 260 1046 228 1012 c 1,8,-1
 499 1012 l 2,9,10
 530 1012 530 1012 548 1019.5 c 128,-1,11
 566 1027 566 1027 575 1041 c 128,-1,12
 584 1055 584 1055 595 1081 c 1,13,-1
 630 1075 l 1,14,15
 602 971 602 971 599 891 c 1,16,17
 574 897 574 897 521 897 c 2,18,-1
 71 897 l 1,19,-1
 71 938 l 1,20,21
 97 961 97 961 152 1001 c 0,22,23
 238 1066 238 1066 293.5 1115.5 c 128,-1,24
 349 1165 349 1165 390 1229.5 c 128,-1,25
 431 1294 431 1294 431 1366 c 0,26,27
 431 1477 431 1477 298 1477 c 0,28,29
 174 1477 174 1477 103 1366 c 1,30,-1
 73 1382 l 1,31,32
 111 1453 111 1453 182.5 1499.5 c 128,-1,33
 254 1546 254 1546 355 1546 c 0,34,0
 448 1546 448 1546 504 1507 c 128,-1,1
EndSplineSet
EndChar
StartChar: acute
Encoding: 180 180 791
Width: 457
Flags: W
LayerCount: 2
Back
Fore
SplineSet
414 1608 m 0,1,2
 414 1575 414 1575 386 1538 c 0,3,4
 357 1501 357 1501 269 1424 c 0,5,6
 139 1308 139 1308 62 1227 c 1,7,-1
 40 1245 l 1,8,9
 106 1348 106 1348 181 1494 c 0,10,11
 236 1599 236 1599 263 1634 c 0,12,13
 298 1680 298 1680 341 1680 c 0,14,15
 366 1680 366 1680 386 1665 c 0,16,0
 414 1642 414 1642 414 1608 c 0,1,2
EndSplineSet
Substitution2: "'case' Case-Sensitive Forms lookup 25 subtable" acute.case
Substitution2: "'smcp' Lowercase to Small Capitals lookup 24 subtable" acute.smcp
Substitution2: "'c2sc' Capitals to Small Capitals lookup 23 subtable" acute.smcp
Substitution2: "'locl' Localized Forms in Latin lookup 7 subtable" acute.loclPLK
AlternateSubs2: "'aalt' Access All Alternates lookup 1 subtable" acute.loclPLK acute.smcp acute.case
EndChar
StartChar: paragraph
Encoding: 182 182 771
Width: 1321
Flags: W
LayerCount: 2
Back
Fore
SplineSet
970 1448 m 0,1,2
 1117 1445 1117 1445 1113 1445 c 1,3,4
 1185 1445 1185 1445 1236 1450 c 1,5,-1
 1236 1411 l 1,6,7
 1171 1408 1171 1408 1137 1392.5 c 128,-1,8
 1103 1377 1103 1377 1090.5 1348.5 c 128,-1,9
 1078 1320 1078 1320 1078 1272 c 2,10,-1
 1078 -154 l 2,11,12
 1078 -231 1078 -231 1090.5 -266 c 128,-1,13
 1103 -301 1103 -301 1136.5 -314 c 128,-1,14
 1170 -327 1170 -327 1244 -330 c 1,15,-1
 1244 -371 l 1,16,17
 1150 -365 1150 -365 984 -365 c 0,18,19
 780 -365 780 -365 681 -371 c 1,20,-1
 681 -330 l 1,21,22
 768 -327 768 -327 811.5 -308.5 c 128,-1,23
 855 -290 855 -290 871.5 -250 c 128,-1,24
 888 -210 888 -210 888 -133 c 2,25,-1
 888 -27 l 1,26,27
 459 -27 459 -27 265 178.5 c 128,-1,28
 71 384 71 384 71 737 c 0,29,30
 71 947 71 947 158.5 1109 c 128,-1,31
 246 1271 246 1271 411.5 1361.5 c 128,-1,32
 577 1452 577 1452 804 1452 c 0,33,0
 864 1452 864 1452 970 1448 c 0,1,2
868 1256 m 128,-1,35
 853 1169 853 1169 840.5 1033 c 128,-1,36
 828 897 828 897 826 750 c 1,37,38
 682 750 682 750 551 744 c 128,-1,39
 420 738 420 738 336.5 730 c 128,-1,40
 253 722 253 722 253 719 c 0,41,42
 253 715 253 715 335 708 c 128,-1,43
 417 701 417 701 548.5 695.5 c 128,-1,44
 680 690 680 690 826 690 c 1,45,46
 828 537 828 537 840.5 402 c 128,-1,47
 853 267 853 267 868 182.5 c 128,-1,48
 883 98 883 98 890 98 c 1,49,-1
 890 1343 l 1,50,34
 883 1343 883 1343 868 1256 c 128,-1,35
EndSplineSet
Substitution2: "'smcp' Lowercase to Small Capitals lookup 24 subtable" paragraph.smcp
Substitution2: "'c2sc' Capitals to Small Capitals lookup 23 subtable" paragraph.smcp
Substitution2: "'aalt' Access All Alternates lookup 0 subtable" paragraph.smcp
EndChar
StartChar: cedilla
Encoding: 184 184 794
Width: 467
Flags: W
LayerCount: 2
Back
Fore
SplineSet
296 -133 m 0,1,2
 354 -133 354 -133 387.5 -158.5 c 128,-1,3
 421 -184 421 -184 421 -229 c 0,4,5
 421 -283 421 -283 385.5 -318 c 128,-1,6
 350 -353 350 -353 297 -369 c 128,-1,7
 244 -385 244 -385 189 -385 c 0,8,9
 84 -385 84 -385 19 -362 c 1,10,-1
 28 -326 l 1,11,12
 70 -332 70 -332 105 -332 c 0,13,14
 179 -332 179 -332 234.5 -310.5 c 128,-1,15
 290 -289 290 -289 290 -240 c 0,16,17
 290 -182 290 -182 204 -182 c 0,18,19
 145 -182 145 -182 103 -197 c 1,20,-1
 173 12 l 1,21,-1
 228 12 l 1,22,-1
 175 -147 l 1,23,0
 236 -133 236 -133 296 -133 c 0,1,2
EndSplineSet
Substitution2: "'case' Case-Sensitive Forms lookup 25 subtable" cedilla.case
Substitution2: "'smcp' Lowercase to Small Capitals lookup 24 subtable" cedilla.smcp
Substitution2: "'c2sc' Capitals to Small Capitals lookup 23 subtable" cedilla.smcp
AlternateSubs2: "'aalt' Access All Alternates lookup 1 subtable" cedilla.smcp cedilla.case
EndChar
StartChar: onesuperior
Encoding: 185 185 635
Width: 539
Flags: W
LayerCount: 2
Back
Fore
SplineSet
377.5 976.5 m 128,-1,1
 391 955 391 955 420 946.5 c 128,-1,2
 449 938 449 938 501 938 c 1,3,-1
 501 895 l 1,4,5
 423 899 423 899 302 899 c 0,6,7
 169 899 169 899 83 895 c 1,8,-1
 83 938 l 1,9,10
 159 938 159 938 197 959.5 c 128,-1,11
 235 981 235 981 235 1038 c 2,12,-1
 235 1303 l 2,13,14
 235 1362 235 1362 220.5 1390 c 128,-1,15
 206 1418 206 1418 172.5 1427 c 128,-1,16
 139 1436 139 1436 69 1436 c 1,17,-1
 69 1479 l 1,18,19
 174 1481 174 1481 241.5 1495 c 128,-1,20
 309 1509 309 1509 364 1542 c 1,21,-1
 364 1038 l 2,22,0
 364 998 364 998 377.5 976.5 c 128,-1,1
EndSplineSet
EndChar
StartChar: ordmasculine
Encoding: 186 186 422
Width: 930
GlyphClass: 2
Flags: W
LayerCount: 2
Back
Fore
SplineSet
640 1436 m 128,-1,1
 723 1393 723 1393 774.5 1309 c 128,-1,2
 826 1225 826 1225 826 1108 c 256,3,4
 826 991 826 991 774.5 907 c 128,-1,5
 723 823 723 823 640 780 c 128,-1,6
 557 737 557 737 464 737 c 256,7,8
 371 737 371 737 287.5 780 c 128,-1,9
 204 823 204 823 152.5 907 c 128,-1,10
 101 991 101 991 101 1108 c 256,11,12
 101 1225 101 1225 152.5 1309 c 128,-1,13
 204 1393 204 1393 287.5 1436 c 128,-1,14
 371 1479 371 1479 464 1479 c 256,15,0
 557 1479 557 1479 640 1436 c 128,-1,1
365.5 1407 m 128,-1,17
 322 1372 322 1372 296.5 1297 c 128,-1,18
 271 1222 271 1222 271 1108 c 256,19,20
 271 994 271 994 296.5 919 c 128,-1,21
 322 844 322 844 365.5 809 c 128,-1,22
 409 774 409 774 464 774 c 0,23,24
 518 774 518 774 561.5 809 c 128,-1,25
 605 844 605 844 630.5 919 c 128,-1,26
 656 994 656 994 656 1108 c 256,27,28
 656 1222 656 1222 630.5 1297 c 128,-1,29
 605 1372 605 1372 561.5 1407 c 128,-1,30
 518 1442 518 1442 464 1442 c 0,31,16
 409 1442 409 1442 365.5 1407 c 128,-1,17
EndSplineSet
EndChar
StartChar: guillemotright
Encoding: 187 187 658
Width: 1026
Flags: W
LayerCount: 2
Back
Fore
SplineSet
332.5 749.5 m 128,-1,1
 445 614 445 614 603 526 c 1,2,-1
 603 524 l 1,3,4
 445 436 445 436 332.5 300.5 c 128,-1,5
 220 165 220 165 132 -31 c 1,6,-1
 97 -16 l 1,7,8
 169 175 169 175 252.5 297 c 128,-1,9
 336 419 336 419 450 518 c 1,10,11
 340 614 340 614 255.5 743 c 128,-1,12
 171 872 171 872 97 1067 c 1,13,-1
 132 1081 l 1,14,0
 220 885 220 885 332.5 749.5 c 128,-1,1
690.5 749.5 m 128,-1,16
 803 614 803 614 962 526 c 1,17,-1
 962 524 l 1,18,19
 803 436 803 436 690.5 300.5 c 128,-1,20
 578 165 578 165 491 -31 c 1,21,-1
 456 -16 l 1,22,23
 527 174 527 174 610.5 296.5 c 128,-1,24
 694 419 694 419 808 518 c 1,25,26
 698 614 698 614 613.5 743.5 c 128,-1,27
 529 873 529 873 456 1067 c 1,28,-1
 491 1081 l 1,29,15
 578 885 578 885 690.5 749.5 c 128,-1,16
EndSplineSet
Substitution2: "'case' Case-Sensitive Forms lookup 25 subtable" guillemotright.case
Substitution2: "'smcp' Lowercase to Small Capitals lookup 24 subtable" guillemotright.smcp
Substitution2: "'c2sc' Capitals to Small Capitals lookup 23 subtable" guillemotright.smcp
AlternateSubs2: "'aalt' Access All Alternates lookup 1 subtable" guillemotright.smcp guillemotright.case
EndChar
StartChar: questiondown
Encoding: 191 191 683
Width: 928
Flags: W
LayerCount: 2
Back
Fore
SplineSet
607.5 1067.5 m 128,-1,1
 638 1050 638 1050 655.5 1019.5 c 128,-1,2
 673 989 673 989 673 954 c 256,3,4
 673 919 673 919 655.5 889 c 128,-1,5
 638 859 638 859 607.5 841 c 128,-1,6
 577 823 577 823 542 823 c 256,7,8
 507 823 507 823 476.5 841 c 128,-1,9
 446 859 446 859 428.5 889 c 128,-1,10
 411 919 411 919 411 954 c 256,11,12
 411 989 411 989 428.5 1019.5 c 128,-1,13
 446 1050 446 1050 476.5 1067.5 c 128,-1,14
 507 1085 507 1085 542 1085 c 256,15,0
 577 1085 577 1085 607.5 1067.5 c 128,-1,1
364 276.5 m 128,-1,17
 294 219 294 219 269.5 153 c 128,-1,18
 245 87 245 87 245 2 c 0,19,20
 245 -174 245 -174 321 -259 c 128,-1,21
 397 -344 397 -344 531 -344 c 0,22,23
 674 -344 674 -344 732 -291 c 1,24,25
 692 -283 692 -283 669 -256.5 c 128,-1,26
 646 -230 646 -230 646 -186 c 0,27,28
 646 -136 646 -136 678.5 -106 c 128,-1,29
 711 -76 711 -76 759 -76 c 0,30,31
 806 -76 806 -76 836.5 -106.5 c 128,-1,32
 867 -137 867 -137 867 -184 c 0,33,34
 867 -269 867 -269 771 -326 c 0,35,36
 670 -385 670 -385 493 -385 c 0,37,38
 365 -385 365 -385 267.5 -343 c 128,-1,39
 170 -301 170 -301 116 -222.5 c 128,-1,40
 62 -144 62 -144 62 -37 c 0,41,42
 62 124 62 124 186.5 236 c 128,-1,43
 311 348 311 348 523 397 c 1,44,-1
 523 655 l 1,45,-1
 564 655 l 1,46,-1
 564 379 l 1,47,16
 434 334 434 334 364 276.5 c 128,-1,17
EndSplineSet
Substitution2: "'case' Case-Sensitive Forms lookup 25 subtable" questiondown.case
Substitution2: "'smcp' Lowercase to Small Capitals lookup 24 subtable" questiondown.smcp
Substitution2: "'c2sc' Capitals to Small Capitals lookup 23 subtable" questiondown.smcp
AlternateSubs2: "'aalt' Access All Alternates lookup 1 subtable" questiondown.smcp questiondown.case
EndChar
StartChar: AE
Encoding: 198 198 12
Width: 1749
GlyphClass: 2
Flags: W
AnchorPoint: "Anchor-5" 0 0 basechar 0
AnchorPoint: "Anchor-4" 874 1450 basechar 0
AnchorPoint: "Anchor-3" 0 0 basechar 0
LayerCount: 2
Back
Fore
SplineSet
1651 0 m 1,1,2
 1524 6 1524 6 1223 6 c 0,3,4
 901 6 901 6 731 0 c 1,5,-1
 731 41 l 1,6,7
 788 44 788 44 813 57 c 128,-1,8
 838 70 838 70 847 105 c 128,-1,9
 856 140 856 140 856 217 c 2,10,-1
 856 709 l 1,11,-1
 498 709 l 1,12,-1
 199 213 l 2,13,14
 161 149 161 149 161 113 c 256,15,16
 161 77 161 77 196 60.5 c 128,-1,17
 231 44 231 44 303 41 c 1,18,-1
 303 0 l 1,19,20
 241 6 241 6 117 6 c 0,21,22
 31 6 31 6 -20 0 c 1,23,-1
 -20 41 l 1,24,25
 13 43 13 43 46 72.5 c 128,-1,26
 79 102 79 102 121 172 c 2,27,-1
 839 1356 l 1,28,29
 824 1385 824 1385 791 1395.5 c 128,-1,30
 758 1406 758 1406 690 1409 c 1,31,-1
 690 1450 l 1,32,33
 751 1448 751 1448 893 1446 c 1,34,-1
 975 1581 l 1,35,-1
 1024 1581 l 1,36,-1
 942 1445 l 1,37,38
 1025 1444 1025 1444 1096.5 1444 c 128,-1,39
 1168 1444 1168 1444 1223 1444 c 0,40,41
 1495 1444 1495 1444 1610 1450 c 1,42,43
 1595 1319 1595 1319 1595 1208 c 0,44,45
 1595 1124 1595 1124 1602 1081 c 1,46,-1
 1554 1081 l 1,47,48
 1543 1213 1543 1213 1525.5 1278.5 c 128,-1,49
 1508 1344 1508 1344 1466.5 1373.5 c 128,-1,50
 1425 1403 1425 1403 1341 1403 c 2,51,-1
 1212 1403 l 2,52,53
 1138 1403 1138 1403 1105 1391 c 128,-1,54
 1072 1379 1072 1379 1059.5 1344.5 c 128,-1,55
 1047 1310 1047 1310 1047 1233 c 2,56,-1
 1047 750 l 1,57,-1
 1196 750 l 2,58,59
 1253 750 1253 750 1283 778.5 c 128,-1,60
 1313 807 1313 807 1324 846 c 128,-1,61
 1335 885 1335 885 1341 942 c 0,62,63
 1342 951 1342 951 1343 960 c 128,-1,64
 1344 969 1344 969 1346 979 c 1,65,-1
 1393 979 l 1,66,67
 1385 875 1385 875 1385 808 c 2,68,-1
 1386 729 l 2,69,70
 1386 655 1386 655 1399 479 c 1,71,-1
 1352 479 l 1,72,-1
 1349 503 l 2,73,74
 1342 572 1342 572 1331 612.5 c 128,-1,75
 1320 653 1320 653 1288.5 681 c 128,-1,76
 1257 709 1257 709 1196 709 c 2,77,-1
 1047 709 l 1,78,-1
 1047 217 l 2,79,80
 1047 140 1047 140 1059.5 105.5 c 128,-1,81
 1072 71 1072 71 1105 59 c 128,-1,82
 1138 47 1138 47 1212 47 c 2,83,-1
 1362 47 l 2,84,85
 1461 47 1461 47 1506 80 c 128,-1,86
 1551 113 1551 113 1566.5 182 c 128,-1,87
 1582 251 1582 251 1595 410 c 1,88,-1
 1642 410 l 1,89,90
 1636 355 1636 355 1636 262 c 0,91,0
 1636 142 1636 142 1651 0 c 1,1,2
856 1233 m 2,92,93
 856 1271 856 1271 853 1298 c 1,94,-1
 523 750 l 1,95,-1
 856 750 l 1,96,-1
 856 1233 l 2,92,93
EndSplineSet
Substitution2: "'c2sc' Capitals to Small Capitals lookup 23 subtable" ae.smcp
Substitution2: "'aalt' Access All Alternates lookup 0 subtable" ae.smcp
Position2: "'cpsp' Capital Spacing lookup 0 subtable" dx=20 dy=0 dh=20 dv=0
EndChar
StartChar: Ccedilla
Encoding: 199 199 17
Width: 1409
GlyphClass: 2
Flags: W
AnchorPoint: "Anchor-5" 766 0 basechar 0
AnchorPoint: "Anchor-4" 745 1450 basechar 0
AnchorPoint: "Anchor-3" 0 0 basechar 0
LayerCount: 2
Back
Fore
SplineSet
1275 0 m 1,1,-1
 1228 0 l 1,2,3
 1223 64 1223 64 1211.5 92.5 c 128,-1,4
 1200 121 1200 121 1178 121 c 0,5,6
 1162 121 1162 121 1136 104 c 0,7,8
 1077 63 1077 63 1027.5 35.5 c 128,-1,9
 978 8 978 8 915.5 -9.5 c 128,-1,10
 853 -27 853 -27 775 -29 c 1,11,-1
 734 -147 l 1,12,13
 795 -133 795 -133 855 -133 c 0,14,15
 913 -133 913 -133 946.5 -158.5 c 128,-1,16
 980 -184 980 -184 980 -229 c 0,17,18
 980 -283 980 -283 944.5 -318 c 128,-1,19
 909 -353 909 -353 856 -369 c 128,-1,20
 803 -385 803 -385 749 -385 c 0,21,22
 644 -385 644 -385 579 -362 c 1,23,-1
 587 -326 l 1,24,25
 629 -332 629 -332 665 -332 c 0,26,27
 739 -332 739 -332 794 -310.5 c 128,-1,28
 849 -289 849 -289 849 -240 c 0,29,30
 849 -182 849 -182 763 -182 c 0,31,32
 705 -182 705 -182 663 -197 c 1,33,-1
 719 -28 l 1,34,35
 535 -19 535 -19 397 71 c 128,-1,36
 259 161 259 161 183.5 325 c 128,-1,37
 108 489 108 489 108 713 c 0,38,39
 108 939 108 939 191 1113 c 128,-1,40
 274 1287 274 1287 422 1383 c 128,-1,41
 570 1479 570 1479 759 1479 c 0,42,43
 881 1479 881 1479 967.5 1444 c 128,-1,44
 1054 1409 1054 1409 1136 1346 c 0,45,46
 1158 1328 1158 1328 1176 1328 c 0,47,48
 1218 1328 1218 1328 1228 1450 c 1,49,-1
 1275 1450 l 1,50,51
 1267 1317 1267 1317 1267 979 c 1,52,-1
 1220 979 l 1,53,54
 1205 1071 1205 1071 1192.5 1122 c 128,-1,55
 1180 1173 1180 1173 1163 1208.5 c 128,-1,56
 1146 1244 1146 1244 1117 1282 c 0,57,58
 1055 1362 1055 1362 960 1402 c 128,-1,59
 865 1442 865 1442 755 1442 c 0,60,61
 622 1442 622 1442 522 1354 c 128,-1,62
 422 1266 422 1266 367 1103 c 128,-1,63
 312 940 312 940 312 721 c 0,64,65
 312 498 312 498 372 338 c 128,-1,66
 432 178 432 178 537 95 c 128,-1,67
 642 12 642 12 775 12 c 0,68,69
 877 12 877 12 974 51 c 128,-1,70
 1071 90 1071 90 1125 168 c 0,71,72
 1167 224 1167 224 1185 289.5 c 128,-1,73
 1203 355 1203 355 1220 492 c 1,74,-1
 1267 492 l 1,75,0
 1267 139 1267 139 1275 0 c 1,1,-1
EndSplineSet
Substitution2: "'c2sc' Capitals to Small Capitals lookup 23 subtable" ccedilla.smcp
Substitution2: "'aalt' Access All Alternates lookup 0 subtable" ccedilla.smcp
Position2: "'cpsp' Capital Spacing lookup 0 subtable" dx=20 dy=0 dh=20 dv=0
EndChar
StartChar: Eth
Encoding: 208 208 21
Width: 1483
GlyphClass: 2
Flags: W
AnchorPoint: "Anchor-5" 0 0 basechar 0
AnchorPoint: "Anchor-4" 647 1450 basechar 0
AnchorPoint: "Anchor-3" 0 0 basechar 0
LayerCount: 2
Back
Fore
SplineSet
1188.5 1269 m 128,-1,1
 1369 1088 1369 1088 1369 741 c 0,2,3
 1369 518 1369 518 1281.5 350.5 c 128,-1,4
 1194 183 1194 183 1027 91.5 c 128,-1,5
 860 0 860 0 628 0 c 0,6,7
 580 0 580 0 508 3 c 0,8,9
 337 6 337 6 341 6 c 1,10,11
 173 6 173 6 87 0 c 1,12,-1
 87 41 l 1,13,14
 161 44 161 44 194.5 57 c 128,-1,15
 228 70 228 70 240.5 105 c 128,-1,16
 253 140 253 140 253 217 c 2,17,-1
 253 709 l 1,18,-1
 87 709 l 1,19,-1
 87 750 l 1,20,-1
 253 750 l 1,21,-1
 253 1233 l 2,22,23
 253 1310 253 1310 240.5 1345 c 128,-1,24
 228 1380 228 1380 194.5 1393 c 128,-1,25
 161 1406 161 1406 87 1409 c 1,26,-1
 87 1450 l 1,27,28
 197 1443 197 1443 287 1443 c 2,29,-1
 337 1444 l 1,30,-1
 421 1446 l 2,31,32
 581 1450 581 1450 646 1450 c 0,33,0
 1008 1450 1008 1450 1188.5 1269 c 128,-1,1
939 116 m 128,-1,35
 1063 195 1063 195 1113.5 346.5 c 128,-1,36
 1164 498 1164 498 1164 733 c 0,37,38
 1164 969 1164 969 1109 1117.5 c 128,-1,39
 1054 1266 1054 1266 929.5 1339.5 c 128,-1,40
 805 1413 805 1413 595 1413 c 0,41,42
 531 1413 531 1413 499 1398.5 c 128,-1,43
 467 1384 467 1384 455 1347 c 128,-1,44
 443 1310 443 1310 443 1237 c 2,45,-1
 443 750 l 1,46,-1
 728 750 l 1,47,-1
 728 709 l 1,48,-1
 443 709 l 1,49,-1
 443 213 l 2,50,51
 443 139 443 139 455 102.5 c 128,-1,52
 467 66 467 66 499.5 51.5 c 128,-1,53
 532 37 532 37 597 37 c 0,54,34
 815 37 815 37 939 116 c 128,-1,35
EndSplineSet
Substitution2: "'c2sc' Capitals to Small Capitals lookup 23 subtable" eth.smcp
Substitution2: "'aalt' Access All Alternates lookup 0 subtable" eth.smcp
Position2: "'cpsp' Capital Spacing lookup 0 subtable" dx=20 dy=0 dh=20 dv=0
EndChar
StartChar: multiply
Encoding: 215 215 736
Width: 1044
Flags: W
LayerCount: 2
Back
Fore
SplineSet
878 1126 m 1,0,-1
 923 1081 l 1,1,-1
 568 729 l 1,2,-1
 923 375 l 1,3,-1
 878 330 l 1,4,-1
 523 684 l 1,5,-1
 167 328 l 1,6,-1
 122 373 l 1,7,-1
 478 727 l 1,8,-1
 120 1085 l 1,9,-1
 165 1130 l 1,10,-1
 523 772 l 1,11,-1
 878 1126 l 1,0,-1
EndSplineSet
EndChar
StartChar: Oslash
Encoding: 216 216 80
Width: 1518
GlyphClass: 2
Flags: W
AnchorPoint: "Anchor-5" 762 0 basechar 0
AnchorPoint: "Anchor-4" 772 1450 basechar 0
AnchorPoint: "Anchor-3" 0 0 basechar 0
LayerCount: 2
Back
Fore
SplineSet
1352.5 1076 m 128,-1,1
 1408 928 1408 928 1408 737 c 0,2,3
 1408 511 1408 511 1325 337 c 128,-1,4
 1242 163 1242 163 1094 67 c 128,-1,5
 946 -29 946 -29 757 -29 c 0,6,7
 523 -29 523 -29 359 98 c 1,8,-1
 192 -150 l 1,9,-1
 149 -121 l 1,10,-1
 321 131 l 1,11,12
 218 228 218 228 163 375.5 c 128,-1,13
 108 523 108 523 108 713 c 0,14,15
 108 939 108 939 191 1113 c 128,-1,16
 274 1287 274 1287 422 1383 c 128,-1,17
 570 1479 570 1479 759 1479 c 0,18,19
 995 1479 995 1479 1157 1352 c 1,20,-1
 1316 1583 l 1,21,-1
 1355 1556 l 1,22,-1
 1194 1320 l 1,23,0
 1297 1224 1297 1224 1352.5 1076 c 128,-1,1
520 1350.5 m 128,-1,25
 420 1259 420 1259 366 1095.5 c 128,-1,26
 312 932 312 932 312 721 c 0,27,28
 312 442 312 442 415 249 c 1,29,-1
 1072 1248 l 1,30,31
 1011 1341 1011 1341 928 1391.5 c 128,-1,32
 845 1442 845 1442 751 1442 c 0,33,24
 620 1442 620 1442 520 1350.5 c 128,-1,25
995.5 99.5 m 128,-1,35
 1095 191 1095 191 1149 354.5 c 128,-1,36
 1203 518 1203 518 1203 729 c 0,37,38
 1203 1011 1203 1011 1100 1201 c 1,39,-1
 445 200 l 1,40,41
 506 107 506 107 588.5 57.5 c 128,-1,42
 671 8 671 8 765 8 c 0,43,34
 896 8 896 8 995.5 99.5 c 128,-1,35
EndSplineSet
Substitution2: "'c2sc' Capitals to Small Capitals lookup 23 subtable" oslash.smcp
Substitution2: "'aalt' Access All Alternates lookup 0 subtable" oslash.smcp
Position2: "'cpsp' Capital Spacing lookup 0 subtable" dx=20 dy=0 dh=20 dv=0
EndChar
StartChar: Thorn
Encoding: 222 222 84
Width: 1188
GlyphClass: 2
Flags: W
AnchorPoint: "Anchor-5" 348 0 basechar 0
AnchorPoint: "Anchor-4" 348 1450 basechar 0
AnchorPoint: "Anchor-3" 608 0 basechar 0
LayerCount: 2
Back
Fore
SplineSet
441 217 m 2,0,1
 441 140 441 140 453.5 105 c 128,-1,2
 466 70 466 70 499.5 57 c 128,-1,3
 533 44 533 44 607 41 c 1,4,-1
 607 0 l 1,5,6
 513 6 513 6 347 6 c 0,7,8
 171 6 171 6 85 0 c 1,9,-1
 85 41 l 1,10,11
 159 44 159 44 192.5 57 c 128,-1,12
 226 70 226 70 238.5 105 c 128,-1,13
 251 140 251 140 251 217 c 2,14,-1
 251 1233 l 2,15,16
 251 1310 251 1310 238.5 1345 c 128,-1,17
 226 1380 226 1380 192.5 1393 c 128,-1,18
 159 1406 159 1406 85 1409 c 1,19,-1
 85 1450 l 1,20,21
 171 1444 171 1444 347 1444 c 0,22,23
 513 1444 513 1444 607 1450 c 1,24,-1
 607 1409 l 1,25,26
 533 1406 533 1406 499.5 1393 c 128,-1,27
 466 1380 466 1380 453.5 1345 c 128,-1,28
 441 1310 441 1310 441 1233 c 2,29,-1
 441 1142 l 1,30,31
 483 1142 483 1142 543 1144 c 2,32,-1
 630 1145 l 2,33,34
 790 1145 790 1145 901 1093 c 128,-1,35
 1012 1041 1012 1041 1067.5 950.5 c 128,-1,36
 1123 860 1123 860 1123 745 c 0,37,38
 1123 629 1123 629 1073.5 524.5 c 128,-1,39
 1024 420 1024 420 903.5 351.5 c 128,-1,40
 783 283 783 283 585 283 c 2,41,-1
 441 283 l 1,42,-1
 441 217 l 2,0,1
441 1104 m 1,44,-1
 441 324 l 1,45,-1
 564 324 l 2,46,47
 765 324 765 324 842 434 c 128,-1,48
 919 544 919 544 919 733 c 0,49,50
 919 921 919 921 839.5 1013.5 c 128,-1,51
 760 1106 760 1106 579 1106 c 0,52,43
 533 1106 533 1106 441 1104 c 1,44,-1
EndSplineSet
Substitution2: "'c2sc' Capitals to Small Capitals lookup 23 subtable" thorn.smcp
Substitution2: "'aalt' Access All Alternates lookup 0 subtable" thorn.smcp
Position2: "'cpsp' Capital Spacing lookup 0 subtable" dx=20 dy=0 dh=20 dv=0
EndChar
StartChar: germandbls
Encoding: 223 223 232
Width: 1196
GlyphClass: 2
Flags: W
LayerCount: 2
Back
Fore
SplineSet
870 1524 m 128,-1,1
 964 1446 964 1446 964 1309 c 0,2,3
 964 1211 964 1211 904.5 1123.5 c 128,-1,4
 845 1036 845 1036 763.5 975 c 128,-1,5
 682 914 682 914 615 887 c 1,6,7
 749 856 749 856 861.5 782 c 128,-1,8
 974 708 974 708 1041.5 598.5 c 128,-1,9
 1109 489 1109 489 1109 358 c 0,10,11
 1109 242 1109 242 1058 154 c 128,-1,12
 1007 66 1007 66 922 18.5 c 128,-1,13
 837 -29 837 -29 738 -29 c 0,14,15
 679 -29 679 -29 621.5 -9.5 c 128,-1,16
 564 10 564 10 526 50 c 128,-1,17
 488 90 488 90 488 147 c 0,18,19
 488 197 488 197 516.5 227.5 c 128,-1,20
 545 258 545 258 595 258 c 0,21,22
 642 258 642 258 673 231 c 128,-1,23
 704 204 704 204 704 158 c 0,24,25
 704 79 704 79 615 51 c 1,26,27
 622 32 622 32 653 17 c 128,-1,28
 684 2 684 2 722 2 c 0,29,30
 774 2 774 2 820.5 33.5 c 128,-1,31
 867 65 867 65 897 136 c 128,-1,32
 927 207 927 207 927 319 c 0,33,34
 927 439 927 439 890 551.5 c 128,-1,35
 853 664 853 664 776 748.5 c 128,-1,36
 699 833 699 833 587 868 c 1,37,38
 538 838 538 838 511 838 c 0,39,40
 495 838 495 838 482.5 847 c 128,-1,41
 470 856 470 856 470 872 c 0,42,43
 470 890 470 890 482 900.5 c 128,-1,44
 494 911 494 911 517 911 c 0,45,46
 548 911 548 911 591 895 c 1,47,48
 692 973 692 973 735.5 1069 c 128,-1,49
 779 1165 779 1165 779 1300 c 0,50,51
 779 1431 779 1431 728 1501 c 128,-1,52
 677 1571 677 1571 579 1571 c 0,53,54
 501 1571 501 1571 441.5 1509 c 128,-1,55
 382 1447 382 1447 382 1278 c 2,56,-1
 382 -23 l 1,57,58
 301 6 301 6 169 6 c 0,59,60
 107 6 107 6 42 0 c 1,61,-1
 42 43 l 1,62,63
 129 43 129 43 163.5 85.5 c 128,-1,64
 198 128 198 128 198 223 c 2,65,-1
 198 1102 l 2,66,67
 198 1364 198 1364 305 1483 c 128,-1,68
 412 1602 412 1602 601 1602 c 0,69,0
 776 1602 776 1602 870 1524 c 128,-1,1
EndSplineSet
Substitution2: "'smcp' Lowercase to Small Capitals lookup 24 subtable" germandbls.smcp
Substitution2: "'aalt' Access All Alternates lookup 0 subtable" germandbls.smcp
EndChar
StartChar: ae
Encoding: 230 230 144
Width: 1520
GlyphClass: 2
Flags: W
AnchorPoint: "Anchor-5" 0 0 basechar 0
AnchorPoint: "Anchor-4" 760 1053 basechar 0
AnchorPoint: "Anchor-3" 0 0 basechar 0
LayerCount: 2
Back
Fore
SplineSet
1267 104.5 m 128,-1,1
 1332 152 1332 152 1377 262 c 1,2,-1
 1418 246 l 1,3,4
 1396 174 1396 174 1349.5 111.5 c 128,-1,5
 1303 49 1303 49 1233 10 c 128,-1,6
 1163 -29 1163 -29 1076 -29 c 0,7,8
 936 -29 936 -29 839.5 38.5 c 128,-1,9
 743 106 743 106 696 233 c 1,10,11
 581 -29 581 -29 345 -29 c 0,12,13
 276 -29 276 -29 216.5 -5.5 c 128,-1,14
 157 18 157 18 120 68.5 c 128,-1,15
 83 119 83 119 83 197 c 0,16,17
 83 280 83 280 121 339.5 c 128,-1,18
 159 399 159 399 226.5 442 c 128,-1,19
 294 485 294 485 402 532 c 2,20,-1
 443 550 l 2,21,22
 521 584 521 584 560.5 604 c 128,-1,23
 600 624 600 624 624 649.5 c 128,-1,24
 648 675 648 675 648 709 c 2,25,-1
 648 836 l 2,26,27
 648 1042 648 1042 448 1042 c 0,28,29
 391 1042 391 1042 337 1025.5 c 128,-1,30
 283 1009 283 1009 251 969 c 1,31,32
 291 960 291 960 314 933 c 128,-1,33
 337 906 337 906 337 864 c 0,34,35
 337 814 337 814 304.5 784 c 128,-1,36
 272 754 272 754 224 754 c 0,37,38
 177 754 177 754 146.5 784.5 c 128,-1,39
 116 815 116 815 116 862 c 0,40,41
 116 944 116 944 212 1010 c 0,42,43
 319 1083 319 1083 493 1083 c 0,44,45
 595 1083 595 1083 667 1053.5 c 128,-1,46
 739 1024 739 1024 779 953 c 1,47,48
 886 1083 886 1083 1068 1083 c 0,49,50
 1242 1083 1242 1083 1336.5 971.5 c 128,-1,51
 1431 860 1431 860 1431 633 c 1,52,-1
 835 633 l 1,53,54
 828 578 828 578 828 502 c 0,55,56
 828 367 828 367 868.5 266 c 128,-1,57
 909 165 909 165 975.5 111 c 128,-1,58
 1042 57 1042 57 1117 57 c 0,59,0
 1202 57 1202 57 1267 104.5 c 128,-1,1
954 1004 m 128,-1,61
 906 964 906 964 873.5 880.5 c 128,-1,62
 841 797 841 797 831 672 c 1,63,-1
 1234 672 l 1,64,65
 1237 775 1237 775 1218.5 859.5 c 128,-1,66
 1200 944 1200 944 1159.5 994 c 128,-1,67
 1119 1044 1119 1044 1060 1044 c 0,68,60
 1002 1044 1002 1044 954 1004 c 128,-1,61
482 520 m 0,70,71
 375 468 375 468 319 401.5 c 128,-1,72
 263 335 263 335 263 231 c 0,73,74
 263 137 263 137 309 95 c 128,-1,75
 355 53 355 53 423 53 c 0,76,77
 565 53 565 53 648 223 c 1,78,-1
 648 625 l 1,79,69
 612 583 612 583 482 520 c 0,70,71
EndSplineSet
Substitution2: "'smcp' Lowercase to Small Capitals lookup 24 subtable" ae.smcp
Substitution2: "'aalt' Access All Alternates lookup 0 subtable" ae.smcp
EndChar
StartChar: ccedilla
Encoding: 231 231 149
Width: 995
GlyphClass: 2
Flags: W
AnchorPoint: "Anchor-5" 549 0 basechar 0
AnchorPoint: "Anchor-4" 539 1053 basechar 0
AnchorPoint: "Anchor-3" 0 0 basechar 0
LayerCount: 2
Back
Fore
SplineSet
527 -29 m 1,0,-1
 488 -147 l 1,1,2
 549 -133 549 -133 609 -133 c 0,3,4
 667 -133 667 -133 700.5 -158.5 c 128,-1,5
 734 -184 734 -184 734 -229 c 0,6,7
 734 -283 734 -283 698.5 -318 c 128,-1,8
 663 -353 663 -353 610 -369 c 128,-1,9
 557 -385 557 -385 502 -385 c 0,10,11
 397 -385 397 -385 332 -362 c 1,12,-1
 341 -326 l 1,13,14
 383 -332 383 -332 418 -332 c 0,15,16
 492 -332 492 -332 547.5 -310.5 c 128,-1,17
 603 -289 603 -289 603 -240 c 0,18,19
 603 -182 603 -182 517 -182 c 0,20,21
 458 -182 458 -182 416 -197 c 1,22,-1
 474 -23 l 1,23,24
 364 -5 364 -5 277.5 64.5 c 128,-1,25
 191 134 191 134 142 249.5 c 128,-1,26
 93 365 93 365 93 514 c 0,27,28
 93 680 93 680 153.5 809.5 c 128,-1,29
 214 939 214 939 323 1011 c 128,-1,30
 432 1083 432 1083 570 1083 c 256,31,32
 708 1083 708 1083 808 1018 c 0,33,34
 904 953 904 953 904 860 c 0,35,36
 904 806 904 806 873.5 775.5 c 128,-1,37
 843 745 843 745 796 745 c 0,38,39
 748 745 748 745 715.5 772.5 c 128,-1,40
 683 800 683 800 683 848 c 0,41,42
 683 892 683 892 707.5 921.5 c 128,-1,43
 732 951 732 951 769 961 c 1,44,45
 749 998 749 998 696 1022.5 c 128,-1,46
 643 1047 643 1047 585 1047 c 0,47,48
 510 1047 510 1047 444 999 c 128,-1,49
 378 951 378 951 335 839 c 128,-1,50
 292 727 292 727 292 545 c 0,51,52
 292 290 292 290 374 174.5 c 128,-1,53
 456 59 456 59 587 59 c 0,54,55
 674 59 674 59 753.5 110 c 128,-1,56
 833 161 833 161 884 270 c 1,57,-1
 923 256 l 1,58,59
 900 183 900 183 852 118.5 c 128,-1,60
 804 54 804 54 726.5 12.5 c 128,-1,61
 649 -29 649 -29 546 -29 c 2,62,-1
 527 -29 l 1,0,-1
EndSplineSet
Substitution2: "'smcp' Lowercase to Small Capitals lookup 24 subtable" ccedilla.smcp
Substitution2: "'aalt' Access All Alternates lookup 0 subtable" ccedilla.smcp
EndChar
StartChar: eth
Encoding: 240 240 153
Width: 1135
GlyphClass: 2
Flags: W
LayerCount: 2
Back
Fore
SplineSet
1019 618 m 0,1,2
 1019 407 1019 407 954 261 c 128,-1,3
 889 115 889 115 783 43 c 128,-1,4
 677 -29 677 -29 552 -29 c 0,5,6
 416 -29 416 -29 312.5 33.5 c 128,-1,7
 209 96 209 96 151 219.5 c 128,-1,8
 93 343 93 343 93 522 c 0,9,10
 93 663 93 663 145 792 c 128,-1,11
 197 921 197 921 298 1002 c 128,-1,12
 399 1083 399 1083 540 1083 c 0,13,14
 707 1083 707 1083 785 977 c 1,15,16
 725 1221 725 1221 567 1373 c 1,17,-1
 198 1192 l 1,18,-1
 179 1229 l 1,19,-1
 535 1402 l 1,20,21
 435 1487 435 1487 265 1567 c 1,22,-1
 282 1602 l 1,23,24
 470 1527 470 1527 601 1434 c 1,25,-1
 890 1575 l 1,26,-1
 908 1538 l 1,27,-1
 638 1407 l 1,28,0
 1019 1118 1019 1118 1019 618 c 0,1,2
744.5 152 m 128,-1,30
 824 292 824 292 824 618 c 0,31,32
 824 693 824 693 820 749 c 0,33,34
 785 1040 785 1040 554 1040 c 0,35,36
 435 1040 435 1040 363.5 916 c 128,-1,37
 292 792 292 792 292 518 c 0,38,39
 292 342 292 342 325.5 229 c 128,-1,40
 359 116 359 116 415.5 64 c 128,-1,41
 472 12 472 12 542 12 c 0,42,29
 665 12 665 12 744.5 152 c 128,-1,30
EndSplineSet
Substitution2: "'smcp' Lowercase to Small Capitals lookup 24 subtable" eth.smcp
Substitution2: "'aalt' Access All Alternates lookup 0 subtable" eth.smcp
EndChar
StartChar: divide
Encoding: 247 247 726
Width: 1329
Flags: W
LayerCount: 2
Back
Fore
SplineSet
743.5 1101.5 m 128,-1,1
 777 1068 777 1068 777 1022 c 0,2,3
 777 974 777 974 744 941.5 c 128,-1,4
 711 909 711 909 663 909 c 0,5,6
 616 909 616 909 583 941.5 c 128,-1,7
 550 974 550 974 550 1022 c 0,8,9
 550 1068 550 1068 583.5 1101.5 c 128,-1,10
 617 1135 617 1135 663 1135 c 0,11,0
 710 1135 710 1135 743.5 1101.5 c 128,-1,1
149 696 m 1,12,-1
 149 758 l 1,13,-1
 1175 758 l 1,14,-1
 1175 696 l 1,15,-1
 149 696 l 1,12,-1
743.5 512 m 128,-1,17
 777 479 777 479 777 432 c 256,18,19
 777 385 777 385 743.5 351 c 128,-1,20
 710 317 710 317 663 317 c 0,21,22
 617 317 617 317 583.5 351 c 128,-1,23
 550 385 550 385 550 432 c 256,24,25
 550 479 550 479 583.5 512 c 128,-1,26
 617 545 617 545 663 545 c 0,27,16
 710 545 710 545 743.5 512 c 128,-1,17
EndSplineSet
EndChar
StartChar: oslash
Encoding: 248 248 216
Width: 1120
GlyphClass: 2
Flags: W
AnchorPoint: "Anchor-5" 561 0 basechar 0
AnchorPoint: "Anchor-4" 567 1053 basechar 0
AnchorPoint: "Anchor-3" 0 0 basechar 0
LayerCount: 2
Back
Fore
SplineSet
1025 526 m 0,1,2
 1025 336 1025 336 964.5 212 c 128,-1,3
 904 88 904 88 799.5 29.5 c 128,-1,4
 695 -29 695 -29 560 -29 c 0,5,6
 390 -29 390 -29 275 60 c 1,7,-1
 132 -150 l 1,8,-1
 89 -121 l 1,9,-1
 237 94 l 1,10,11
 95 239 95 239 95 526 c 0,12,13
 95 716 95 716 155.5 840.5 c 128,-1,14
 216 965 216 965 320.5 1024 c 128,-1,15
 425 1083 425 1083 560 1083 c 0,16,17
 734 1083 734 1083 849 990 c 1,18,-1
 994 1202 l 1,19,-1
 1033 1176 l 1,20,-1
 885 957 l 1,21,0
 1025 814 1025 814 1025 526 c 0,1,2
365.5 916 m 128,-1,23
 294 790 294 790 294 526 c 0,24,25
 294 334 294 334 335 211 c 1,26,-1
 766 894 l 1,27,28
 698 1042 698 1042 560 1042 c 0,29,22
 437 1042 437 1042 365.5 916 c 128,-1,23
754.5 137.5 m 128,-1,31
 826 263 826 263 826 526 c 0,32,33
 826 715 826 715 787 837 c 1,34,-1
 358 153 l 1,35,36
 426 12 426 12 560 12 c 0,37,30
 683 12 683 12 754.5 137.5 c 128,-1,31
EndSplineSet
Substitution2: "'smcp' Lowercase to Small Capitals lookup 24 subtable" oslash.smcp
Substitution2: "'aalt' Access All Alternates lookup 0 subtable" oslash.smcp
EndChar
StartChar: thorn
Encoding: 254 254 220
Width: 1145
GlyphClass: 2
Flags: W
LayerCount: 2
Back
Fore
SplineSet
863.5 1024 m 128,-1,1
 950 965 950 965 999.5 850 c 128,-1,2
 1049 735 1049 735 1049 575 c 0,3,4
 1049 418 1049 418 999 280.5 c 128,-1,5
 949 143 949 143 843.5 57 c 128,-1,6
 738 -29 738 -29 580 -29 c 0,7,8
 502 -29 502 -29 439 1.5 c 128,-1,9
 376 32 376 32 340 82 c 1,10,-1
 340 -180 l 2,11,12
 340 -263 340 -263 389 -295.5 c 128,-1,13
 438 -328 438 -328 537 -328 c 1,14,-1
 537 -371 l 1,15,-1
 479 -369 l 2,16,17
 332 -362 332 -362 242 -362 c 0,18,19
 171 -362 171 -362 59 -369 c 0,20,21
 29 -371 29 -371 20 -371 c 1,22,-1
 20 -328 l 1,23,24
 71 -328 71 -328 100 -316.5 c 128,-1,25
 129 -305 129 -305 142.5 -277.5 c 128,-1,26
 156 -250 156 -250 156 -201 c 2,27,-1
 156 1358 l 2,28,29
 156 1453 156 1453 121.5 1495.5 c 128,-1,30
 87 1538 87 1538 0 1538 c 1,31,-1
 0 1581 l 1,32,33
 64 1575 64 1575 127 1575 c 0,34,35
 259 1575 259 1575 340 1604 c 1,36,-1
 340 861 l 1,37,38
 386 967 386 967 472.5 1025 c 128,-1,39
 559 1083 559 1083 668 1083 c 256,40,0
 777 1083 777 1083 863.5 1024 c 128,-1,1
850 547 m 0,42,43
 850 1022 850 1022 612 1022 c 0,44,45
 519 1022 519 1022 445.5 955.5 c 128,-1,46
 372 889 372 889 340 763 c 1,47,-1
 340 150 l 1,48,49
 370 89 370 89 424.5 53.5 c 128,-1,50
 479 18 479 18 557 18 c 0,51,41
 850 18 850 18 850 547 c 0,42,43
EndSplineSet
Substitution2: "'smcp' Lowercase to Small Capitals lookup 24 subtable" thorn.smcp
Substitution2: "'aalt' Access All Alternates lookup 0 subtable" thorn.smcp
EndChar
StartChar: Aogonek
Encoding: 260 260 9
Width: 1290
GlyphClass: 2
Flags: W
AnchorPoint: "Anchor-5" 0 0 basechar 0
AnchorPoint: "Anchor-4" 633 1450 basechar 0
AnchorPoint: "Anchor-3" 1278 0 basechar 0
LayerCount: 2
Back
Fore
SplineSet
1079 -385 m 0,1,2
 1006 -385 1006 -385 961.5 -348.5 c 128,-1,3
 917 -312 917 -312 917 -252 c 0,4,5
 917 -173 917 -173 989.5 -106 c 128,-1,6
 1062 -39 1062 -39 1196 5 c 1,7,8
 1159 6 1159 6 1083 6 c 0,9,10
 908 6 908 6 821 0 c 1,11,-1
 821 41 l 1,12,13
 899 44 899 44 932.5 60 c 128,-1,14
 966 76 966 76 966 117 c 0,15,16
 966 151 966 151 942 213 c 2,17,-1
 816 549 l 1,18,-1
 322 549 l 1,19,-1
 238 332 l 2,20,21
 197 228 197 228 197 164 c 0,22,23
 197 99 197 99 240.5 71 c 128,-1,24
 284 43 284 43 375 41 c 1,25,-1
 375 0 l 1,26,27
 258 6 258 6 139 6 c 0,28,29
 48 6 48 6 -14 0 c 1,30,-1
 -14 41 l 1,31,32
 88 64 88 64 147 219 c 2,33,-1
 629 1460 l 1,34,-1
 662 1460 l 1,35,-1
 1161 172 l 2,36,37
 1211 45 1211 45 1303 41 c 1,38,-1
 1303 0 l 1,39,-1
 1265 2 l 1,40,41
 1160 -28 1160 -28 1113.5 -83 c 128,-1,42
 1067 -138 1067 -138 1067 -197 c 0,43,44
 1067 -238 1067 -238 1090.5 -262.5 c 128,-1,45
 1114 -287 1114 -287 1155 -287 c 0,46,47
 1192 -287 1192 -287 1225.5 -267.5 c 128,-1,48
 1259 -248 1259 -248 1280 -219 c 1,49,-1
 1310 -246 l 1,50,0
 1219 -385 1219 -385 1079 -385 c 0,1,2
572 1201 m 1,51,-1
 337 590 l 1,52,-1
 801 590 l 1,53,-1
 572 1201 l 1,51,-1
EndSplineSet
Substitution2: "'c2sc' Capitals to Small Capitals lookup 23 subtable" aogonek.smcp
Substitution2: "'aalt' Access All Alternates lookup 0 subtable" aogonek.smcp
Position2: "'cpsp' Capital Spacing lookup 0 subtable" dx=20 dy=0 dh=20 dv=0
EndChar
StartChar: aogonek
Encoding: 261 261 141
Width: 1020
GlyphClass: 2
Flags: W
AnchorPoint: "Anchor-5" 0 0 basechar 0
AnchorPoint: "Anchor-4" 504 1053 basechar 0
AnchorPoint: "Anchor-3" 932 0 basechar 0
LayerCount: 2
Back
Fore
SplineSet
889.5 -267.5 m 128,-1,1
 923 -248 923 -248 944 -219 c 1,2,-1
 974 -246 l 1,3,4
 883 -385 883 -385 743 -385 c 0,5,6
 670 -385 670 -385 625.5 -348.5 c 128,-1,7
 581 -312 581 -312 581 -252 c 0,8,9
 581 -180 581 -180 640.5 -119 c 128,-1,10
 700 -58 700 -58 810 -13 c 1,11,12
 654 -4 654 -4 654 168 c 1,13,14
 594 69 594 69 510 27.5 c 128,-1,15
 426 -14 426 -14 339 -14 c 0,16,17
 268 -14 268 -14 209 10.5 c 128,-1,18
 150 35 150 35 114.5 86.5 c 128,-1,19
 79 138 79 138 79 215 c 0,20,21
 79 293 79 293 117 348 c 128,-1,22
 155 403 155 403 224 444.5 c 128,-1,23
 293 486 293 486 409 535 c 2,24,-1
 449 552 l 2,25,26
 523 581 523 581 563.5 601 c 128,-1,27
 604 621 604 621 629 647.5 c 128,-1,28
 654 674 654 674 654 709 c 2,29,-1
 654 836 l 2,30,31
 654 955 654 955 604.5 998.5 c 128,-1,32
 555 1042 555 1042 464 1042 c 0,33,34
 319 1042 319 1042 261 969 c 1,35,36
 302 959 302 959 329.5 925.5 c 128,-1,37
 357 892 357 892 357 844 c 0,38,39
 357 792 357 792 324.5 762.5 c 128,-1,40
 292 733 292 733 237 733 c 0,41,42
 185 733 185 733 155.5 768 c 128,-1,43
 126 803 126 803 126 860 c 0,44,45
 126 940 126 940 222 1006 c 0,46,47
 272 1039 272 1039 345.5 1061 c 128,-1,48
 419 1083 419 1083 509 1083 c 0,49,50
 593 1083 593 1083 657 1062.5 c 128,-1,51
 721 1042 721 1042 757 1006 c 0,52,53
 804 958 804 958 821.5 894.5 c 128,-1,54
 839 831 839 831 839 719 c 2,55,-1
 839 150 l 2,56,57
 839 99 839 99 853.5 76 c 128,-1,58
 868 53 868 53 902 53 c 0,59,60
 927 53 927 53 948 64 c 128,-1,61
 969 75 969 75 994 96 c 1,62,-1
 1017 61 l 1,63,64
 961 18 961 18 926 4 c 0,65,66
 924 2 924 2 909 -4 c 0,67,68
 731 -80 731 -80 731 -197 c 0,69,70
 731 -238 731 -238 754.5 -262.5 c 128,-1,71
 778 -287 778 -287 819 -287 c 0,72,0
 856 -287 856 -287 889.5 -267.5 c 128,-1,1
604 582 m 128,-1,74
 569 562 569 562 458 508 c 0,75,76
 399 480 399 480 358 450.5 c 128,-1,77
 317 421 317 421 288 371 c 128,-1,78
 259 321 259 321 259 248 c 0,79,80
 259 159 259 159 304 113.5 c 128,-1,81
 349 68 349 68 423 68 c 0,82,83
 559 68 559 68 654 223 c 1,84,-1
 654 625 l 1,85,73
 639 602 639 602 604 582 c 128,-1,74
EndSplineSet
Substitution2: "'smcp' Lowercase to Small Capitals lookup 24 subtable" aogonek.smcp
Substitution2: "'aalt' Access All Alternates lookup 0 subtable" aogonek.smcp
EndChar
StartChar: dcroat
Encoding: 273 273 155
Width: 1190
GlyphClass: 2
Flags: W
LayerCount: 2
Back
Fore
SplineSet
991 223 m 2,0,1
 991 128 991 128 1025.5 85.5 c 128,-1,2
 1060 43 1060 43 1147 43 c 1,3,-1
 1147 0 l 1,4,5
 1082 6 1082 6 1020 6 c 0,6,7
 888 6 888 6 807 -23 c 1,8,-1
 807 159 l 1,9,10
 769 67 769 67 695.5 19 c 128,-1,11
 622 -29 622 -29 516 -29 c 0,12,13
 386 -29 386 -29 292 33 c 128,-1,14
 198 95 198 95 147.5 219 c 128,-1,15
 97 343 97 343 98 526 c 0,16,17
 97 705 97 705 160 831 c 128,-1,18
 223 957 223 957 328.5 1020 c 128,-1,19
 434 1083 434 1083 561 1083 c 0,20,21
 639 1083 639 1083 704 1053.5 c 128,-1,22
 769 1024 769 1024 807 962 c 1,23,-1
 807 1245 l 1,24,-1
 442 1245 l 1,25,-1
 442 1286 l 1,26,-1
 807 1286 l 1,27,-1
 807 1360 l 2,28,29
 807 1455 807 1455 772.5 1497.5 c 128,-1,30
 738 1540 738 1540 651 1540 c 1,31,-1
 651 1583 l 1,32,33
 716 1577 716 1577 778 1577 c 0,34,35
 910 1577 910 1577 991 1606 c 1,36,-1
 991 1286 l 1,37,-1
 1167 1286 l 1,38,-1
 1167 1245 l 1,39,-1
 991 1245 l 1,40,-1
 991 223 l 2,0,1
674.5 60 m 128,-1,42
 722 87 722 87 756.5 140.5 c 128,-1,43
 791 194 791 194 807 269 c 1,44,-1
 807 878 l 1,45,46
 750 1036 750 1036 578 1036 c 0,47,48
 495 1036 495 1036 431.5 979.5 c 128,-1,49
 368 923 368 923 332 808.5 c 128,-1,50
 296 694 296 694 297 526 c 0,51,52
 296 280 296 280 366.5 156.5 c 128,-1,53
 437 33 437 33 575 33 c 0,54,41
 627 33 627 33 674.5 60 c 128,-1,42
EndSplineSet
Substitution2: "'smcp' Lowercase to Small Capitals lookup 24 subtable" dcroat.smcp
Substitution2: "'aalt' Access All Alternates lookup 0 subtable" dcroat.smcp
EndChar
StartChar: Eogonek
Encoding: 280 280 33
Width: 1247
GlyphClass: 2
Flags: W
AnchorPoint: "Anchor-5" 666 0 basechar 0
AnchorPoint: "Anchor-4" 627 1450 basechar 0
AnchorPoint: "Anchor-3" 1149 0 basechar 0
LayerCount: 2
Back
Fore
SplineSet
949 -385 m 0,1,2
 876 -385 876 -385 831.5 -348.5 c 128,-1,3
 787 -312 787 -312 787 -252 c 0,4,5
 787 -173 787 -173 858 -107 c 128,-1,6
 929 -41 929 -41 1061 3 c 1,7,8
 935 6 935 6 679 6 c 0,9,10
 286 6 286 6 85 0 c 1,11,-1
 85 41 l 1,12,13
 159 44 159 44 192.5 57 c 128,-1,14
 226 70 226 70 238.5 105 c 128,-1,15
 251 140 251 140 251 217 c 2,16,-1
 251 1233 l 2,17,18
 251 1310 251 1310 238.5 1345 c 128,-1,19
 226 1380 226 1380 192.5 1393 c 128,-1,20
 159 1406 159 1406 85 1409 c 1,21,-1
 85 1450 l 1,22,23
 286 1444 286 1444 679 1444 c 0,24,25
 980 1444 980 1444 1107 1450 c 1,26,27
 1093 1316 1093 1316 1093 1208 c 0,28,29
 1093 1128 1093 1128 1099 1081 c 1,30,-1
 1052 1081 l 1,31,32
 1037 1214 1037 1214 1014.5 1279 c 128,-1,33
 992 1344 992 1344 938.5 1373.5 c 128,-1,34
 885 1403 885 1403 777 1403 c 2,35,-1
 607 1403 l 2,36,37
 533 1403 533 1403 499.5 1391 c 128,-1,38
 466 1379 466 1379 453.5 1344.5 c 128,-1,39
 441 1310 441 1310 441 1233 c 2,40,-1
 441 750 l 1,41,-1
 577 750 l 2,42,43
 649 750 649 750 687.5 784 c 128,-1,44
 726 818 726 818 739.5 864 c 128,-1,45
 753 910 753 910 762 980 c 0,46,47
 763 998 763 998 767 1020 c 1,48,-1
 814 1020 l 1,49,50
 807 919 807 919 807 827 c 2,51,-1
 808 729 l 2,52,53
 808 625 808 625 820 438 c 1,54,-1
 773 438 l 1,55,-1
 770 467 l 2,56,57
 761 548 761 548 747 596 c 128,-1,58
 733 644 733 644 693.5 676.5 c 128,-1,59
 654 709 654 709 577 709 c 2,60,-1
 441 709 l 1,61,-1
 441 217 l 2,62,63
 441 140 441 140 453.5 105.5 c 128,-1,64
 466 71 466 71 499.5 59 c 128,-1,65
 533 47 533 47 607 47 c 2,66,-1
 757 47 l 2,67,68
 885 47 885 47 951.5 81 c 128,-1,69
 1018 115 1018 115 1047.5 190 c 128,-1,70
 1077 265 1077 265 1093 410 c 1,71,-1
 1140 410 l 1,72,73
 1134 355 1134 355 1134 262 c 0,74,75
 1134 153 1134 153 1147 6 c 0,76,77
 1148 4 1148 4 1148 0 c 2,78,-1
 1130 1 l 1,79,80
 1028 -30 1028 -30 982.5 -84.5 c 128,-1,81
 937 -139 937 -139 937 -197 c 0,82,83
 937 -238 937 -238 960.5 -262.5 c 128,-1,84
 984 -287 984 -287 1025 -287 c 0,85,86
 1062 -287 1062 -287 1095.5 -267.5 c 128,-1,87
 1129 -248 1129 -248 1150 -219 c 1,88,-1
 1180 -246 l 1,89,0
 1089 -385 1089 -385 949 -385 c 0,1,2
EndSplineSet
Substitution2: "'c2sc' Capitals to Small Capitals lookup 23 subtable" eogonek.smcp
Substitution2: "'aalt' Access All Alternates lookup 0 subtable" eogonek.smcp
Position2: "'cpsp' Capital Spacing lookup 0 subtable" dx=20 dy=0 dh=20 dv=0
EndChar
StartChar: eogonek
Encoding: 281 281 165
Width: 1036
GlyphClass: 2
Flags: W
AnchorPoint: "Anchor-5" 571 0 basechar 0
AnchorPoint: "Anchor-4" 555 1053 basechar 0
AnchorPoint: "Anchor-3" 729 0 basechar 0
LayerCount: 2
Back
Fore
SplineSet
528 -197 m 0,1,2
 528 -238 528 -238 551.5 -262.5 c 128,-1,3
 575 -287 575 -287 616 -287 c 0,4,5
 653 -287 653 -287 686.5 -267.5 c 128,-1,6
 720 -248 720 -248 741 -219 c 1,7,-1
 771 -246 l 1,8,9
 680 -385 680 -385 540 -385 c 0,10,11
 467 -385 467 -385 422.5 -348.5 c 128,-1,12
 378 -312 378 -312 378 -252 c 0,13,14
 378 -187 378 -187 427.5 -130 c 128,-1,15
 477 -73 477 -73 571 -29 c 1,16,-1
 564 -29 l 2,17,18
 418 -29 418 -29 311.5 37.5 c 128,-1,19
 205 104 205 104 149 224.5 c 128,-1,20
 93 345 93 345 93 502 c 0,21,22
 93 680 93 680 150 811 c 128,-1,23
 207 942 207 942 311.5 1012.5 c 128,-1,24
 416 1083 416 1083 556 1083 c 0,25,26
 740 1083 740 1083 839.5 971.5 c 128,-1,27
 939 860 939 860 939 633 c 1,28,-1
 299 633 l 1,29,30
 292 578 292 578 292 502 c 0,31,32
 292 367 292 367 336.5 266 c 128,-1,33
 381 165 381 165 453 111 c 128,-1,34
 525 57 525 57 605 57 c 0,35,36
 811 57 811 57 906 262 c 1,37,-1
 947 246 l 1,38,39
 922 168 922 168 862 101.5 c 128,-1,40
 802 35 802 35 718 0 c 1,41,-1
 711 -2 l 1,42,-1
 702 -6 l 2,43,0
 528 -81 528 -81 528 -197 c 0,1,2
432 1003.5 m 128,-1,45
 379 963 379 963 343 879.5 c 128,-1,46
 307 796 307 796 296 672 c 1,47,-1
 742 672 l 1,48,49
 746 774 746 774 725 859 c 128,-1,50
 704 944 704 944 659 994 c 128,-1,51
 614 1044 614 1044 548 1044 c 0,52,44
 485 1044 485 1044 432 1003.5 c 128,-1,45
EndSplineSet
Substitution2: "'smcp' Lowercase to Small Capitals lookup 24 subtable" eogonek.smcp
Substitution2: "'aalt' Access All Alternates lookup 0 subtable" eogonek.smcp
EndChar
StartChar: gcircumflex
Encoding: 285 285 170
Width: 1034
GlyphClass: 2
Flags: W
LayerCount: 2
Back
Fore
SplineSet
319.5 1355.5 m 128,-1,1
 237 1300 237 1300 151 1262 c 1,2,-1
 134 1290 l 1,3,4
 251 1348 251 1348 342.5 1443 c 128,-1,5
 434 1538 434 1538 476 1642 c 1,6,-1
 513 1642 l 1,7,8
 536 1559 536 1559 591.5 1480.5 c 128,-1,9
 647 1402 647 1402 716 1352 c 1,10,-1
 695 1323 l 1,11,12
 629 1349 629 1349 563 1388 c 128,-1,13
 497 1427 497 1427 454 1466 c 1,14,0
 402 1411 402 1411 319.5 1355.5 c 128,-1,1
998 29 m 0,16,17
 998 -71 998 -71 934.5 -166.5 c 128,-1,18
 871 -262 871 -262 743 -323.5 c 128,-1,19
 615 -385 615 -385 433 -385 c 0,20,21
 333 -385 333 -385 246 -363 c 128,-1,22
 159 -341 159 -341 106.5 -300 c 128,-1,23
 54 -259 54 -259 54 -205 c 0,24,25
 54 -64 54 -64 311 49 c 1,26,-1
 304 49 l 2,27,28
 229 49 229 49 164 83.5 c 128,-1,29
 99 118 99 118 99 207 c 0,30,31
 99 275 99 275 150 335 c 128,-1,32
 201 395 201 395 322 462 c 1,33,34
 225 496 225 496 170.5 570.5 c 128,-1,35
 116 645 116 645 116 760 c 0,36,37
 116 921 116 921 220 1002 c 128,-1,38
 324 1083 324 1083 495 1083 c 0,39,40
 570 1083 570 1083 640 1066 c 1,41,42
 657 1157 657 1157 704 1227 c 0,43,44
 730 1268 730 1268 767.5 1295.5 c 128,-1,45
 805 1323 805 1323 851 1323 c 0,46,47
 898 1323 898 1323 929 1292.5 c 128,-1,48
 960 1262 960 1262 960 1214 c 256,49,50
 960 1166 960 1166 930 1134 c 128,-1,51
 900 1102 900 1102 849 1102 c 0,52,53
 806 1102 806 1102 777.5 1127.5 c 128,-1,54
 749 1153 749 1153 744 1198 c 1,55,56
 725 1191 725 1191 701 1139 c 0,57,58
 685 1099 685 1099 676 1054 c 1,59,60
 769 1020 769 1020 821 946 c 128,-1,61
 873 872 873 872 873 760 c 0,62,63
 873 651 873 651 824.5 578.5 c 128,-1,64
 776 506 776 506 691 471 c 128,-1,65
 606 436 606 436 495 436 c 0,66,67
 423 436 423 436 362 451 c 1,68,69
 308 417 308 417 280.5 396 c 128,-1,70
 253 375 253 375 236.5 350 c 128,-1,71
 220 325 220 325 220 293 c 0,72,73
 220 250 220 250 247 237.5 c 128,-1,74
 274 225 274 225 335 225 c 2,75,-1
 759 225 l 2,76,15
 998 225 998 225 998 29 c 0,16,17
355.5 982 m 128,-1,78
 308 917 308 917 308 760 c 256,79,80
 308 603 308 603 355.5 538 c 128,-1,81
 403 473 403 473 495 473 c 0,82,83
 586 473 586 473 633.5 538.5 c 128,-1,84
 681 604 681 604 681 760 c 256,85,86
 681 916 681 916 633.5 981.5 c 128,-1,87
 586 1047 586 1047 495 1047 c 0,88,77
 403 1047 403 1047 355.5 982 c 128,-1,78
668.5 -315 m 128,-1,90
 760 -280 760 -280 819 -213.5 c 128,-1,91
 878 -147 878 -147 878 -57 c 0,92,93
 878 -1 878 -1 844 24 c 128,-1,94
 810 49 810 49 722 49 c 2,95,-1
 365 49 l 1,96,97
 297 14 297 14 259.5 -41.5 c 128,-1,98
 222 -97 222 -97 222 -160 c 0,99,100
 222 -222 222 -222 260.5 -265 c 128,-1,101
 299 -308 299 -308 359 -329 c 128,-1,102
 419 -350 419 -350 484 -350 c 0,103,89
 577 -350 577 -350 668.5 -315 c 128,-1,90
EndSplineSet
Substitution2: "'smcp' Lowercase to Small Capitals lookup 24 subtable" gcircumflex.smcp
Substitution2: "'aalt' Access All Alternates lookup 0 subtable" gcircumflex.smcp
EndChar
StartChar: gbreve
Encoding: 287 287 169
Width: 1034
GlyphClass: 2
Flags: W
LayerCount: 2
Back
Fore
SplineSet
270.5 1384.5 m 128,-1,1
 177 1473 177 1473 126 1595 c 1,2,-1
 160 1614 l 1,3,4
 280 1417 280 1417 492 1417 c 0,5,6
 612 1417 612 1417 693 1473.5 c 128,-1,7
 774 1530 774 1530 824 1614 c 1,8,-1
 859 1595 l 1,9,10
 808 1473 808 1473 714.5 1384.5 c 128,-1,11
 621 1296 621 1296 492 1296 c 0,12,0
 364 1296 364 1296 270.5 1384.5 c 128,-1,1
998 29 m 0,14,15
 998 -71 998 -71 934.5 -166.5 c 128,-1,16
 871 -262 871 -262 743 -323.5 c 128,-1,17
 615 -385 615 -385 433 -385 c 0,18,19
 333 -385 333 -385 246 -363 c 128,-1,20
 159 -341 159 -341 106.5 -300 c 128,-1,21
 54 -259 54 -259 54 -205 c 0,22,23
 54 -64 54 -64 311 49 c 1,24,-1
 304 49 l 2,25,26
 229 49 229 49 164 83.5 c 128,-1,27
 99 118 99 118 99 207 c 0,28,29
 99 275 99 275 150 335 c 128,-1,30
 201 395 201 395 322 462 c 1,31,32
 225 496 225 496 170.5 570.5 c 128,-1,33
 116 645 116 645 116 760 c 0,34,35
 116 921 116 921 220 1002 c 128,-1,36
 324 1083 324 1083 495 1083 c 0,37,38
 570 1083 570 1083 640 1066 c 1,39,40
 657 1157 657 1157 704 1227 c 0,41,42
 730 1268 730 1268 767.5 1295.5 c 128,-1,43
 805 1323 805 1323 851 1323 c 0,44,45
 898 1323 898 1323 929 1292.5 c 128,-1,46
 960 1262 960 1262 960 1214 c 256,47,48
 960 1166 960 1166 930 1134 c 128,-1,49
 900 1102 900 1102 849 1102 c 0,50,51
 806 1102 806 1102 777.5 1127.5 c 128,-1,52
 749 1153 749 1153 744 1198 c 1,53,54
 725 1191 725 1191 701 1139 c 0,55,56
 685 1099 685 1099 676 1054 c 1,57,58
 769 1020 769 1020 821 946 c 128,-1,59
 873 872 873 872 873 760 c 0,60,61
 873 651 873 651 824.5 578.5 c 128,-1,62
 776 506 776 506 691 471 c 128,-1,63
 606 436 606 436 495 436 c 0,64,65
 423 436 423 436 362 451 c 1,66,67
 308 417 308 417 280.5 396 c 128,-1,68
 253 375 253 375 236.5 350 c 128,-1,69
 220 325 220 325 220 293 c 0,70,71
 220 250 220 250 247 237.5 c 128,-1,72
 274 225 274 225 335 225 c 2,73,-1
 759 225 l 2,74,13
 998 225 998 225 998 29 c 0,14,15
355.5 982 m 128,-1,76
 308 917 308 917 308 760 c 256,77,78
 308 603 308 603 355.5 538 c 128,-1,79
 403 473 403 473 495 473 c 0,80,81
 586 473 586 473 633.5 538.5 c 128,-1,82
 681 604 681 604 681 760 c 256,83,84
 681 916 681 916 633.5 981.5 c 128,-1,85
 586 1047 586 1047 495 1047 c 0,86,75
 403 1047 403 1047 355.5 982 c 128,-1,76
668.5 -315 m 128,-1,88
 760 -280 760 -280 819 -213.5 c 128,-1,89
 878 -147 878 -147 878 -57 c 0,90,91
 878 -1 878 -1 844 24 c 128,-1,92
 810 49 810 49 722 49 c 2,93,-1
 365 49 l 1,94,95
 297 14 297 14 259.5 -41.5 c 128,-1,96
 222 -97 222 -97 222 -160 c 0,97,98
 222 -222 222 -222 260.5 -265 c 128,-1,99
 299 -308 299 -308 359 -329 c 128,-1,100
 419 -350 419 -350 484 -350 c 0,101,87
 577 -350 577 -350 668.5 -315 c 128,-1,88
EndSplineSet
Substitution2: "'smcp' Lowercase to Small Capitals lookup 24 subtable" gbreve.smcp
Substitution2: "'aalt' Access All Alternates lookup 0 subtable" gbreve.smcp
EndChar
StartChar: gdotaccent
Encoding: 289 289 172
Width: 1034
GlyphClass: 2
Flags: W
LayerCount: 2
Back
Fore
SplineSet
429.5 1322.5 m 128,-1,1
 399 1340 399 1340 381.5 1370.5 c 128,-1,2
 364 1401 364 1401 364 1436 c 256,3,4
 364 1471 364 1471 381.5 1501 c 128,-1,5
 399 1531 399 1531 429.5 1549 c 128,-1,6
 460 1567 460 1567 495 1567 c 256,7,8
 530 1567 530 1567 560 1549 c 128,-1,9
 590 1531 590 1531 608 1501 c 128,-1,10
 626 1471 626 1471 626 1436 c 256,11,12
 626 1401 626 1401 608 1370.5 c 128,-1,13
 590 1340 590 1340 560 1322.5 c 128,-1,14
 530 1305 530 1305 495 1305 c 256,15,0
 460 1305 460 1305 429.5 1322.5 c 128,-1,1
998 29 m 0,17,18
 998 -71 998 -71 934.5 -166.5 c 128,-1,19
 871 -262 871 -262 743 -323.5 c 128,-1,20
 615 -385 615 -385 433 -385 c 0,21,22
 333 -385 333 -385 246 -363 c 128,-1,23
 159 -341 159 -341 106.5 -300 c 128,-1,24
 54 -259 54 -259 54 -205 c 0,25,26
 54 -64 54 -64 311 49 c 1,27,-1
 304 49 l 2,28,29
 229 49 229 49 164 83.5 c 128,-1,30
 99 118 99 118 99 207 c 0,31,32
 99 275 99 275 150 335 c 128,-1,33
 201 395 201 395 322 462 c 1,34,35
 225 496 225 496 170.5 570.5 c 128,-1,36
 116 645 116 645 116 760 c 0,37,38
 116 921 116 921 220 1002 c 128,-1,39
 324 1083 324 1083 495 1083 c 0,40,41
 570 1083 570 1083 640 1066 c 1,42,43
 657 1157 657 1157 704 1227 c 0,44,45
 730 1268 730 1268 767.5 1295.5 c 128,-1,46
 805 1323 805 1323 851 1323 c 0,47,48
 898 1323 898 1323 929 1292.5 c 128,-1,49
 960 1262 960 1262 960 1214 c 256,50,51
 960 1166 960 1166 930 1134 c 128,-1,52
 900 1102 900 1102 849 1102 c 0,53,54
 806 1102 806 1102 777.5 1127.5 c 128,-1,55
 749 1153 749 1153 744 1198 c 1,56,57
 725 1191 725 1191 701 1139 c 0,58,59
 685 1099 685 1099 676 1054 c 1,60,61
 769 1020 769 1020 821 946 c 128,-1,62
 873 872 873 872 873 760 c 0,63,64
 873 651 873 651 824.5 578.5 c 128,-1,65
 776 506 776 506 691 471 c 128,-1,66
 606 436 606 436 495 436 c 0,67,68
 423 436 423 436 362 451 c 1,69,70
 308 417 308 417 280.5 396 c 128,-1,71
 253 375 253 375 236.5 350 c 128,-1,72
 220 325 220 325 220 293 c 0,73,74
 220 250 220 250 247 237.5 c 128,-1,75
 274 225 274 225 335 225 c 2,76,-1
 759 225 l 2,77,16
 998 225 998 225 998 29 c 0,17,18
355.5 982 m 128,-1,79
 308 917 308 917 308 760 c 256,80,81
 308 603 308 603 355.5 538 c 128,-1,82
 403 473 403 473 495 473 c 0,83,84
 586 473 586 473 633.5 538.5 c 128,-1,85
 681 604 681 604 681 760 c 256,86,87
 681 916 681 916 633.5 981.5 c 128,-1,88
 586 1047 586 1047 495 1047 c 0,89,78
 403 1047 403 1047 355.5 982 c 128,-1,79
668.5 -315 m 128,-1,91
 760 -280 760 -280 819 -213.5 c 128,-1,92
 878 -147 878 -147 878 -57 c 0,93,94
 878 -1 878 -1 844 24 c 128,-1,95
 810 49 810 49 722 49 c 2,96,-1
 365 49 l 1,97,98
 297 14 297 14 259.5 -41.5 c 128,-1,99
 222 -97 222 -97 222 -160 c 0,100,101
 222 -222 222 -222 260.5 -265 c 128,-1,102
 299 -308 299 -308 359 -329 c 128,-1,103
 419 -350 419 -350 484 -350 c 0,104,90
 577 -350 577 -350 668.5 -315 c 128,-1,91
EndSplineSet
Substitution2: "'smcp' Lowercase to Small Capitals lookup 24 subtable" gdotaccent.smcp
Substitution2: "'aalt' Access All Alternates lookup 0 subtable" gdotaccent.smcp
EndChar
